<svg width="208" height="138" viewBox="0 0 208 138" fill="none" xmlns="http://www.w3.org/2000/svg">
<rect width="208" height="138" fill="#E5E5E5"/>
<g id="29">
<path d="M98.2796 134H4.39755V110.994L35.9865 79.0511C45.0119 69.6128 50.9109 63.1829 53.6834 59.7615C56.4559 56.2811 58.3731 53.3022 59.4349 50.8246C60.5557 48.347 61.1161 45.7515 61.1161 43.038C61.1161 39.6755 60.0248 37.021 57.8422 35.0744C55.6596 33.1277 52.5921 32.1544 48.6398 32.1544C44.5695 32.1544 40.4402 33.3342 36.252 35.6937C32.1227 37.9943 27.433 41.4157 22.1829 45.9579L2.9818 23.4829C9.64763 17.5249 15.2516 13.2777 19.7939 10.7411C24.3361 8.14557 29.2617 6.16942 34.5708 4.81266C39.9388 3.4559 45.9558 2.77751 52.6216 2.77751C60.9981 2.77751 68.4603 4.25226 75.0082 7.20174C81.615 10.1512 86.7176 14.369 90.316 19.855C93.9733 25.2821 95.802 31.3875 95.802 38.1713C95.802 43.2444 95.1531 47.9341 93.8554 52.2403C92.6166 56.5466 90.6699 60.7938 88.0154 64.9821C85.3609 69.1114 81.8215 73.4766 77.3973 78.0778C73.032 82.679 63.6822 91.4095 49.3477 104.269V105.154H98.2796V134ZM205.434 63.8318C205.434 89.1384 199.978 107.455 189.065 118.781C178.152 130.107 160.691 135.77 136.682 135.77C128.777 135.77 122.76 135.475 118.631 134.885V107.189C123.704 108.133 128.777 108.605 133.85 108.605C146.356 108.605 156.001 106.039 162.785 100.907C169.569 95.7157 173.255 87.5456 173.845 76.3966H172.784C170.483 80.6439 168.212 83.7113 165.97 85.599C163.729 87.4867 160.986 88.9319 157.741 89.9347C154.497 90.9376 150.456 91.439 145.619 91.439C134.411 91.439 125.651 87.6931 119.339 80.2014C113.027 72.7097 109.871 62.3866 109.871 49.2319C109.871 34.8974 113.941 23.6599 122.082 15.5193C130.281 7.37871 141.49 3.30842 155.706 3.30842C171.515 3.30842 183.756 8.5585 192.427 19.0587C201.099 29.5588 205.434 44.4832 205.434 63.8318ZM156.679 31.2695C152.845 31.2695 149.719 32.6558 147.3 35.4283C144.94 38.2008 143.761 42.6545 143.761 48.7894C143.761 53.6266 144.793 57.4904 146.858 60.3809C148.922 63.2124 152.078 64.6282 156.325 64.6282C160.16 64.6282 163.493 63.2419 166.324 60.4694C169.156 57.6969 170.571 54.364 170.571 50.4706C170.571 45.2206 169.244 40.7079 166.59 36.9325C163.994 33.1572 160.691 31.2695 156.679 31.2695Z" fill="#FAFAFA"/>
<path d="M98.2796 134V136H100.28V134H98.2796ZM4.39755 134H2.39755V136H4.39755V134ZM4.39755 110.994L2.97548 109.588L2.39755 110.172V110.994H4.39755ZM35.9865 79.0511L37.4086 80.4575L37.4204 80.4455L37.432 80.4334L35.9865 79.0511ZM53.6834 59.7615L55.2373 61.0207L55.2425 61.0142L55.2477 61.0077L53.6834 59.7615ZM59.4349 50.8246L57.6127 50.0003L57.6045 50.0184L57.5966 50.0367L59.4349 50.8246ZM36.252 35.6937L37.2254 37.4409L37.2337 37.4362L36.252 35.6937ZM22.1829 45.9579L20.6623 47.2571L21.9695 48.7872L23.4915 47.4704L22.1829 45.9579ZM2.9818 23.4829L1.64898 21.9917L0.190814 23.295L1.46118 24.782L2.9818 23.4829ZM19.7939 10.7411L20.769 12.4873L20.7776 12.4825L20.7861 12.4776L19.7939 10.7411ZM34.5708 4.81266L34.0807 2.87363L34.0756 2.87493L34.5708 4.81266ZM75.0082 7.20174L74.1868 9.02528L74.1929 9.02801L75.0082 7.20174ZM90.316 19.855L88.6436 20.9519L88.6505 20.9624L88.6575 20.9727L90.316 19.855ZM93.8554 52.2403L91.9404 51.6632L91.9368 51.6753L91.9333 51.6874L93.8554 52.2403ZM88.0154 64.9821L89.6978 66.0636L89.7047 66.0528L88.0154 64.9821ZM77.3973 78.0778L75.9556 76.6916L75.9463 76.7013L77.3973 78.0778ZM49.3477 104.269L48.0121 102.78L47.3477 103.377V104.269H49.3477ZM49.3477 105.154H47.3477V107.154H49.3477V105.154ZM98.2796 105.154H100.28V103.154H98.2796V105.154ZM98.2796 132H4.39755V136H98.2796V132ZM6.39755 134V110.994H2.39755V134H6.39755ZM5.81962 112.4L37.4086 80.4575L34.5644 77.6448L2.97548 109.588L5.81962 112.4ZM37.432 80.4334C46.4484 71.0044 52.4046 64.5163 55.2373 61.0207L52.1295 58.5024C49.4172 61.8495 43.5755 68.2211 34.541 77.6689L37.432 80.4334ZM55.2477 61.0077C58.0694 57.4655 60.1102 54.326 61.2732 51.6124L57.5966 50.0367C56.636 52.2783 54.8424 55.0967 52.1191 58.5154L55.2477 61.0077ZM61.2571 51.6489C62.4948 48.9129 63.1161 46.0364 63.1161 43.038H59.1161C59.1161 45.4666 58.6166 47.7811 57.6127 50.0003L61.2571 51.6489ZM63.1161 43.038C63.1161 39.1997 61.8471 35.9664 59.1734 33.5818L56.511 36.5669C58.2025 38.0756 59.1161 40.1513 59.1161 43.038H63.1161ZM59.1734 33.5818C56.5123 31.2083 52.9087 30.1544 48.6398 30.1544V34.1544C52.2755 34.1544 54.8068 35.047 56.511 36.5669L59.1734 33.5818ZM48.6398 30.1544C44.1681 30.1544 39.7037 31.4535 35.2703 33.9512L37.2337 37.4362C41.1767 35.2148 44.971 34.1544 48.6398 34.1544V30.1544ZM35.2786 33.9466C30.9885 36.3368 26.1845 39.8513 20.8744 44.4454L23.4915 47.4704C28.6815 42.9802 33.2569 39.6519 37.2254 37.4409L35.2786 33.9466ZM23.7036 44.6588L4.50243 22.1838L1.46118 24.782L20.6623 47.2571L23.7036 44.6588ZM4.31462 24.9741C10.937 19.0549 16.4144 14.9191 20.769 12.4873L18.8187 8.99495C14.0889 11.6362 8.35822 15.995 1.64898 21.9917L4.31462 24.9741ZM20.7861 12.4776C25.1652 9.97529 29.9226 8.0648 35.066 6.75038L34.0756 2.87493C28.6008 4.27404 23.5069 6.31586 18.8016 9.00463L20.7861 12.4776ZM35.0608 6.75168C40.2401 5.44264 46.0887 4.77751 52.6216 4.77751V0.777515C45.8229 0.777515 39.6376 1.46915 34.0807 2.87363L35.0608 6.75168ZM52.6216 4.77751C60.7616 4.77751 67.9366 6.20988 74.1868 9.02527L75.8296 5.3782C68.9841 2.29463 61.2346 0.777515 52.6216 0.777515V4.77751ZM74.1929 9.02801C80.4874 11.8381 85.2766 15.8185 88.6436 20.9519L91.9883 18.7581C88.1587 12.9194 82.7427 8.46439 75.8235 5.37546L74.1929 9.02801ZM88.6575 20.9727C92.0838 26.0569 93.802 31.7703 93.802 38.1713H97.802C97.802 31.0047 95.8629 24.5072 91.9745 18.7373L88.6575 20.9727ZM93.802 38.1713C93.802 43.0735 93.1751 47.5664 91.9404 51.6632L95.7703 52.8174C97.1312 48.3018 97.802 43.4153 97.802 38.1713H93.802ZM91.9333 51.6874C90.7524 55.7926 88.8896 59.8669 86.3261 63.9114L89.7047 66.0528C92.4503 61.7208 94.4808 57.3006 95.7774 52.7933L91.9333 51.6874ZM86.333 63.9006C83.7659 67.8939 80.3151 72.1577 75.9556 76.6916L78.8389 79.464C83.3279 74.7955 86.9558 70.3289 89.6977 66.0636L86.333 63.9006ZM75.9463 76.7013C71.6459 81.2341 62.3572 89.9113 48.0121 102.78L50.6832 105.758C65.0071 92.9077 74.4181 84.1239 78.8482 79.4543L75.9463 76.7013ZM47.3477 104.269V105.154H51.3477V104.269H47.3477ZM49.3477 107.154H98.2796V103.154H49.3477V107.154ZM96.2796 105.154V134H100.28V105.154H96.2796ZM118.631 134.885H116.631V136.619L118.348 136.865L118.631 134.885ZM118.631 107.189L118.997 105.223L116.631 104.783V107.189H118.631ZM162.785 100.907L163.991 102.502L164 102.495L162.785 100.907ZM173.845 76.3966L175.843 76.5023L175.954 74.3966H173.845V76.3966ZM172.784 76.3966V74.3966H171.592L171.025 75.444L172.784 76.3966ZM122.082 15.5193L120.673 14.1L120.668 14.1051L122.082 15.5193ZM147.3 35.4283L145.793 34.1136L145.785 34.1228L145.777 34.1321L147.3 35.4283ZM146.858 60.3809L145.23 61.5434L145.236 61.5514L145.242 61.5593L146.858 60.3809ZM166.59 36.9325L164.942 38.0656L164.947 38.0743L164.954 38.0829L166.59 36.9325ZM203.434 63.8318C203.434 88.9217 198.013 106.611 187.624 117.393L190.505 120.168C201.942 108.298 207.434 89.355 207.434 63.8318H203.434ZM187.624 117.393C177.247 128.163 160.43 133.77 136.682 133.77V137.77C160.952 137.77 179.056 132.051 190.505 120.168L187.624 117.393ZM136.682 133.77C128.804 133.77 122.9 133.474 118.914 132.905L118.348 136.865C122.62 137.475 128.75 137.77 136.682 137.77V133.77ZM120.631 134.885V107.189H116.631V134.885H120.631ZM118.265 109.155C123.457 110.121 128.652 110.605 133.85 110.605V106.605C128.902 106.605 123.951 106.145 118.997 105.223L118.265 109.155ZM133.85 110.605C146.595 110.605 156.731 107.995 163.991 102.502L161.578 99.3118C155.271 104.083 146.117 106.605 133.85 106.605V110.605ZM164 102.495C171.383 96.846 175.232 88.0444 175.843 76.5023L171.848 76.2909C171.279 87.0469 167.755 94.5854 161.569 99.3185L164 102.495ZM173.845 74.3966H172.784V78.3966H173.845V74.3966ZM171.025 75.444C168.776 79.5952 166.648 82.4139 164.682 84.0692L167.258 87.1288C169.776 85.0088 172.189 81.6925 174.542 77.3492L171.025 75.444ZM164.682 84.0692C162.675 85.7593 160.179 87.0877 157.151 88.0239L158.332 91.8455C161.792 90.7761 164.782 89.2141 167.258 87.1288L164.682 84.0692ZM157.151 88.0239C154.16 88.9484 150.333 89.439 145.619 89.439V93.439C150.579 93.439 154.834 92.9267 158.332 91.8455L157.151 88.0239ZM145.619 89.439C134.906 89.439 126.743 85.8855 120.868 78.9128L117.809 81.4901C124.559 89.5007 133.916 93.439 145.619 93.439V89.439ZM120.868 78.9128C114.951 71.8891 111.871 62.0775 111.871 49.2319H107.871C107.871 62.6956 111.103 73.5304 117.809 81.4901L120.868 78.9128ZM111.871 49.2319C111.871 35.2903 115.818 24.6118 123.496 16.9335L120.668 14.1051C112.065 22.7079 107.871 34.5045 107.871 49.2319H111.871ZM123.491 16.9386C131.233 9.25194 141.888 5.30842 155.706 5.30842V1.30842C141.091 1.30842 129.33 5.50548 120.673 14.1L123.491 16.9386ZM155.706 5.30842C171.026 5.30842 182.657 10.3688 190.885 20.3322L193.969 17.7851C184.854 6.74818 172.005 1.30842 155.706 1.30842V5.30842ZM190.885 20.3322C199.158 30.3495 203.434 44.7559 203.434 63.8318H207.434C207.434 44.2105 203.039 28.7681 193.969 17.7851L190.885 20.3322ZM156.679 29.2695C152.295 29.2695 148.609 30.8851 145.793 34.1136L148.807 36.743C150.828 34.4264 153.395 33.2695 156.679 33.2695V29.2695ZM145.777 34.1321C142.959 37.4428 141.761 42.4789 141.761 48.7894H145.761C145.761 42.8301 146.922 38.9588 148.823 36.7245L145.777 34.1321ZM141.761 48.7894C141.761 53.8956 142.849 58.2105 145.23 61.5434L148.485 59.2184C146.736 56.7703 145.761 53.3575 145.761 48.7894H141.761ZM145.242 61.5593C147.764 65.0191 151.592 66.6282 156.325 66.6282V62.6282C152.565 62.6282 150.08 61.4057 148.474 59.2026L145.242 61.5593ZM156.325 66.6282C160.702 66.6282 164.532 65.0233 167.723 61.8984L164.925 59.0404C162.453 61.4606 159.617 62.6282 156.325 62.6282V66.6282ZM167.723 61.8984C170.931 58.7573 172.571 54.9124 172.571 50.4706H168.571C168.571 53.8155 167.38 56.6365 164.925 59.0404L167.723 61.8984ZM172.571 50.4706C172.571 44.8676 171.149 39.9394 168.226 35.7822L164.954 38.0829C167.34 41.4763 168.571 45.5736 168.571 50.4706H172.571ZM168.238 35.7995C165.331 31.5709 161.451 29.2695 156.679 29.2695V33.2695C159.93 33.2695 162.658 34.7435 164.942 38.0656L168.238 35.7995Z" fill="#FAFAFA"/>
</g>
</svg>
