<svg width="434" height="469" viewBox="0 0 434 469" fill="none" xmlns="http://www.w3.org/2000/svg">
<g id="Frame 160">
<g id="hepta">
<g id="29">
<path d="M204.865 279H56.0371V246.773L124.592 174.703C141.486 155.465 149.934 140.182 149.934 128.854C149.934 119.674 147.932 112.691 143.928 107.906C139.924 103.121 134.113 100.729 126.496 100.729C118.977 100.729 112.873 103.951 108.186 110.396C103.498 116.744 101.154 124.703 101.154 134.273H51.6426C51.6426 121.188 54.9141 109.127 61.457 98.0918C68 86.959 77.082 78.2676 88.7031 72.0176C100.324 65.7676 113.312 62.6426 127.668 62.6426C150.715 62.6426 168.439 67.9648 180.842 78.6094C193.342 89.2539 199.592 104.537 199.592 124.459C199.592 132.857 198.029 141.061 194.904 149.068C191.779 156.979 186.896 165.328 180.256 174.117C173.713 182.809 163.117 194.479 148.469 209.127L120.93 240.914H204.865V279ZM327.033 196.529C316.389 206.1 304.475 210.885 291.291 210.885C271.955 210.885 256.623 204.342 245.295 191.256C233.967 178.17 228.303 160.689 228.303 138.814C228.303 125.143 231.477 112.447 237.824 100.729C244.172 89.0098 253.059 79.7324 264.484 72.8965C276.008 66.0605 288.703 62.6426 302.57 62.6426C316.633 62.6426 329.328 66.207 340.656 73.3359C352.082 80.3672 360.969 90.377 367.316 103.365C373.664 116.256 376.936 131.148 377.131 148.043V166.939C377.131 190.475 372.492 210.885 363.215 228.17C354.035 245.455 340.9 258.736 323.811 268.014C306.721 277.291 286.799 281.93 264.045 281.93H260.969V242.379L270.344 242.232C304.328 240.572 323.225 225.338 327.033 196.529ZM304.621 175.289C315.363 175.289 323.078 170.65 327.766 161.373V140.865C327.766 127.193 325.471 117.086 320.881 110.543C316.291 104 310.09 100.729 302.277 100.729C295.344 100.729 289.533 104.439 284.846 111.861C280.158 119.283 277.814 128.268 277.814 138.814C277.814 149.947 280.207 158.834 284.992 165.475C289.777 172.018 296.32 175.289 304.621 175.289Z" fill="#FAFAFA"/>
<path d="M204.865 279V281H206.865V279H204.865ZM56.0371 279H54.0371V281H56.0371V279ZM56.0371 246.773L54.588 245.395L54.0371 245.974V246.773H56.0371ZM124.592 174.703L126.041 176.082L126.068 176.053L126.095 176.023L124.592 174.703ZM108.186 110.396L109.794 111.585L109.799 111.579L109.803 111.573L108.186 110.396ZM101.154 134.273V136.273H103.154V134.273H101.154ZM51.6426 134.273H49.6426V136.273H51.6426V134.273ZM61.457 98.0918L63.1774 99.1118L63.1813 99.1052L61.457 98.0918ZM180.842 78.6094L179.539 80.1271L179.545 80.1321L180.842 78.6094ZM194.904 149.068L196.764 149.803L196.767 149.795L194.904 149.068ZM180.256 174.117L178.66 172.912L178.658 172.914L180.256 174.117ZM148.469 209.127L147.055 207.713L147.004 207.763L146.957 207.817L148.469 209.127ZM120.93 240.914L119.418 239.604L116.551 242.914H120.93V240.914ZM204.865 240.914H206.865V238.914H204.865V240.914ZM204.865 277H56.0371V281H204.865V277ZM58.0371 279V246.773H54.0371V279H58.0371ZM57.4862 248.152L126.041 176.082L123.143 173.325L54.588 245.395L57.4862 248.152ZM126.095 176.023C134.597 166.341 141.031 157.591 145.349 149.779C149.655 141.988 151.934 134.991 151.934 128.854H147.934C147.934 134.044 145.989 140.353 141.848 147.845C137.718 155.317 131.481 163.827 123.089 173.383L126.095 176.023ZM151.934 128.854C151.934 119.419 149.88 111.904 145.462 106.623L142.394 109.19C145.983 113.479 147.934 119.928 147.934 128.854H151.934ZM145.462 106.623C140.994 101.284 134.562 98.7285 126.496 98.7285V102.729C133.664 102.729 138.853 104.958 142.394 109.19L145.462 106.623ZM126.496 98.7285C118.293 98.7285 111.606 102.294 106.568 109.22L109.803 111.573C114.141 105.609 119.66 102.729 126.496 102.729V98.7285ZM106.577 109.208C101.585 115.968 99.1543 124.369 99.1543 134.273H103.154C103.154 125.038 105.411 117.52 109.794 111.585L106.577 109.208ZM101.154 132.273H51.6426V136.273H101.154V132.273ZM53.6426 134.273C53.6426 121.539 56.8213 109.832 63.1774 99.1118L59.7367 97.0718C53.0068 108.422 49.6426 120.836 49.6426 134.273H53.6426ZM63.1813 99.1052C69.5344 88.2953 78.3445 79.8595 89.6504 73.779L87.7558 70.2562C75.8195 76.6757 66.4656 85.6226 59.7328 97.0784L63.1813 99.1052ZM89.6504 73.779C100.955 67.6991 113.613 64.6426 127.668 64.6426V60.6426C113.012 60.6426 99.6932 63.836 87.7558 70.2562L89.6504 73.779ZM127.668 64.6426C150.431 64.6426 167.624 69.9003 179.539 80.127L182.144 77.0917C169.255 66.0294 150.999 60.6426 127.668 60.6426V64.6426ZM179.545 80.1321C191.504 90.316 197.592 104.986 197.592 124.459H201.592C201.592 104.088 195.179 88.1918 182.138 77.0867L179.545 80.1321ZM197.592 124.459C197.592 132.603 196.078 140.56 193.041 148.341L196.767 149.795C199.981 141.561 201.592 133.112 201.592 124.459H197.592ZM193.044 148.333C190.002 156.034 185.222 164.227 178.66 172.912L181.852 175.323C188.571 166.43 193.557 157.923 196.764 149.803L193.044 148.333ZM178.658 172.914C172.201 181.492 161.685 193.083 147.055 207.713L149.883 210.541C164.55 195.874 175.225 184.126 181.854 175.32L178.658 172.914ZM146.957 207.817L119.418 239.604L122.441 242.224L149.98 210.437L146.957 207.817ZM120.93 242.914H204.865V238.914H120.93V242.914ZM202.865 240.914V279H206.865V240.914H202.865ZM327.033 196.529L329.016 196.791L329.726 191.419L325.696 195.042L327.033 196.529ZM264.484 72.8965L263.464 71.1764L263.458 71.1802L264.484 72.8965ZM340.656 73.3359L339.591 75.0286L339.6 75.034L339.608 75.0393L340.656 73.3359ZM367.316 103.365L365.52 104.243L365.522 104.249L367.316 103.365ZM377.131 148.043H379.131V148.031L379.131 148.02L377.131 148.043ZM363.215 228.17L361.453 227.224L361.448 227.232L363.215 228.17ZM260.969 281.93H258.969V283.93H260.969V281.93ZM260.969 242.379L260.938 240.379L258.969 240.41V242.379H260.969ZM270.344 242.232L270.375 244.232L270.408 244.232L270.441 244.23L270.344 242.232ZM327.766 161.373L329.551 162.275L329.766 161.85V161.373H327.766ZM284.992 165.475L283.37 166.644L283.378 166.655L284.992 165.475ZM325.696 195.042C315.384 204.313 303.937 208.885 291.291 208.885V212.885C305.012 212.885 317.393 207.886 328.37 198.017L325.696 195.042ZM291.291 208.885C272.459 208.885 257.708 202.539 246.807 189.947L243.783 192.565C255.538 206.144 271.451 212.885 291.291 212.885V208.885ZM246.807 189.947C235.87 177.312 230.303 160.339 230.303 138.814H226.303C226.303 161.04 232.064 179.027 243.783 192.565L246.807 189.947ZM230.303 138.814C230.303 125.466 233.398 113.1 239.583 101.681L236.066 99.7759C229.555 111.795 226.303 124.819 226.303 138.814H230.303ZM239.583 101.681C245.76 90.2776 254.394 81.2642 265.511 74.6128L263.458 71.1802C251.723 78.2006 242.584 87.7419 236.066 99.7759L239.583 101.681ZM265.505 74.6166C276.708 67.9705 289.049 64.6426 302.57 64.6426V60.6426C288.357 60.6426 275.307 64.1506 263.464 71.1764L265.505 74.6166ZM302.57 64.6426C316.276 64.6426 328.598 68.1109 339.591 75.0286L341.721 71.6432C330.058 64.3032 316.99 60.6426 302.57 60.6426V64.6426ZM339.608 75.0393C350.686 81.8565 359.325 91.568 365.52 104.243L369.113 102.487C362.613 89.1859 353.478 78.8779 341.704 71.6326L339.608 75.0393ZM365.522 104.249C371.717 116.828 374.939 131.418 375.131 148.066L379.131 148.02C378.933 130.879 375.611 115.683 369.111 102.482L365.522 104.249ZM375.131 148.043V166.939H379.131V148.043H375.131ZM375.131 166.939C375.131 190.21 370.546 210.283 361.453 227.224L364.977 229.116C374.439 211.487 379.131 190.739 379.131 166.939H375.131ZM361.448 227.232C352.452 244.172 339.598 257.167 322.856 266.256L324.765 269.771C342.202 260.305 355.618 246.738 364.981 229.108L361.448 227.232ZM322.856 266.256C306.106 275.349 286.522 279.93 264.045 279.93V283.93C287.075 283.93 307.336 279.233 324.765 269.771L322.856 266.256ZM264.045 279.93H260.969V283.93H264.045V279.93ZM262.969 281.93V242.379H258.969V281.93H262.969ZM261 244.379L270.375 244.232L270.312 240.233L260.938 240.379L261 244.379ZM270.441 244.23C287.691 243.387 301.373 239.089 311.26 231.119C321.184 223.117 327.058 211.598 329.016 196.791L325.05 196.267C323.199 210.269 317.721 220.771 308.749 228.005C299.739 235.268 286.981 239.417 270.246 240.235L270.441 244.23ZM304.621 177.289C310.285 177.289 315.27 176.064 319.494 173.524C323.722 170.982 327.064 167.197 329.551 162.275L325.981 160.471C323.78 164.827 320.92 167.999 317.433 170.096C313.942 172.195 309.7 173.289 304.621 173.289V177.289ZM329.766 161.373V140.865H325.766V161.373H329.766ZM329.766 140.865C329.766 127.043 327.459 116.438 322.518 109.394L319.244 111.692C323.482 117.734 325.766 127.343 325.766 140.865H329.766ZM322.518 109.394C317.564 102.332 310.759 98.7285 302.277 98.7285V102.729C309.42 102.729 315.018 105.668 319.244 111.692L322.518 109.394ZM302.277 98.7285C294.472 98.7285 288.098 102.967 283.155 110.793L286.537 112.929C290.969 105.912 296.215 102.729 302.277 102.729V98.7285ZM283.155 110.793C278.228 118.594 275.814 127.966 275.814 138.814H279.814C279.814 128.569 282.089 119.972 286.537 112.929L283.155 110.793ZM275.814 138.814C275.814 150.219 278.265 159.559 283.37 166.644L286.615 164.305C282.149 158.109 279.814 149.676 279.814 138.814H275.814ZM283.378 166.655C288.55 173.728 295.7 177.289 304.621 177.289V173.289C296.94 173.289 291.004 170.308 286.607 164.294L283.378 166.655Z" fill="#FAFAFA"/>
</g>
<g id="anos">
<path d="M68.75 420C67.5781 417.852 66.5365 414.694 65.625 410.527C59.5703 418.145 51.1068 421.953 40.2344 421.953C30.2734 421.953 21.8099 418.958 14.8438 412.969C7.8776 406.914 4.39453 399.329 4.39453 390.215C4.39453 378.757 8.6263 370.098 17.0898 364.238C25.5534 358.379 37.8581 355.449 54.0039 355.449H64.1602V349.883C64.1602 340.182 59.9609 335.332 51.5625 335.332C43.75 335.332 39.8438 339.173 39.8438 346.855H6.93359C6.93359 336.634 11.263 328.333 19.9219 321.953C28.6458 315.573 39.7461 312.383 53.2227 312.383C66.6992 312.383 77.3438 315.671 85.1562 322.246C92.9688 328.822 96.9727 337.839 97.168 349.297V396.074C97.2982 405.775 98.7956 413.197 101.66 418.34V420H68.75ZM48.1445 398.516C52.2461 398.516 55.6315 397.637 58.3008 395.879C61.0352 394.121 62.9883 392.135 64.1602 389.922V373.027H54.5898C43.1315 373.027 37.4023 378.171 37.4023 388.457C37.4023 391.452 38.4115 393.893 40.4297 395.781C42.4479 397.604 45.0195 398.516 48.1445 398.516ZM145.703 314.336L146.777 326.738C154.069 317.168 164.128 312.383 176.953 312.383C187.956 312.383 196.159 315.671 201.562 322.246C207.031 328.822 209.863 338.717 210.059 351.934V420H177.051V353.301C177.051 347.962 175.977 344.056 173.828 341.582C171.68 339.043 167.773 337.773 162.109 337.773C155.664 337.773 150.879 340.312 147.754 345.391V420H114.844V314.336H145.703ZM224.219 366.191C224.219 355.645 226.27 346.27 230.371 338.066C234.473 329.798 240.365 323.451 248.047 319.023C255.729 314.596 264.746 312.383 275.098 312.383C290.918 312.383 303.385 317.298 312.5 327.129C321.615 336.895 326.172 350.208 326.172 367.07V368.242C326.172 384.714 321.582 397.799 312.402 407.5C303.288 417.135 290.918 421.953 275.293 421.953C260.254 421.953 248.177 417.461 239.062 408.477C229.948 399.427 225.033 387.188 224.316 371.758L224.219 366.191ZM257.129 368.242C257.129 378.008 258.659 385.169 261.719 389.727C264.779 394.284 269.303 396.562 275.293 396.562C287.012 396.562 293.001 387.546 293.262 369.512V366.191C293.262 347.246 287.207 337.773 275.098 337.773C264.095 337.773 258.138 345.944 257.227 362.285L257.129 368.242ZM395.996 390.312C395.996 387.513 394.531 385.267 391.602 383.574C388.672 381.882 383.105 380.124 374.902 378.301C366.699 376.478 359.928 374.102 354.59 371.172C349.251 368.177 345.182 364.564 342.383 360.332C339.583 356.1 338.184 351.25 338.184 345.781C338.184 336.081 342.188 328.105 350.195 321.855C358.203 315.54 368.685 312.383 381.641 312.383C395.573 312.383 406.771 315.54 415.234 321.855C423.698 328.171 427.93 336.471 427.93 346.758H394.922C394.922 338.294 390.462 334.062 381.543 334.062C378.092 334.062 375.195 335.039 372.852 336.992C370.508 338.88 369.336 341.257 369.336 344.121C369.336 347.051 370.768 349.427 373.633 351.25C376.497 353.073 381.055 354.57 387.305 355.742C393.62 356.914 399.154 358.314 403.906 359.941C419.792 365.41 427.734 375.208 427.734 389.336C427.734 398.971 423.438 406.816 414.844 412.871C406.315 418.926 395.247 421.953 381.641 421.953C372.591 421.953 364.518 420.326 357.422 417.07C350.326 413.815 344.792 409.388 340.82 403.789C336.849 398.19 334.863 392.298 334.863 386.113H365.625C365.755 390.996 367.383 394.577 370.508 396.855C373.633 399.069 377.637 400.176 382.52 400.176C387.012 400.176 390.365 399.264 392.578 397.441C394.857 395.618 395.996 393.242 395.996 390.312Z" fill="#FAFAFA"/>
<path d="M68.75 420L66.9942 420.958L67.5627 422H68.75V420ZM65.625 410.527L67.5788 410.1L66.6791 405.987L64.0594 409.283L65.625 410.527ZM14.8438 412.969L13.5317 414.478L13.5398 414.485L14.8438 412.969ZM17.0898 364.238L15.9514 362.594L17.0898 364.238ZM64.1602 355.449V357.449H66.1602V355.449H64.1602ZM39.8438 346.855V348.855H41.8438V346.855H39.8438ZM6.93359 346.855H4.93359V348.855H6.93359V346.855ZM19.9219 321.953L18.7412 320.339L18.7355 320.343L19.9219 321.953ZM85.1562 322.246L86.4441 320.716L85.1562 322.246ZM97.168 349.297H99.168V349.28L99.1677 349.263L97.168 349.297ZM97.168 396.074H95.168V396.088L95.1681 396.101L97.168 396.074ZM101.66 418.34H103.66V417.82L103.407 417.367L101.66 418.34ZM101.66 420V422H103.66V420H101.66ZM58.3008 395.879L57.2193 394.197L57.21 394.203L57.2008 394.209L58.3008 395.879ZM64.1602 389.922L65.9277 390.858L66.1602 390.419V389.922H64.1602ZM64.1602 373.027H66.1602V371.027H64.1602V373.027ZM40.4297 395.781L39.0634 397.242L39.0761 397.254L39.0891 397.265L40.4297 395.781ZM70.5058 419.042C69.4679 417.139 68.475 414.197 67.5788 410.1L63.6712 410.955C64.5979 415.191 65.6884 418.564 66.9942 420.958L70.5058 419.042ZM64.0594 409.283C58.432 416.362 50.5784 419.953 40.2344 419.953V423.953C51.6352 423.953 60.7086 419.927 67.1906 411.772L64.0594 409.283ZM40.2344 419.953C30.7084 419.953 22.7193 417.103 16.1477 411.452L13.5398 414.485C20.9005 420.814 29.8384 423.953 40.2344 423.953V419.953ZM16.1558 411.459C9.6203 405.779 6.39453 398.742 6.39453 390.215H2.39453C2.39453 399.917 6.1349 408.049 13.5317 414.478L16.1558 411.459ZM6.39453 390.215C6.39453 379.326 10.3719 371.322 18.2283 365.883L15.9514 362.594C6.88074 368.874 2.39453 378.187 2.39453 390.215H6.39453ZM18.2283 365.883C26.2164 360.352 38.0509 357.449 54.0039 357.449V353.449C37.6653 353.449 24.8904 356.405 15.9514 362.594L18.2283 365.883ZM54.0039 357.449H64.1602V353.449H54.0039V357.449ZM66.1602 355.449V349.883H62.1602V355.449H66.1602ZM66.1602 349.883C66.1602 344.789 65.0639 340.596 62.5228 337.661C59.934 334.67 56.1511 333.332 51.5625 333.332V337.332C55.3723 337.332 57.8883 338.419 59.4987 340.279C61.1568 342.194 62.1602 345.276 62.1602 349.883H66.1602ZM51.5625 333.332C47.3563 333.332 43.8327 334.366 41.3712 336.787C38.9034 339.213 37.8438 342.697 37.8438 346.855H41.8438C41.8438 343.331 42.7372 341.053 44.1757 339.639C45.6204 338.218 47.9562 337.332 51.5625 337.332V333.332ZM39.8438 344.855H6.93359V348.855H39.8438V344.855ZM8.93359 346.855C8.93359 337.308 12.9297 329.59 21.1083 323.563L18.7355 320.343C9.59637 327.077 4.93359 335.961 4.93359 346.855H8.93359ZM21.1025 323.567C29.4071 317.494 40.0644 314.383 53.2227 314.383V310.383C39.4277 310.383 27.8846 313.652 18.7412 320.339L21.1025 323.567ZM53.2227 314.383C66.3804 314.383 76.518 317.59 83.8684 323.776L86.4441 320.716C78.1695 313.751 67.0181 310.383 53.2227 310.383V314.383ZM83.8684 323.776C91.1814 329.931 94.9815 338.372 95.1683 349.331L99.1677 349.263C98.9639 337.305 94.7561 327.712 86.4441 320.716L83.8684 323.776ZM95.168 349.297V396.074H99.168V349.297H95.168ZM95.1681 396.101C95.3003 405.943 96.8145 413.75 99.9129 419.313L103.407 417.367C100.777 412.643 99.2961 405.607 99.1678 396.047L95.1681 396.101ZM99.6602 418.34V420H103.66V418.34H99.6602ZM101.66 418H68.75V422H101.66V418ZM48.1445 400.516C52.5272 400.516 56.3239 399.575 59.4008 397.549L57.2008 394.209C54.9391 395.698 51.965 396.516 48.1445 396.516V400.516ZM59.3823 397.561C62.3219 395.672 64.5541 393.452 65.9277 390.858L62.3926 388.986C61.4224 390.819 59.7484 392.571 57.2193 394.197L59.3823 397.561ZM66.1602 389.922V373.027H62.1602V389.922H66.1602ZM64.1602 371.027H54.5898V375.027H64.1602V371.027ZM54.5898 371.027C48.6024 371.027 43.7384 372.366 40.3632 375.396C36.9469 378.463 35.4023 382.946 35.4023 388.457H39.4023C39.4023 383.681 40.7224 380.449 43.0353 378.373C45.3892 376.26 49.1189 375.027 54.5898 375.027V371.027ZM35.4023 388.457C35.4023 391.954 36.6047 394.942 39.0634 397.242L41.796 394.321C40.2182 392.845 39.4023 390.95 39.4023 388.457H35.4023ZM39.0891 397.265C41.5295 399.47 44.6031 400.516 48.1445 400.516V396.516C45.436 396.516 43.3663 395.739 41.7703 394.297L39.0891 397.265ZM145.703 314.336L147.696 314.163L147.537 312.336H145.703V314.336ZM146.777 326.738L144.785 326.911L145.231 332.067L148.368 327.95L146.777 326.738ZM201.562 322.246L200.017 323.516L200.025 323.525L201.562 322.246ZM210.059 351.934H212.059V351.919L212.058 351.904L210.059 351.934ZM210.059 420V422H212.059V420H210.059ZM177.051 420H175.051V422H177.051V420ZM173.828 341.582L172.301 342.874L172.31 342.884L172.318 342.893L173.828 341.582ZM147.754 345.391L146.051 344.342L145.754 344.825V345.391H147.754ZM147.754 420V422H149.754V420H147.754ZM114.844 420H112.844V422H114.844V420ZM114.844 314.336V312.336H112.844V314.336H114.844ZM143.711 314.509L144.785 326.911L148.77 326.566L147.696 314.163L143.711 314.509ZM148.368 327.95C155.254 318.913 164.704 314.383 176.953 314.383V310.383C163.551 310.383 152.884 315.423 145.186 325.526L148.368 327.95ZM176.953 314.383C187.546 314.383 195.099 317.531 200.017 323.516L203.108 320.976C197.219 313.81 188.365 310.383 176.953 310.383V314.383ZM200.025 323.525C205.079 329.603 207.867 338.968 208.059 351.963L212.058 351.904C211.86 338.467 208.983 328.041 203.1 320.967L200.025 323.525ZM208.059 351.934V420H212.059V351.934H208.059ZM210.059 418H177.051V422H210.059V418ZM179.051 420V353.301H175.051V420H179.051ZM179.051 353.301C179.051 347.764 177.949 343.277 175.338 340.271L172.318 342.893C174.004 344.835 175.051 348.16 175.051 353.301H179.051ZM175.355 340.29C172.629 337.068 167.964 335.773 162.109 335.773V339.773C167.583 339.773 170.731 341.018 172.301 342.874L175.355 340.29ZM162.109 335.773C155.037 335.773 149.574 338.617 146.051 344.342L149.457 346.439C152.184 342.008 156.291 339.773 162.109 339.773V335.773ZM145.754 345.391V420H149.754V345.391H145.754ZM147.754 418H114.844V422H147.754V418ZM116.844 420V314.336H112.844V420H116.844ZM114.844 316.336H145.703V312.336H114.844V316.336ZM224.219 366.191H222.219V366.209L222.219 366.226L224.219 366.191ZM230.371 338.066L232.16 338.961L232.163 338.955L230.371 338.066ZM248.047 319.023L247.048 317.291L248.047 319.023ZM312.5 327.129L311.033 328.489L311.038 328.494L312.5 327.129ZM312.402 407.5L310.95 406.125L310.949 406.126L312.402 407.5ZM239.062 408.477L237.653 409.896L237.658 409.901L239.062 408.477ZM224.316 371.758L222.317 371.793L222.317 371.822L222.319 371.851L224.316 371.758ZM257.129 368.242L255.129 368.209L255.129 368.226V368.242H257.129ZM261.719 389.727L260.058 390.841L261.719 389.727ZM293.262 369.512L295.262 369.541L295.262 369.526V369.512H293.262ZM257.227 362.285L255.23 362.174L255.227 362.213L255.227 362.252L257.227 362.285ZM226.219 366.191C226.219 355.908 228.217 346.847 232.16 338.961L228.582 337.172C224.322 345.692 222.219 355.381 222.219 366.191H226.219ZM232.163 338.955C236.097 331.025 241.72 324.978 249.045 320.756L247.048 317.291C239.01 321.923 232.849 328.571 228.579 337.178L232.163 338.955ZM249.045 320.756C256.377 316.532 265.037 314.383 275.098 314.383V310.383C264.455 310.383 255.082 312.661 247.048 317.291L249.045 320.756ZM275.098 314.383C290.47 314.383 302.366 319.14 311.033 328.489L313.967 325.769C304.405 315.456 291.365 310.383 275.098 310.383V314.383ZM311.038 328.494C319.723 337.799 324.172 350.576 324.172 367.07H328.172C328.172 349.84 323.506 335.99 313.962 325.764L311.038 328.494ZM324.172 367.07V368.242H328.172V367.07H324.172ZM324.172 368.242C324.172 384.328 319.7 396.878 310.95 406.125L313.855 408.875C323.464 398.721 328.172 385.099 328.172 368.242H324.172ZM310.949 406.126C302.28 415.291 290.475 419.953 275.293 419.953V423.953C291.361 423.953 304.296 418.98 313.855 408.874L310.949 406.126ZM275.293 419.953C260.68 419.953 249.142 415.604 240.467 407.052L237.658 409.901C247.212 419.318 259.827 423.953 275.293 423.953V419.953ZM240.472 407.057C231.782 398.43 227.012 386.701 226.314 371.665L222.319 371.851C223.053 387.674 228.114 400.425 237.653 409.896L240.472 407.057ZM226.316 371.723L226.218 366.156L222.219 366.226L222.317 371.793L226.316 371.723ZM255.129 368.242C255.129 378.135 256.663 385.785 260.058 390.841L263.379 388.612C260.654 384.553 259.129 377.881 259.129 368.242H255.129ZM260.058 390.841C263.528 396.009 268.709 398.562 275.293 398.562V394.562C269.898 394.562 266.029 392.559 263.379 388.612L260.058 390.841ZM275.293 398.562C281.757 398.562 286.84 396.025 290.24 390.906C293.546 385.93 295.129 378.712 295.262 369.541L291.262 369.483C291.134 378.345 289.592 384.653 286.908 388.693C284.319 392.591 280.548 394.562 275.293 394.562V398.562ZM295.262 369.512V366.191H291.262V369.512H295.262ZM295.262 366.191C295.262 356.57 293.736 349.011 290.406 343.801C286.978 338.438 281.772 335.773 275.098 335.773V339.773C280.533 339.773 284.408 341.845 287.036 345.955C289.76 350.218 291.262 356.868 291.262 366.191H295.262ZM275.098 335.773C269.023 335.773 264.154 338.071 260.762 342.723C257.456 347.258 255.695 353.834 255.23 362.174L259.223 362.397C259.67 354.395 261.343 348.716 263.994 345.08C266.559 341.561 270.17 339.773 275.098 339.773V335.773ZM255.227 362.252L255.129 368.209L259.129 368.275L259.226 362.318L255.227 362.252ZM354.59 371.172L353.611 372.916L353.619 372.921L353.628 372.925L354.59 371.172ZM350.195 321.855L351.426 323.432L351.434 323.426L350.195 321.855ZM415.234 321.855L414.038 323.458L415.234 321.855ZM427.93 346.758V348.758H429.93V346.758H427.93ZM394.922 346.758H392.922V348.758H394.922V346.758ZM372.852 336.992L374.106 338.55L374.119 338.539L374.132 338.529L372.852 336.992ZM387.305 355.742L386.936 357.708L386.94 357.709L387.305 355.742ZM403.906 359.941L404.557 358.05L404.554 358.049L403.906 359.941ZM414.844 412.871L413.692 411.236L413.686 411.24L414.844 412.871ZM357.422 417.07L356.588 418.888L357.422 417.07ZM334.863 386.113V384.113H332.863V386.113H334.863ZM365.625 386.113L367.624 386.06L367.572 384.113H365.625V386.113ZM370.508 396.855L369.329 398.471L369.341 398.48L369.352 398.488L370.508 396.855ZM392.578 397.441L391.329 395.88L391.318 395.889L391.307 395.898L392.578 397.441ZM397.996 390.312C397.996 386.639 395.998 383.805 392.602 381.842L390.601 385.306C393.064 386.729 393.996 388.387 393.996 390.312H397.996ZM392.602 381.842C389.376 379.978 383.53 378.169 375.336 376.348L374.468 380.253C382.681 382.078 387.968 383.785 390.601 385.306L392.602 381.842ZM375.336 376.348C367.253 374.552 360.675 372.23 355.552 369.419L353.628 372.925C359.181 375.973 366.145 378.404 374.468 380.253L375.336 376.348ZM355.568 369.428C350.451 366.557 346.642 363.146 344.051 359.229L340.715 361.436C343.723 365.982 348.052 369.797 353.611 372.916L355.568 369.428ZM344.051 359.229C341.485 355.35 340.184 350.89 340.184 345.781H336.184C336.184 351.61 337.682 356.851 340.715 361.436L344.051 359.229ZM340.184 345.781C340.184 336.73 343.877 329.324 351.426 323.432L348.965 320.279C340.498 326.887 336.184 335.432 336.184 345.781H340.184ZM351.434 323.426C359.003 317.457 369.011 314.383 381.641 314.383V310.383C368.359 310.383 357.404 313.624 348.957 320.285L351.434 323.426ZM381.641 314.383C395.279 314.383 406.016 317.473 414.038 323.458L416.43 320.253C407.526 313.608 395.867 310.383 381.641 310.383V314.383ZM414.038 323.458C422.012 329.408 425.93 337.122 425.93 346.758H429.93C429.93 335.821 425.384 326.933 416.43 320.253L414.038 323.458ZM427.93 344.758H394.922V348.758H427.93V344.758ZM396.922 346.758C396.922 342.19 395.713 338.404 392.954 335.786C390.214 333.186 386.285 332.062 381.543 332.062V336.062C385.72 336.062 388.481 337.055 390.2 338.687C391.901 340.3 392.922 342.862 392.922 346.758H396.922ZM381.543 332.062C377.69 332.062 374.321 333.164 371.571 335.456L374.132 338.529C376.069 336.914 378.495 336.062 381.543 336.062V332.062ZM371.597 335.435C368.809 337.68 367.336 340.617 367.336 344.121H371.336C371.336 341.896 372.206 340.08 374.106 338.55L371.597 335.435ZM367.336 344.121C367.336 347.853 369.225 350.816 372.559 352.937L374.707 349.563C372.311 348.038 371.336 346.249 371.336 344.121H367.336ZM372.559 352.937C375.753 354.97 380.615 356.523 386.936 357.708L387.673 353.776C381.494 352.618 377.242 351.176 374.707 349.563L372.559 352.937ZM386.94 357.709C393.184 358.867 398.619 360.245 403.258 361.834L404.554 358.049C399.688 356.383 394.056 354.961 387.67 353.776L386.94 357.709ZM403.255 361.832C410.958 364.484 416.554 368.124 420.224 372.651C423.872 377.151 425.734 382.672 425.734 389.336H429.734C429.734 381.872 427.626 375.43 423.331 370.132C419.058 364.861 412.74 360.867 404.557 358.05L403.255 361.832ZM425.734 389.336C425.734 398.255 421.81 405.516 413.692 411.236L415.996 414.506C425.065 408.117 429.734 399.688 429.734 389.336H425.734ZM413.686 411.24C405.585 416.992 394.957 419.953 381.641 419.953V423.953C395.538 423.953 407.046 420.86 416.002 414.502L413.686 411.24ZM381.641 419.953C372.833 419.953 365.052 418.37 358.256 415.252L356.588 418.888C363.984 422.281 372.349 423.953 381.641 423.953V419.953ZM358.256 415.252C351.434 412.123 346.193 407.907 342.452 402.632L339.189 404.946C343.39 410.869 349.217 415.507 356.588 418.888L358.256 415.252ZM342.452 402.632C338.693 397.332 336.863 391.838 336.863 386.113H332.863C332.863 392.758 335.005 399.048 339.189 404.946L342.452 402.632ZM334.863 388.113H365.625V384.113H334.863V388.113ZM363.626 386.167C363.768 391.49 365.574 395.733 369.329 398.471L371.686 395.239C369.191 393.42 367.743 390.502 367.624 386.06L363.626 386.167ZM369.352 398.488C372.897 400.999 377.337 402.176 382.52 402.176V398.176C377.937 398.176 374.368 397.139 371.664 395.223L369.352 398.488ZM382.52 402.176C387.227 402.176 391.124 401.23 393.85 398.985L391.307 395.898C389.605 397.299 386.796 398.176 382.52 398.176V402.176ZM393.828 399.003C396.583 396.799 397.996 393.847 397.996 390.312H393.996C393.996 392.637 393.131 394.438 391.329 395.88L393.828 399.003Z" fill="#FAFAFA"/>
</g>
</g>
</g>
</svg>
