<svg width="434" height="105" viewBox="0 0 434 105" fill="none" xmlns="http://www.w3.org/2000/svg">
<path id="anos" d="M71.3354 103L64.6991 89.7273H63.9912C59.331 95.5083 54.5824 99.4606 49.7452 101.584C44.9081 103.708 38.6552 104.77 30.9865 104.77C21.5482 104.77 14.1155 101.938 8.68842 96.2752C3.26138 90.6122 0.547852 82.6486 0.547852 72.3844C0.547852 61.7072 4.2642 53.7731 11.6969 48.582C19.1296 43.332 29.8952 40.3825 43.9937 39.7336L60.7173 39.2027V37.7869C60.7173 29.5284 56.647 25.3991 48.5064 25.3991C41.1917 25.3991 31.9009 27.8767 20.6338 32.8318L10.6351 10.0028C22.315 3.98587 37.0624 0.977393 54.8773 0.977393C67.7371 0.977393 77.6768 4.16283 84.6966 10.5337C91.7754 16.9046 95.3147 25.812 95.3147 37.256V103H71.3354ZM45.6749 80.348C49.8632 80.348 53.4321 79.0207 56.3816 76.3662C59.39 73.7116 60.8943 70.2607 60.8943 66.0135V58.2269L52.9307 58.5808C41.5457 58.9937 35.8532 63.182 35.8532 71.1456C35.8532 77.2805 39.1271 80.348 45.6749 80.348ZM182.118 103V48.3166C182.118 41.6508 181.145 36.6366 179.198 33.2742C177.31 29.8528 174.243 28.1421 169.996 28.1421C164.156 28.1421 159.938 30.4722 157.342 35.1324C154.747 39.7926 153.449 47.7857 153.449 59.1117V103H118.852V2.74708H144.955L149.29 15.1349H151.325C154.275 10.4157 158.345 6.87636 163.536 4.51677C168.786 2.15719 174.803 0.977393 181.587 0.977393C192.677 0.977393 201.29 4.19233 207.425 10.6222C213.618 17.0521 216.715 26.107 216.715 37.7869V103H182.118ZM335.993 52.6523C335.993 69.0515 331.568 81.8522 322.72 91.0546C313.93 100.198 301.602 104.77 285.733 104.77C270.514 104.77 258.392 100.08 249.366 90.7007C240.4 81.3213 235.917 68.6385 235.917 52.6523C235.917 36.3122 240.311 23.6294 249.101 14.604C257.949 5.5196 270.337 0.977393 286.264 0.977393C296.116 0.977393 304.816 3.07153 312.367 7.25979C319.918 11.4481 325.728 17.465 329.799 25.3106C333.928 33.0973 335.993 42.2112 335.993 52.6523ZM271.045 52.6523C271.045 61.2648 272.195 67.8422 274.496 72.3844C276.796 76.8676 280.66 79.1092 286.087 79.1092C291.455 79.1092 295.231 76.8676 297.413 72.3844C299.655 67.8422 300.776 61.2648 300.776 52.6523C300.776 44.0988 299.655 37.6395 297.413 33.2742C295.172 28.909 291.337 26.7264 285.91 26.7264C280.601 26.7264 276.796 28.909 274.496 33.2742C272.195 37.5805 271.045 44.0398 271.045 52.6523ZM433.237 72.2074C433.237 82.9435 429.58 91.0546 422.265 96.5406C414.95 102.027 404.45 104.77 390.764 104.77C383.332 104.77 376.872 104.357 371.386 103.531C365.9 102.764 360.296 101.319 354.574 99.1952V71.4995C359.942 73.8591 365.812 75.8058 372.183 77.3395C378.613 78.8732 384.335 79.6401 389.349 79.6401C396.84 79.6401 400.586 77.9294 400.586 74.508C400.586 72.7383 399.524 71.1751 397.401 69.8183C395.336 68.4026 389.26 65.689 379.173 61.6777C369.971 57.9024 363.541 53.6257 359.883 48.8475C356.226 44.0103 354.397 37.9049 354.397 30.5312C354.397 21.2108 357.996 13.9551 365.192 8.76403C372.389 3.57294 382.565 0.977393 395.72 0.977393C402.326 0.977393 408.52 1.71476 414.301 3.18951C420.141 4.60526 426.188 6.69939 432.441 9.4719L423.061 31.77C418.46 29.7054 413.593 27.9652 408.461 26.5494C403.329 25.0747 399.141 24.3373 395.897 24.3373C390.234 24.3373 387.402 25.7236 387.402 28.4961C387.402 30.2068 388.375 31.6815 390.322 32.9203C392.328 34.1001 398.05 36.5482 407.488 40.2645C414.508 43.155 419.728 45.9865 423.15 48.759C426.63 51.5315 429.167 54.8055 430.759 58.5808C432.411 62.2971 433.237 66.8393 433.237 72.2074Z" fill="url(#paint0_linear)"/>
<defs>
<linearGradient id="paint0_linear" x1="232.601" y1="3.23243" x2="236.226" y2="89.0081" gradientUnits="userSpaceOnUse">
<stop stop-color="white"/>
<stop offset="1" stop-color="white" stop-opacity="0"/>
</linearGradient>
</defs>
</svg>
