<svg width="30" height="24" viewBox="0 0 30 24" fill="none" xmlns="http://www.w3.org/2000/svg">
<path d="M28.3483 13.55L28.3483 24L17.4711 24L17.4711 15.75C17.4711 11.2833 18.0535 8.06667 19.2182 6.1C20.8338 3.4 23.3512 1.36667 26.7702 2.16788e-07L29.25 3.55C27.2211 4.28333 25.7182 5.43333 24.7413 7C23.7269 8.6 23.1633 10.7833 23.0506 13.55L28.3483 13.55ZM10.8772 13.55L10.8772 24L5.72205e-06 24L5.00081e-06 15.75C4.61032e-06 11.2833 0.582373 8.06667 1.74711 6.1C3.36272 3.4 5.88006 1.36667 9.29914 1.74416e-06L11.7789 3.55C9.75 4.28333 8.24711 5.43333 7.27023 7C6.25578 8.6 5.6922 10.7833 5.57948 13.55L10.8772 13.55Z" fill="#EC88BE"/>
</svg>
