<svg width="459" height="502" viewBox="0 0 459 502" fill="none" xmlns="http://www.w3.org/2000/svg">
<rect x="399.536" y="296.113" width="39" height="39" transform="rotate(-45 399.536 296.113)" stroke="#FFC400" stroke-width="5"/>
<rect x="121.5" y="399.5" width="30" height="30" stroke="#FFC400" stroke-width="5"/>
<rect x="338.536" y="31.1127" width="39" height="39" transform="rotate(-45 338.536 31.1127)" stroke="#FFC400" stroke-width="5"/>
<rect x="179.536" y="33.5564" width="24.0711" height="24.0711" transform="rotate(-45 179.536 33.5564)" stroke="#DB1826" stroke-width="5"/>
<rect x="3.53553" y="444.556" width="24.0711" height="24.0711" transform="rotate(-45 3.53553 444.556)" stroke="#DB1826" stroke-width="5"/>
<rect x="220.536" y="480.556" width="24.0711" height="24.0711" transform="rotate(-45 220.536 480.556)" stroke="#DB1826" stroke-width="5"/>
<rect x="411" y="144" width="29.0711" height="29.0711" fill="#DC1D27"/>
<rect opacity="0.8" x="366" y="368" width="29.0711" height="29.0711" fill="#008693"/>
<rect opacity="0.8" x="25.979" y="39.5355" width="29.0711" height="29.0711" transform="rotate(-45 25.979 39.5355)" fill="#008693"/>
<rect x="26.5356" y="152.979" width="29.0711" height="29.0711" transform="rotate(45 26.5356 152.979)" fill="#FFC400"/>
</svg>
