<svg width="64" height="64" viewBox="0 0 64 64" fill="none" xmlns="http://www.w3.org/2000/svg">
<g id="feminino">
<g clip-path="url(#clip0)">
<rect width="64" height="64" rx="32" fill="#DB1826"/>
<g id="&#240;&#159;&#152;&#138; Heads">
<g id="&#240;&#159;&#152;&#138; Heads_2" clip-path="url(#clip1)">
<g id="Head">
<circle id="Ear" cx="18" cy="37" r="5" fill="#EAC0B3"/>
<path id="Neck" d="M18 41H35V65.8705C35 65.8705 31.3571 68 26.5 68C21.6429 68 18 64.5226 18 64.5226V41Z" fill="#EAC0B3"/>
<path id="Shadow" d="M34.8114 53.1122C34.8114 58.4968 33.9402 57.9871 28.2776 57.9871C22.6151 57.9871 20.0016 53.6219 20.0016 48.2373C20.0016 42.8526 19.7867 38 24.3574 38C37.2799 38.4762 34.8114 47.7275 34.8114 53.1122Z" fill="#C99688"/>
<path id="Face" d="M45.8859 36.0992C45.8859 45.0216 44.5001 55.9932 33.5001 55.9932C22.5001 55.9932 17.4285 45.0216 17.4285 36.0992C15.0001 25.5 15.5001 13 32.0001 13C48.5001 13 45.8859 27.1767 45.8859 36.0992Z" fill="#F5D0C5"/>
<rect id="Nose" x="36" y="41" width="3" height="2" rx="1" fill="#EAC0B3"/>
</g>
</g>
</g>
<g id="&#240;&#159;&#145;&#149; Clothes">
<g id="T-Shirt" clip-path="url(#clip2)">
<rect id="T-shirt" x="7" y="60" width="40" height="23" rx="9" fill="#E05A33"/>
</g>
</g>
<g id="&#240;&#159;&#167;&#145;&#226;&#128;&#141;&#240;&#159;&#166;&#176; Hair">
<g id="&#240;&#159;&#167;&#145;&#226;&#128;&#141;&#240;&#159;&#166;&#176; Hair_2" clip-path="url(#clip3)">
<g id="Pony Tail">
<path id="Shape" d="M-0.00111699 9.99802C7.99612 2.00187 13.0008 12.9993 13.0008 12.9993L10.9994 20.9987C10.9994 20.9987 8.99904 23.4984 10.9994 30.9984C12.9997 38.4984 8.49902 42.4984 8.49902 42.4984C8.49902 42.4984 4.99985 45 1.99985 43C-1.00015 41 -1.39775 39.0784 -1.00015 35.5C-0.500147 31 0.998999 32.4984 0.998999 27.9984C0.998999 23.4984 -7.99835 17.9942 -0.00111699 9.99802Z" fill="#1B0B47"/>
<path id="Shape_2" d="M13.0307 13.1813L18.538 15.5626L14.966 23.8234L9.45879 21.4421C9.45879 21.4421 8.49992 19.5 9.99818 16.5009C11.4964 13.5018 13.0307 13.1813 13.0307 13.1813Z" fill="#FF6C98"/>
<path id="Shape_3" fill-rule="evenodd" clip-rule="evenodd" d="M18 41L16.6766 32.177C14.5574 32.7572 13 34.6967 13 37C13 39.7614 15.2386 42 18 42V50.3C16.4507 48.9346 15.0744 47.3086 13.9174 45.4696C12.2165 42.7662 11.0292 39.6655 10.4354 36.3768C9.84164 33.0881 9.85532 29.6881 10.4755 26.4061C11.0957 23.1242 12.308 20.0368 14.0305 17.3524C15.753 14.668 17.9456 12.4491 20.4603 10.8456C22.975 9.24202 25.7533 8.2911 28.6075 8.05703C29.2305 8.00594 29.854 7.98926 30.476 8.00666C30.6505 8.00222 30.8252 8 31 8C33.4951 8 35.9658 8.45265 38.271 9.33211C40.5762 10.2116 42.6707 11.5006 44.435 13.1256C46.1993 14.7507 47.5989 16.6798 48.5537 18.803C49.3002 20.4629 49.7634 22.2159 49.9301 24H50V25.5V28.2857C50 28.2857 49.6712 28.4383 49.0015 28.6525V37.1404C49.0015 37.1404 49.0015 38.5439 47.5015 39.5965C46.9824 39.9608 46.2837 40.241 45.5918 40.4517C45.7881 39 45.8888 37.5359 45.8888 36.0992C45.8888 35.0649 45.924 33.96 45.9604 32.8148V32.8148C45.9959 31.6968 46.0327 30.5404 46.0392 29.3736C44.1879 29.7129 41.6726 30 38.4615 30C30.6154 30 26 28.2857 26 28.2857V27.2872C25.3194 28.3507 24.5839 29.6375 24 31C23.25 32.75 23.25 34.5439 23.25 36.0515C23.25 37.5592 23.25 38.7807 22.5 39.386C21 40.5965 18 41 18 41Z" fill="#1B0B47"/>
</g>
</g>
</g>
<g id="&#240;&#159;&#145;&#132;Mouth">
<g id="&#240;&#159;&#145;&#132;Mouth_2">
<g id="&#240;&#159;&#145;&#132;Mouth_3">
<path id="Shape_4" d="M28.9287 46C28.9287 45.4477 29.3764 45 29.9287 45H39.0716C39.6239 45 40.0716 45.4477 40.0716 46C40.0716 48.7614 37.833 51 35.0716 51H33.9287C31.1673 51 28.9287 48.7614 28.9287 46Z" fill="#66253C"/>
<path id="Tounge" fill-rule="evenodd" clip-rule="evenodd" d="M36.7548 50.7095C36.2288 50.8975 35.6622 50.9999 35.0716 50.9999H33.9287C31.2342 50.9999 29.0375 48.8686 28.9326 46.1998C29.6966 45.914 30.8307 45.9469 31.9501 45.9794C32.3057 45.9897 32.6598 45.9999 33.0001 45.9999C35.2093 45.9999 37.0001 47.5669 37.0001 49.4999C37.0001 49.9251 36.9135 50.3326 36.7548 50.7095Z" fill="#B03E67"/>
</g>
</g>
</g>
<g id="&#240;&#159;&#145;&#129;&#239;&#184;&#143;Eyes">
<g id="Eyes">
<rect id="Eye" x="30" y="35" width="3" height="4" rx="1.5" fill="#1B0B47"/>
<rect id="Eye_2" x="40" y="35" width="3" height="4" rx="1.5" fill="#1B0B47"/>
</g>
<g id="Blushes">
<g id="Blushes_2">
<rect id="Blush" x="24" y="38" width="5" height="3" rx="1.5" fill="#FF859B"/>
<rect id="Blush_2" x="43" y="38" width="4" height="3" rx="1.5" fill="#FF859B"/>
</g>
</g>
</g>
</g>
</g>
<defs>
<clipPath id="clip0">
<rect width="64" height="64" rx="32" fill="white"/>
</clipPath>
<clipPath id="clip1">
<rect width="64" height="64" fill="white"/>
</clipPath>
<clipPath id="clip2">
<rect width="64" height="64" fill="white"/>
</clipPath>
<clipPath id="clip3">
<rect width="62.439" height="64" fill="white"/>
</clipPath>
</defs>
</svg>
