<svg width="170" height="51" viewBox="0 0 170 51" fill="none" xmlns="http://www.w3.org/2000/svg">
<g id="hepta-logo-animate">
<g id="g12">
<g id="g14">
<g id="g20">
<path id="path22" fill-rule="evenodd" clip-rule="evenodd" d="M102.727 16.8635H111.236C111.12 15.4361 110.774 14.3718 110.202 13.6674C109.375 12.6422 108.315 12.1318 107.035 12.1318C105.878 12.1318 104.892 12.5586 104.075 13.4125C103.259 14.265 102.81 15.4161 102.727 16.8635ZM111.218 21.3776L113.879 21.7348C113.436 23.4908 112.632 24.8186 111.473 25.7135C110.31 26.6074 108.874 27.0541 107.155 27.0541C104.998 27.0541 103.249 26.3283 101.915 24.875C100.576 23.4226 99.9084 21.3262 99.9084 18.5836C99.9084 15.742 100.581 13.572 101.928 12.0777C103.278 10.5835 104.984 9.83641 107.051 9.83641C109.023 9.83641 110.669 10.5722 111.989 12.0391C113.307 13.5065 113.968 15.6324 113.968 18.4159L113.95 19.1608H102.57C102.674 21.0099 103.159 22.4064 104.023 23.3481C104.884 24.2892 105.937 24.7587 107.175 24.7587C109.111 24.7587 110.46 23.633 111.218 21.3776Z" fill="#231F20"/>
</g>
<g id="g24">
<path id="path26" fill-rule="evenodd" clip-rule="evenodd" d="M124.558 18.538C124.558 20.6702 124.96 22.2385 125.764 23.2442C126.568 24.2549 127.539 24.7584 128.682 24.7584C129.774 24.7584 130.736 24.239 131.561 23.1933C132.389 22.1486 132.803 20.5334 132.803 18.3521C132.803 16.2003 132.403 14.6088 131.597 13.5754C130.793 12.5406 129.817 12.0235 128.664 12.0235C127.627 12.0235 126.684 12.5811 125.835 13.6904C124.984 14.8033 124.558 16.4193 124.558 18.538ZM122.209 32.9967V10.2088H124.59V12.3488C125.174 11.4586 125.82 10.8201 126.532 10.4256C127.24 10.033 128.058 9.83619 128.979 9.83619C130.18 9.83619 131.26 10.1529 132.23 10.7828C133.198 11.4131 133.974 12.3725 134.563 13.6604C135.151 14.9478 135.448 16.4979 135.448 18.3044C135.448 21.1083 134.782 23.2683 133.459 24.7825C132.134 26.2986 130.578 27.0543 128.792 27.0543C128.001 27.0543 127.258 26.873 126.569 26.5131C125.882 26.15 125.286 25.6392 124.782 24.9761V32.9967H122.209Z" fill="#231F20"/>
</g>
<g id="g28">
<path id="path30" fill-rule="evenodd" clip-rule="evenodd" d="M149.364 24.1848L149.714 26.6529C149 26.8174 148.36 26.9001 147.786 26.9001C146.887 26.9001 146.166 26.7415 145.615 26.4262C145.067 26.1117 144.689 25.679 144.487 25.1328C144.283 24.5834 144.182 23.4918 144.182 21.8585V12.3805H142.288V10.2092H144.182V6.12779L146.755 4.4527V10.2092H149.364V12.3805H146.755V22.013C146.755 22.9042 146.829 23.4759 146.98 23.7367C147.203 24.108 147.616 24.293 148.224 24.293C148.516 24.293 148.895 24.2575 149.364 24.1848Z" fill="#231F20"/>
</g>
<g id="g32">
<path id="path34" fill-rule="evenodd" clip-rule="evenodd" d="M166.571 18.4159C165.624 18.8286 164.218 19.1803 162.35 19.4707C161.261 19.6357 160.504 19.8238 160.073 20.0342C159.642 20.2492 159.306 20.5473 159.068 20.9349C158.829 21.323 158.708 21.7702 158.708 22.2765C158.708 23.0618 158.981 23.6912 159.531 24.1624C160.08 24.6337 160.838 24.8682 161.807 24.8682C162.731 24.8682 163.567 24.655 164.32 24.232C165.073 23.808 165.636 23.2417 166.011 22.5328C166.383 21.8243 166.571 20.7941 166.571 19.4389V18.4159ZM166.78 24.65C165.915 25.4472 165.016 26.0461 164.084 26.4506C163.149 26.8559 162.181 27.0541 161.175 27.0541C159.588 27.0541 158.322 26.631 157.377 25.7848C156.432 24.935 155.96 23.7921 155.96 22.3546C155.96 21.4044 156.182 20.5605 156.623 19.8261C157.067 19.0917 157.676 18.5168 158.444 18.1042C159.214 17.6915 160.383 17.3852 161.947 17.1885C164.049 16.9163 165.589 16.5886 166.571 16.2114L166.586 15.4975C166.586 14.3718 166.361 13.5802 165.904 13.1253C165.261 12.4636 164.273 12.1318 162.945 12.1318C161.744 12.1318 160.844 12.3541 160.249 12.7949C159.653 13.2361 159.214 14.0646 158.934 15.2825L156.395 14.9099C156.758 13.1412 157.491 11.8528 158.595 11.0462C159.698 10.2404 161.275 9.83641 163.33 9.83641C164.931 9.83641 166.184 10.1027 167.095 10.6344C168.005 11.167 168.581 11.8269 168.819 12.6126C169.059 13.3984 169.178 14.5468 169.178 16.0564V19.7793C169.178 22.3846 169.234 24.0284 169.343 24.7046C169.457 25.3817 169.675 26.042 170 26.6828H167.304C167.037 26.1134 166.862 25.4376 166.78 24.65Z" fill="#231F20"/>
</g>
<g id="g36">
<path id="path38" fill-rule="evenodd" clip-rule="evenodd" d="M96.6177 17.9478C96.6177 18.4845 96.1248 18.9194 95.518 18.9194C94.9101 18.9194 94.4177 18.4845 94.4177 17.9478C94.4177 17.4083 94.9101 16.973 95.518 16.973C96.1248 16.973 96.6177 17.4083 96.6177 17.9478Z" fill="#DC1D27"/>
</g>
<g id="g40">
<path id="path42" fill-rule="evenodd" clip-rule="evenodd" d="M118.695 17.9478C118.695 18.4831 118.204 18.9194 117.597 18.9194C116.992 18.9194 116.498 18.4831 116.498 17.9478C116.498 17.4083 116.992 16.973 117.597 16.973C118.204 16.973 118.695 17.4083 118.695 17.9478Z" fill="#DC1D27"/>
</g>
<g id="g44">
<path id="path46" fill-rule="evenodd" clip-rule="evenodd" d="M140.499 17.9478C140.499 18.4831 140.009 18.9194 139.401 18.9194C138.792 18.9194 138.302 18.4831 138.302 17.9478C138.302 17.4083 138.792 16.973 139.401 16.973C140.009 16.973 140.499 17.4083 140.499 17.9478Z" fill="#DC1D27"/>
</g>
<g id="g48">
<path id="path50" fill-rule="evenodd" clip-rule="evenodd" d="M154.481 17.9478C154.481 18.4845 153.988 18.9194 153.381 18.9194C152.777 18.9194 152.285 18.4845 152.285 17.9478C152.285 17.4083 152.777 16.973 153.381 16.973C153.988 16.973 154.481 17.4083 154.481 17.9478Z" fill="#DC1D27"/>
</g>
<g id="g52">
<path id="path54" fill-rule="evenodd" clip-rule="evenodd" d="M79.3901 26.6827V3.94217H81.963V12.1009C82.5719 11.346 83.2577 10.7793 84.024 10.4026C84.7873 10.025 85.6306 9.83636 86.5508 9.83636C88.1742 9.83636 89.4566 10.2949 90.3927 11.2097C91.336 12.125 91.8053 13.8028 91.8053 16.2413V26.6827H89.2309V16.2413C89.2309 14.8157 88.9472 13.7928 88.3738 13.1711C87.8003 12.5517 87.0129 12.2399 86.0091 12.2399C84.8899 12.2399 83.9338 12.6394 83.1454 13.4356C82.3601 14.2304 81.963 15.6424 81.963 17.6697V26.6827H79.3901Z" fill="#231F20"/>
</g>
<g id="g56">
<path id="path58" fill-rule="evenodd" clip-rule="evenodd" d="M3.63983 41.4745H55.5294L67.5214 6.69013H15.7806L3.63983 41.4745ZM57.5186 43.8521H0L13.8048 4.31155H71.1484L57.5186 43.8521Z" fill="#231F20"/>
</g>
<g id="g60">
<path id="path62" fill-rule="evenodd" clip-rule="evenodd" d="M54.3203 18.5754L34.0309 20.3459L32.0325 2.37435L52.3213 0.603825L54.3203 18.5754Z" fill="#FBC108"/>
</g>
<g id="g64">
<path id="path66" fill-rule="evenodd" clip-rule="evenodd" d="M34.0304 20.3462L29.696 5.5012H32.3838L32.033 2.37324L34.0304 20.3462Z" fill="#231F20"/>
</g>
<g id="g68">
<path id="path70" fill-rule="evenodd" clip-rule="evenodd" d="M37.8328 43.1592H41.8522L43.2463 33.7835L37.8328 43.1592Z" fill="#231F20"/>
</g>
<g id="g72">
<path id="path74" fill-rule="evenodd" clip-rule="evenodd" d="M35.1682 50.3624L16.4551 43.2057L24.5329 26.6252L43.247 33.7837L35.1682 50.3624Z" fill="#DC1D27"/>
</g>
<g id="g76">
<path id="path78" fill-rule="evenodd" clip-rule="evenodd" d="M165.423 43.3757C166.261 43.3757 166.919 43.1721 167.395 42.7653C167.873 42.3586 168.114 41.7901 168.114 41.0575V40.3468L166.767 40.3986C165.699 40.4304 164.928 40.5772 164.455 40.8394C163.982 41.0993 163.746 41.5061 163.746 42.0546C163.746 42.4859 163.894 42.8144 164.189 43.0376C164.482 43.263 164.895 43.3757 165.423 43.3757ZM168.462 44.2137L168.194 43.0939H168.127C167.685 43.5861 167.246 43.9219 166.805 44.0982C166.363 44.2728 165.816 44.3605 165.157 44.3605C164.275 44.3605 163.586 44.1596 163.086 43.7579C162.588 43.3534 162.336 42.7826 162.336 42.0378C162.336 40.4472 163.771 39.6142 166.637 39.5383L168.144 39.4942V39.0066C168.144 38.3913 167.995 37.9355 167.696 37.6414C167.395 37.3474 166.916 37.2006 166.258 37.2006C165.517 37.2006 164.682 37.4015 163.746 37.8032L163.335 36.8916C163.771 36.6812 164.25 36.5144 164.77 36.3944C165.293 36.2745 165.816 36.2158 166.338 36.2158C167.397 36.2158 168.18 36.424 168.692 36.8403C169.203 37.257 169.458 37.9232 169.458 38.8421V44.2137H168.462ZM157.321 34.2108C157.321 33.9391 157.396 33.7405 157.548 33.6132C157.7 33.4855 157.889 33.4219 158.115 33.4219C158.331 33.4219 158.519 33.4855 158.674 33.6155C158.831 33.7455 158.909 33.9441 158.909 34.2108C158.909 34.4808 158.831 34.6816 158.674 34.8116C158.519 34.9438 158.331 35.0097 158.115 35.0097C157.889 35.0097 157.7 34.9438 157.548 34.8116C157.396 34.6816 157.321 34.4808 157.321 34.2108ZM158.779 44.2137H157.435V36.3481H158.779V44.2137ZM147.889 38.8644C147.889 39.4156 148.064 39.8323 148.415 40.1141C148.766 40.3959 149.255 40.5381 149.884 40.5381C151.198 40.5381 151.853 39.9719 151.853 38.8421C151.853 37.6587 151.189 37.0684 149.858 37.0684C149.225 37.0684 148.739 37.2202 148.399 37.5215C148.058 37.8228 147.889 38.2713 147.889 38.8644ZM147.159 45.5343C147.159 45.9583 147.361 46.2819 147.768 46.5023C148.171 46.7204 148.753 46.8308 149.51 46.8308C150.639 46.8308 151.477 46.6809 152.018 46.3823C152.561 46.0855 152.835 45.6788 152.835 45.1694C152.835 44.7431 152.685 44.4486 152.387 44.2846C152.091 44.1205 151.532 44.0373 150.71 44.0373H149.098C148.487 44.0373 148.011 44.1673 147.671 44.4245C147.331 44.6818 147.159 45.0517 147.159 45.5343ZM154.243 36.3481V37.1025L152.6 37.2743C152.749 37.4406 152.885 37.6614 153.003 37.9309C153.123 38.2004 153.18 38.504 153.18 38.8448C153.18 39.6142 152.885 40.2295 152.289 40.6876C151.695 41.1457 150.879 41.3761 149.842 41.3761C149.576 41.3761 149.331 41.3566 149.095 41.3197C148.523 41.5865 148.238 41.9251 148.238 42.3318C148.238 42.5472 148.337 42.7067 148.537 42.8094C148.739 42.9121 149.082 42.9639 149.569 42.9639H151.139C152.102 42.9639 152.84 43.1425 153.358 43.5029C153.872 43.8606 154.129 44.3827 154.129 45.0662C154.129 45.936 153.736 46.6004 152.948 47.0562C152.157 47.5143 151.007 47.742 149.493 47.742C148.332 47.742 147.436 47.5511 146.808 47.1689C146.177 46.7863 145.862 46.2451 145.862 45.5493C145.862 45.0712 146.037 44.6572 146.382 44.3068C146.728 43.9587 147.215 43.7211 147.84 43.5988C147.613 43.5056 147.422 43.3657 147.27 43.1748C147.115 42.9812 147.037 42.7581 147.037 42.5059C147.037 42.2164 147.126 41.9664 147.297 41.751C147.472 41.5352 147.743 41.327 148.117 41.1262C147.657 40.9571 147.284 40.6726 146.993 40.2709C146.706 39.8692 146.559 39.4083 146.559 38.8912C146.559 38.0314 146.852 37.367 147.436 36.9016C148.02 36.4335 148.846 36.2008 149.917 36.2008C150.382 36.2008 150.799 36.2499 151.173 36.3481H154.243ZM136.48 40.2732C136.48 41.2779 136.707 42.045 137.161 42.5718C137.614 43.0989 138.281 43.3607 139.163 43.3607C140.043 43.3607 140.712 43.0989 141.168 42.574C141.624 42.05 141.851 41.2829 141.851 40.2732C141.851 39.2738 141.624 38.514 141.168 37.9946C140.712 37.4751 140.037 37.2152 139.146 37.2152C138.264 37.2152 137.6 37.4701 137.152 37.9823C136.704 38.4944 136.48 39.2588 136.48 40.2732ZM143.246 40.2732C143.246 41.5574 142.88 42.5595 142.153 43.2802C141.423 44.0005 140.416 44.3605 139.13 44.3605C138.336 44.3605 137.63 44.1964 137.014 43.8656C136.4 43.5347 135.924 43.0594 135.589 42.4418C135.252 41.8246 135.086 41.1016 135.086 40.2732C135.086 38.9893 135.448 37.9896 136.173 37.2743C136.895 36.5585 137.902 36.2008 139.185 36.2008C140.43 36.2008 141.414 36.5662 142.147 37.2983C142.88 38.0314 143.246 39.0239 143.246 40.2732ZM131.358 44.2137H130.013V33.0397H131.358V44.2137ZM119.52 40.2732C119.52 41.2779 119.746 42.045 120.2 42.5718C120.654 43.0989 121.32 43.3607 122.202 43.3607C123.082 43.3607 123.751 43.0989 124.207 42.574C124.664 42.05 124.891 41.2829 124.891 40.2732C124.891 39.2738 124.664 38.514 124.207 37.9946C123.751 37.4751 123.076 37.2152 122.186 37.2152C121.303 37.2152 120.639 37.4701 120.192 37.9823C119.743 38.4944 119.52 39.2588 119.52 40.2732ZM126.284 40.2732C126.284 41.5574 125.92 42.5595 125.192 43.2802C124.462 44.0005 123.455 44.3605 122.169 44.3605C121.375 44.3605 120.67 44.1964 120.054 43.8656C119.44 43.5347 118.964 43.0594 118.629 42.4418C118.292 41.8246 118.125 41.1016 118.125 40.2732C118.125 38.9893 118.488 37.9896 119.212 37.2743C119.934 36.5585 120.941 36.2008 122.224 36.2008C123.469 36.2008 124.454 36.5662 125.187 37.2983C125.92 38.0314 126.284 39.0239 126.284 40.2732ZM113.144 44.2137V39.1243C113.144 38.4822 112.981 38.0046 112.649 37.6883C112.32 37.372 111.803 37.2152 111.1 37.2152C110.171 37.2152 109.49 37.4383 109.059 37.8819C108.625 38.3277 108.409 39.063 108.409 40.0873V44.2137H107.065V36.3481H108.157L108.376 37.421H108.442C108.719 37.0339 109.103 36.7326 109.601 36.5194C110.099 36.3063 110.652 36.2008 111.263 36.2008C112.334 36.2008 113.138 36.4285 113.678 36.8871C114.22 37.3429 114.488 38.0754 114.488 39.0798V44.2137H113.144ZM101.345 44.3605C100.059 44.3605 99.063 44.0101 98.3577 43.3093C97.6524 42.6063 97.301 41.6138 97.301 40.3322C97.301 39.0139 97.658 37.9973 98.3741 37.2788C99.0907 36.5608 100.108 36.2008 101.433 36.2008C101.859 36.2008 102.285 36.2427 102.714 36.3231C103.139 36.404 103.474 36.4999 103.718 36.6126L103.303 37.6246C103.006 37.5192 102.683 37.4333 102.332 37.3624C101.981 37.2938 101.671 37.2597 101.4 37.2597C99.5964 37.2597 98.6952 38.2786 98.6952 40.3177C98.6952 41.2829 98.9137 42.0255 99.3533 42.5427C99.796 43.0594 100.446 43.317 101.312 43.317C102.05 43.317 102.811 43.1748 103.588 42.893V43.9515C102.993 44.2232 102.246 44.3605 101.345 44.3605ZM90.502 37.2006C89.789 37.2006 89.2217 37.4065 88.7985 37.8182C88.3728 38.2272 88.124 38.7957 88.0491 39.5233H92.6902C92.6902 38.7739 92.502 38.1977 92.1234 37.7987C91.7443 37.3992 91.2052 37.2006 90.502 37.2006ZM90.8672 44.3605C89.5541 44.3605 88.519 44.0051 87.7619 43.2971C87.0007 42.589 86.6221 41.6042 86.6221 40.3445C86.6221 39.0752 86.9735 38.0682 87.6788 37.3206C88.3841 36.5735 89.3294 36.2008 90.5189 36.2008C91.631 36.2008 92.5127 36.524 93.1601 37.1738C93.8074 37.8228 94.1341 38.6785 94.1341 39.7392V40.494H88.0163C88.0435 41.4175 88.3061 42.1182 88.8042 42.599C89.3048 43.0766 90.0075 43.317 90.917 43.317C91.8716 43.317 92.8174 43.1403 93.752 42.7849V43.8488C93.2765 44.0323 92.8256 44.1619 92.403 44.2432C91.9793 44.3214 91.4674 44.3605 90.8672 44.3605ZM82.7576 43.3757C82.9956 43.3757 83.2254 43.3607 83.4465 43.3289C83.6676 43.2971 83.842 43.2652 83.9718 43.2312V44.1451C83.8251 44.2064 83.6122 44.2578 83.3275 44.2996C83.0454 44.3409 82.7879 44.3605 82.5612 44.3605C80.8438 44.3605 79.9862 43.5593 79.9862 41.9546V37.2743H78.7141V36.7007L79.9862 36.2031L80.5535 34.5248H81.3306V36.3481H83.9082V37.2743H81.3306V41.9028C81.3306 42.3782 81.4578 42.7413 81.7122 42.9958C81.9667 43.248 82.3155 43.3757 82.7576 43.3757Z" fill="#231F20"/>
</g>
</g>
</g>
</g>
</svg>
