<svg width="24" height="24" viewBox="0 0 24 24" fill="none" xmlns="http://www.w3.org/2000/svg">
<path d="M12 0C5.3723 0 0 5.37393 0 12.0005C0 18.628 5.3723 24 12 24C18.6272 24 24 18.628 24 12.0005C24 5.37388 18.6272 0 12 0ZM18.8945 14.5536C18.5548 15.7239 17.9132 16.813 17.0137 17.6396C16.1627 18.4253 15.0969 18.9636 13.9705 19.2229C12.7241 19.5065 11.406 19.5141 10.1677 19.1819C9.18642 18.9209 8.26082 18.4532 7.4668 17.8199C6.62512 17.151 5.93124 16.2977 5.44729 15.3378C4.70259 13.8673 4.47355 12.1458 4.80214 10.5312C4.93279 9.88314 5.15028 9.25312 5.44812 8.66282C6.30374 6.9498 7.84685 5.59449 9.65906 4.97403C11.2672 4.41745 13.0687 4.42992 14.6661 5.01789C15.5533 5.34366 16.3654 5.85902 17.0581 6.50005C16.8264 6.75175 16.575 6.98611 16.3357 7.23114C15.8796 7.6864 15.425 8.14337 14.968 8.59776C14.5159 8.16603 13.964 7.83796 13.3653 7.65619C12.661 7.44308 11.9024 7.41374 11.1829 7.56735C10.3427 7.74737 9.56287 8.18635 8.96304 8.80044C8.47675 9.29284 8.10654 9.8979 7.88418 10.5529C7.56368 11.4823 7.56597 12.5174 7.88272 13.4476C8.1925 14.3622 8.79579 15.1749 9.58636 15.7303C10.0808 16.0789 10.6475 16.3263 11.2413 16.4448C11.8251 16.563 12.4299 16.5502 13.0152 16.4503C13.5967 16.3484 14.1608 16.1342 14.6517 15.804C15.4328 15.2823 15.9835 14.4348 16.14 13.508C14.7899 13.5075 13.4396 13.5077 12.0893 13.508C12.0876 12.5412 12.089 11.5741 12.0887 10.607C14.4203 10.6067 16.7519 10.6061 19.0836 10.6072C19.316 11.9141 19.2649 13.2769 18.8945 14.5536Z" fill="#008693"/>
</svg>
