<svg width="24" height="24" viewBox="0 0 24 24" fill="none" xmlns="http://www.w3.org/2000/svg">
<path fill-rule="evenodd" clip-rule="evenodd" d="M12 0.179382C18.623 0.179382 24 5.40426 24 11.8398C24 18.2754 18.623 23.5003 12 23.5003C5.37703 23.5003 0 18.2754 0 11.8398C0 5.40426 5.37703 0.179382 12 0.179382ZM12 4.55205C9.96314 4.55205 9.70772 4.56043 8.90775 4.59591C8.10947 4.6313 7.56427 4.75451 7.08717 4.93466C6.594 5.1209 6.17573 5.3701 5.75878 5.77526C5.34183 6.18041 5.08538 6.58684 4.8937 7.06606C4.70831 7.52961 4.58156 8.05938 4.54509 8.83507C4.50863 9.61241 4.5 9.8606 4.5 11.8398C4.5 13.819 4.50863 14.0672 4.54509 14.8446C4.58156 15.6203 4.70831 16.15 4.8937 16.6136C5.08538 17.0928 5.34183 17.4992 5.75878 17.9044C6.17573 18.3096 6.594 18.5588 7.08717 18.745C7.56427 18.9251 8.10947 19.0483 8.90775 19.0837C9.70772 19.1192 9.96314 19.1276 12 19.1276C14.0369 19.1276 14.2923 19.1192 15.0922 19.0837C15.8905 19.0483 16.4357 18.9251 16.9128 18.745C17.406 18.5588 17.8242 18.3096 18.2412 17.9044C18.6582 17.4992 18.9146 17.0928 19.1063 16.6136C19.2916 16.15 19.4184 15.6203 19.4549 14.8446C19.4914 14.0672 19.5 13.819 19.5 11.8398C19.5 9.8606 19.4914 9.61241 19.4549 8.83507C19.4184 8.05938 19.2916 7.52961 19.1063 7.06606C18.9146 6.58684 18.6582 6.18041 18.2412 5.77526C17.8242 5.3701 17.406 5.1209 16.9128 4.93466C16.4357 4.75451 15.8905 4.6313 15.0922 4.59591C14.2923 4.56043 14.0369 4.55205 12 4.55205ZM12 5.86517C14.0026 5.86517 14.2398 5.87259 15.0307 5.90767C15.7619 5.9401 16.159 6.0588 16.4233 6.15859C16.7734 6.29077 17.0232 6.44874 17.2856 6.70376C17.5481 6.95875 17.7106 7.20156 17.8467 7.54172C17.9494 7.79852 18.0716 8.18437 18.1049 8.89492C18.141 9.66342 18.1486 9.8939 18.1486 11.8398C18.1486 13.7858 18.141 14.0162 18.1049 14.7847C18.0716 15.4953 17.9494 15.8811 17.8467 16.1379C17.7106 16.4781 17.5481 16.7209 17.2856 16.9759C17.0232 17.231 16.7734 17.3889 16.4233 17.5211C16.159 17.6209 15.7619 17.7396 15.0307 17.772C14.2399 17.8071 14.0027 17.8145 12 17.8145C9.99727 17.8145 9.76013 17.8071 8.96934 17.772C8.23809 17.7396 7.84102 17.6209 7.57673 17.5211C7.22662 17.3889 6.97678 17.231 6.71433 16.9759C6.45187 16.7209 6.28936 16.4781 6.15333 16.1379C6.05062 15.8811 5.92842 15.4953 5.89505 14.7847C5.85895 14.0162 5.85136 13.7858 5.85136 11.8398C5.85136 9.8939 5.85895 9.66342 5.89505 8.89492C5.92842 8.18437 6.05062 7.79852 6.15333 7.54172C6.28936 7.20156 6.45187 6.95875 6.71433 6.70376C6.97678 6.44874 7.22662 6.29077 7.57673 6.15859C7.84102 6.0588 8.23809 5.9401 8.96934 5.90767C9.76022 5.87259 9.99741 5.86517 12 5.86517ZM12 8.09746C9.87295 8.09746 8.14866 9.77297 8.14866 11.8398C8.14866 13.9067 9.87295 15.5822 12 15.5822C14.127 15.5822 15.8513 13.9067 15.8513 11.8398C15.8513 9.77297 14.127 8.09746 12 8.09746ZM12 14.2691C10.6193 14.2691 9.50002 13.1815 9.50002 11.8398C9.50002 10.4982 10.6193 9.41058 12 9.41058C13.3807 9.41058 14.5 10.4982 14.5 11.8398C14.5 13.1815 13.3807 14.2691 12 14.2691ZM16.9035 7.94961C16.9035 8.43261 16.5006 8.8241 16.0035 8.8241C15.5065 8.8241 15.1035 8.43261 15.1035 7.94961C15.1035 7.46661 15.5065 7.07508 16.0035 7.07508C16.5006 7.07508 16.9035 7.46661 16.9035 7.94961Z" fill="#003241"/>
</svg>
