<svg width="24" height="24" viewBox="0 0 24 24" fill="none" xmlns="http://www.w3.org/2000/svg">
<path fill-rule="evenodd" clip-rule="evenodd" d="M24 11.8398C24 18.2797 18.6274 23.5003 12 23.5003C5.37258 23.5003 0 18.2797 0 11.8398C0 5.39994 5.37258 0.179382 12 0.179382C18.6274 0.179382 24 5.39994 24 11.8398ZM5.472 17.658H8.27231V8.91197H5.472V17.658ZM5.25 6.14042C5.25 7.01077 5.9745 7.71695 6.873 7.71695C7.76775 7.71695 8.49431 7.01077 8.49412 6.14042C8.49412 5.27026 7.76756 4.56408 6.873 4.56408C5.9745 4.56408 5.25 5.27044 5.25 6.14042ZM15.9527 17.658H18.75L18.7496 12.8614C18.7496 10.5058 18.2261 8.69497 15.3939 8.69497C14.0327 8.69497 13.1201 9.41992 12.747 10.1075H12.7087V8.91197H10.0273V17.658H12.8214V13.3324C12.8214 12.1909 13.0433 11.0859 14.4992 11.0859C15.9345 11.0859 15.9527 12.3908 15.9527 13.4049V17.658Z" fill="#003241"/>
</svg>
