<svg width="170" height="50" viewBox="0 0 170 50" fill="none" xmlns="http://www.w3.org/2000/svg">
<g id="logo-mobile-hepta">
<g id="hepta-logo-animate">
<g id="g12">
<g id="g14">
<g id="g20">
<g id="path22">
<mask id="path-1-inside-1" fill="white">
<path fill-rule="evenodd" clip-rule="evenodd" d="M102.727 16.2597H111.236C111.12 14.8322 110.774 13.7679 110.202 13.0635C109.375 12.0383 108.315 11.5279 107.035 11.5279C105.878 11.5279 104.892 11.9547 104.075 12.8086C103.259 13.6611 102.81 14.8122 102.727 16.2597ZM111.218 20.7737L113.879 21.1309C113.436 22.8869 112.632 24.2148 111.473 25.1096C110.31 26.0035 108.874 26.4502 107.155 26.4502C104.998 26.4502 103.249 25.7244 101.915 24.2711C100.576 22.8187 99.9084 20.7223 99.9084 17.9797C99.9084 15.1381 100.581 12.9681 101.928 11.4739C103.278 9.97964 104.984 9.23253 107.051 9.23253C109.023 9.23253 110.669 9.96828 111.989 11.4352C113.307 12.9027 113.968 15.0286 113.968 17.8121L113.95 18.5569H102.57C102.674 20.406 103.159 21.8026 104.023 22.7442C104.884 23.6853 105.937 24.1548 107.175 24.1548C109.111 24.1548 110.46 23.0291 111.218 20.7737Z"/>
</mask>
<path d="M102.727 16.2597V17.2597H101.668L101.729 16.2027L102.727 16.2597ZM111.236 16.2597L112.232 16.1787L112.32 17.2597H111.236V16.2597ZM110.202 13.0635L109.426 13.6939L109.424 13.6913L110.202 13.0635ZM104.075 12.8086L103.352 12.1173L103.352 12.117L104.075 12.8086ZM113.879 21.1309L114.012 20.1398L115.124 20.2889L114.849 21.3759L113.879 21.1309ZM111.473 25.1096L112.084 25.9013L112.082 25.9024L111.473 25.1096ZM101.915 24.2711L102.65 23.5935L102.651 23.5947L101.915 24.2711ZM101.928 11.4739L101.186 10.8042L101.186 10.8036L101.928 11.4739ZM111.989 11.4352L112.732 10.7665L112.732 10.7668L111.989 11.4352ZM113.968 17.8121H114.968V17.8241L114.967 17.8361L113.968 17.8121ZM113.95 18.5569L114.949 18.581L114.926 19.5569H113.95V18.5569ZM102.57 18.5569L101.572 18.6131L101.512 17.5569H102.57V18.5569ZM104.023 22.7442L104.76 22.0682L104.761 22.0691L104.023 22.7442ZM102.727 15.2597H111.236V17.2597H102.727V15.2597ZM110.239 16.3406C110.131 15.0087 109.817 14.1757 109.426 13.6939L110.978 12.4332C111.731 13.3602 112.109 14.6557 112.232 16.1787L110.239 16.3406ZM109.424 13.6913C108.782 12.8961 108.006 12.5279 107.035 12.5279V10.5279C108.624 10.5279 109.968 11.1805 110.981 12.4357L109.424 13.6913ZM107.035 12.5279C106.158 12.5279 105.431 12.8382 104.797 13.5002L103.352 12.117C104.354 11.0711 105.598 10.5279 107.035 10.5279V12.5279ZM104.797 13.4998C104.181 14.1436 103.798 15.0502 103.725 16.3166L101.729 16.2027C101.822 14.5743 102.337 13.1787 103.352 12.1173L104.797 13.4998ZM111.351 19.7826L114.012 20.1398L113.746 22.122L111.085 21.7648L111.351 19.7826ZM114.849 21.3759C114.364 23.2965 113.459 24.8398 112.084 25.9013L110.862 24.3178C111.805 23.5898 112.508 22.4772 112.91 20.8859L114.849 21.3759ZM112.082 25.9024C110.716 26.9525 109.056 27.4502 107.155 27.4502V25.4502C108.692 25.4502 109.904 25.0545 110.863 24.3168L112.082 25.9024ZM107.155 27.4502C104.748 27.4502 102.721 26.6281 101.178 24.9475L102.651 23.5947C103.777 24.8208 105.248 25.4502 107.155 25.4502V27.4502ZM101.179 24.9487C99.6141 23.2502 98.9084 20.8749 98.9084 17.9797H100.908C100.908 20.5697 101.539 22.3872 102.65 23.5935L101.179 24.9487ZM98.9084 17.9797C98.9084 14.993 99.6149 12.546 101.186 10.8042L102.671 12.1436C101.547 13.3901 100.908 15.2832 100.908 17.9797H98.9084ZM101.186 10.8036C102.731 9.09342 104.709 8.23253 107.051 8.23253V10.2325C105.259 10.2325 103.825 10.8659 102.671 12.1441L101.186 10.8036ZM107.051 8.23253C109.308 8.23253 111.224 9.08939 112.732 10.7665L111.245 12.1039C110.115 10.8472 108.739 10.2325 107.051 10.2325V8.23253ZM112.732 10.7668C114.273 12.481 114.968 14.8825 114.968 17.8121H112.968C112.968 15.1746 112.342 13.3243 111.245 12.1037L112.732 10.7668ZM114.967 17.8361L114.949 18.581L112.95 18.5328L112.968 17.788L114.967 17.8361ZM113.95 19.5569H102.57V17.5569H113.95V19.5569ZM103.569 18.5007C103.665 20.2197 104.109 21.3585 104.76 22.0682L103.286 23.4202C102.21 22.2466 101.683 20.5924 101.572 18.6131L103.569 18.5007ZM104.761 22.0691C105.438 22.8094 106.225 23.1548 107.175 23.1548V25.1548C105.648 25.1548 104.331 24.5613 103.286 23.4193L104.761 22.0691ZM107.175 23.1548C107.934 23.1548 108.522 22.9399 108.997 22.5428C109.487 22.1326 109.93 21.4676 110.27 20.4551L112.166 21.0923C111.748 22.3352 111.137 23.3608 110.279 24.0773C109.407 24.8068 108.352 25.1548 107.175 25.1548V23.1548Z" fill="#FAFAFA" mask="url(#path-1-inside-1)"/>
</g>
</g>
<g id="g24">
<g id="path26">
<mask id="path-3-inside-2" fill="white">
<path fill-rule="evenodd" clip-rule="evenodd" d="M124.558 17.934C124.558 20.0663 124.96 21.6346 125.764 22.6403C126.568 23.651 127.539 24.1545 128.682 24.1545C129.774 24.1545 130.736 23.6351 131.561 22.5894C132.389 21.5446 132.803 19.9295 132.803 17.7482C132.803 15.5964 132.403 14.0049 131.597 12.9715C130.793 11.9367 129.817 11.4195 128.664 11.4195C127.627 11.4195 126.684 11.9771 125.835 13.0865C124.984 14.1994 124.558 15.8154 124.558 17.934ZM122.209 32.3928V9.60493H124.59V11.7449C125.174 10.8547 125.82 10.2162 126.532 9.8217C127.24 9.42906 128.058 9.23228 128.979 9.23228C130.18 9.23228 131.26 9.54903 132.23 10.1789C133.198 10.8092 133.974 11.7686 134.563 13.0565C135.151 14.3439 135.448 15.894 135.448 17.7005C135.448 20.5044 134.782 22.6644 133.459 24.1786C132.134 25.6947 130.578 26.4504 128.792 26.4504C128.001 26.4504 127.258 26.2691 126.569 25.9092C125.882 25.5461 125.286 25.0353 124.782 24.3722V32.3928H122.209Z"/>
</mask>
<path fill-rule="evenodd" clip-rule="evenodd" d="M124.558 17.934C124.558 20.0663 124.96 21.6346 125.764 22.6403C126.568 23.651 127.539 24.1545 128.682 24.1545C129.774 24.1545 130.736 23.6351 131.561 22.5894C132.389 21.5446 132.803 19.9295 132.803 17.7482C132.803 15.5964 132.403 14.0049 131.597 12.9715C130.793 11.9367 129.817 11.4195 128.664 11.4195C127.627 11.4195 126.684 11.9771 125.835 13.0865C124.984 14.1994 124.558 15.8154 124.558 17.934ZM122.209 32.3928V9.60493H124.59V11.7449C125.174 10.8547 125.82 10.2162 126.532 9.8217C127.24 9.42906 128.058 9.23228 128.979 9.23228C130.18 9.23228 131.26 9.54903 132.23 10.1789C133.198 10.8092 133.974 11.7686 134.563 13.0565C135.151 14.3439 135.448 15.894 135.448 17.7005C135.448 20.5044 134.782 22.6644 133.459 24.1786C132.134 25.6947 130.578 26.4504 128.792 26.4504C128.001 26.4504 127.258 26.2691 126.569 25.9092C125.882 25.5461 125.286 25.0353 124.782 24.3722V32.3928H122.209Z" stroke="#FAFAFA" stroke-width="2" mask="url(#path-3-inside-2)"/>
</g>
</g>
<g id="g28">
<g id="path30">
<mask id="path-4-inside-3" fill="white">
<path fill-rule="evenodd" clip-rule="evenodd" d="M149.364 23.5809L149.714 26.049C149 26.2136 148.36 26.2963 147.786 26.2963C146.887 26.2963 146.166 26.1377 145.615 25.8223C145.067 25.5078 144.689 25.0752 144.487 24.5289C144.283 23.9795 144.182 22.8879 144.182 21.2546V11.7767H142.288V9.60531H144.182V5.52391L146.755 3.84882V9.60531H149.364V11.7767H146.755V21.4091C146.755 22.3003 146.829 22.872 146.98 23.1329C147.203 23.5041 147.616 23.6891 148.224 23.6891C148.516 23.6891 148.895 23.6537 149.364 23.5809Z"/>
</mask>
<path d="M149.714 26.049L150.704 25.9085L150.833 26.8174L149.938 27.0235L149.714 26.049ZM145.615 25.8223L145.118 26.6901L145.118 26.6897L145.615 25.8223ZM144.487 24.5289L145.425 24.1814L145.425 24.1819L144.487 24.5289ZM144.182 11.7767V10.7767H145.182V11.7767H144.182ZM142.288 11.7767V12.7767H141.288V11.7767H142.288ZM142.288 9.60531H141.288V8.60531H142.288V9.60531ZM144.182 9.60531H145.182V10.6053H144.182V9.60531ZM144.182 5.52391H143.182V4.9817L143.636 4.68587L144.182 5.52391ZM146.755 3.84882L146.209 3.01078L147.755 2.00451V3.84882H146.755ZM146.755 9.60531V10.6053H145.755V9.60531H146.755ZM149.364 9.60531V8.60531H150.364V9.60531H149.364ZM149.364 11.7767H150.364V12.7767H149.364V11.7767ZM146.755 11.7767H145.755V10.7767H146.755V11.7767ZM146.98 23.1329L146.123 23.6471L146.119 23.6409L146.115 23.6346L146.98 23.1329ZM150.354 23.4404L150.704 25.9085L148.724 26.1896L148.374 23.7215L150.354 23.4404ZM149.938 27.0235C149.171 27.2003 148.454 27.2963 147.786 27.2963V25.2963C148.266 25.2963 148.829 25.2268 149.489 25.0746L149.938 27.0235ZM147.786 27.2963C146.78 27.2963 145.869 27.1201 145.118 26.6901L146.112 24.9544C146.463 25.1552 146.995 25.2963 147.786 25.2963V27.2963ZM145.118 26.6897C144.385 26.2695 143.84 25.6615 143.549 24.8759L145.425 24.1819C145.538 24.4889 145.749 24.7461 146.113 24.9548L145.118 26.6897ZM143.549 24.8765C143.401 24.477 143.316 23.9621 143.262 23.391C143.208 22.8034 143.182 22.0888 143.182 21.2546H145.182C145.182 22.0537 145.207 22.7015 145.254 23.2054C145.302 23.7258 145.369 24.0315 145.425 24.1814L143.549 24.8765ZM143.182 21.2546V11.7767H145.182V21.2546H143.182ZM144.182 12.7767H142.288V10.7767H144.182V12.7767ZM141.288 11.7767V9.60531H143.288V11.7767H141.288ZM142.288 8.60531H144.182V10.6053H142.288V8.60531ZM143.182 9.60531V5.52391H145.182V9.60531H143.182ZM143.636 4.68587L146.209 3.01078L147.3 4.68686L144.727 6.36195L143.636 4.68587ZM147.755 3.84882V9.60531H145.755V3.84882H147.755ZM146.755 8.60531H149.364V10.6053H146.755V8.60531ZM150.364 9.60531V11.7767H148.364V9.60531H150.364ZM149.364 12.7767H146.755V10.7767H149.364V12.7767ZM147.755 11.7767V21.4091H145.755V11.7767H147.755ZM147.755 21.4091C147.755 21.8321 147.773 22.1504 147.802 22.3777C147.836 22.6318 147.872 22.6776 147.845 22.6311L146.115 23.6346C145.937 23.3273 145.861 22.9568 145.819 22.637C145.774 22.2905 145.755 21.8773 145.755 21.4091H147.755ZM147.838 22.6186C147.839 22.6201 147.837 22.6244 147.866 22.6374C147.909 22.6565 148.015 22.6891 148.224 22.6891V24.6891C147.422 24.6891 146.594 24.4336 146.123 23.6471L147.838 22.6186ZM148.224 22.6891C148.444 22.6891 148.767 22.6616 149.21 22.5928L149.517 24.5691C149.023 24.6457 148.588 24.6891 148.224 24.6891V22.6891Z" fill="#FAFAFA" mask="url(#path-4-inside-3)"/>
</g>
</g>
<g id="g32">
<g id="path34">
<mask id="path-6-inside-4" fill="white">
<path fill-rule="evenodd" clip-rule="evenodd" d="M166.571 17.8121C165.624 18.2247 164.218 18.5764 162.35 18.8668C161.261 19.0318 160.504 19.2199 160.073 19.4303C159.642 19.6453 159.306 19.9434 159.068 20.3311C158.829 20.7192 158.708 21.1663 158.708 21.6726C158.708 22.4579 158.981 23.0873 159.531 23.5585C160.08 24.0298 160.838 24.2643 161.807 24.2643C162.731 24.2643 163.567 24.0512 164.32 23.6281C165.073 23.2041 165.636 22.6378 166.011 21.9289C166.383 21.2204 166.571 20.1902 166.571 18.835V17.8121ZM166.78 24.0462C165.915 24.8433 165.016 25.4422 164.084 25.8467C163.149 26.2521 162.181 26.4502 161.175 26.4502C159.588 26.4502 158.322 26.0271 157.377 25.1809C156.432 24.3311 155.96 23.1882 155.96 21.7508C155.96 20.8005 156.182 19.9566 156.623 19.2222C157.067 18.4878 157.676 17.9129 158.444 17.5003C159.214 17.0877 160.383 16.7814 161.947 16.5846C164.049 16.3124 165.589 15.9847 166.571 15.6075L166.586 14.8936C166.586 13.7679 166.361 12.9763 165.904 12.5214C165.261 11.8597 164.273 11.5279 162.945 11.5279C161.744 11.5279 160.844 11.7502 160.249 12.191C159.653 12.6323 159.214 13.4607 158.934 14.6786L156.395 14.306C156.758 12.5373 157.491 11.2489 158.595 10.4423C159.698 9.63654 161.275 9.23253 163.33 9.23253C164.931 9.23253 166.184 9.49884 167.095 10.0305C168.005 10.5632 168.581 11.223 168.819 12.0088C169.059 12.7945 169.178 13.9429 169.178 15.4526V19.1754C169.178 21.7807 169.234 23.4245 169.343 24.1007C169.457 24.7778 169.675 25.4381 170 26.0789H167.304C167.037 25.5095 166.862 24.8337 166.78 24.0462Z"/>
</mask>
<path d="M166.571 17.8121L166.171 16.8953L167.571 16.2854V17.8121H166.571ZM162.35 18.8668L162.504 19.855L162.5 19.8555L162.35 18.8668ZM160.073 19.4303L159.627 18.5353L159.635 18.5316L160.073 19.4303ZM159.068 20.3311L159.92 20.8543L159.919 20.8563L159.068 20.3311ZM159.531 23.5585L160.182 22.7995L160.182 22.7998L159.531 23.5585ZM164.32 23.6281L164.81 24.4994L164.809 24.4999L164.32 23.6281ZM166.011 21.9289L166.896 22.3942L166.895 22.3964L166.011 21.9289ZM164.084 25.8467L164.482 26.764L164.482 26.7642L164.084 25.8467ZM157.377 25.1809L156.71 25.926L156.708 25.9246L157.377 25.1809ZM156.623 19.2222L155.766 18.7068L155.768 18.7051L156.623 19.2222ZM158.444 17.5003L157.972 16.6192L157.972 16.6189L158.444 17.5003ZM161.947 16.5846L162.075 17.5763L162.072 17.5768L161.947 16.5846ZM166.571 15.6075L167.571 15.6291L167.556 16.3004L166.929 16.5411L166.571 15.6075ZM166.586 14.8936H167.586V14.9044L167.586 14.9151L166.586 14.8936ZM165.904 12.5214L165.199 13.2301L165.193 13.2242L165.187 13.2181L165.904 12.5214ZM160.249 12.191L159.654 11.3875L159.654 11.3872L160.249 12.191ZM158.934 14.6786L159.909 14.9027L159.702 15.802L158.789 15.668L158.934 14.6786ZM156.395 14.306L156.25 15.2954L155.202 15.1417L155.415 14.1046L156.395 14.306ZM158.595 10.4423L158.005 9.63488L158.005 9.63482L158.595 10.4423ZM167.095 10.0305L167.599 9.16701L167.6 9.16739L167.095 10.0305ZM168.819 12.0088L167.863 12.3004L167.862 12.2992L168.819 12.0088ZM169.343 24.1007L168.357 24.2665L168.356 24.2609L169.343 24.1007ZM170 26.0789L170.892 25.6263L171.629 27.0789H170V26.0789ZM167.304 26.0789V27.0789H166.67L166.399 26.5044L167.304 26.0789ZM166.97 18.7288C165.905 19.1929 164.399 19.5603 162.504 19.855L162.196 17.8787C164.037 17.5926 165.343 17.2564 166.171 16.8953L166.97 18.7288ZM162.5 19.8555C161.417 20.0196 160.794 20.1914 160.511 20.3291L159.635 18.5316C160.215 18.2485 161.106 18.044 162.2 17.8781L162.5 19.8555ZM160.519 20.3254C160.241 20.4641 160.052 20.6395 159.92 20.8543L158.216 19.8078C158.56 19.2474 159.043 18.8265 159.627 18.5353L160.519 20.3254ZM159.919 20.8563C159.787 21.0704 159.708 21.332 159.708 21.6726H157.708C157.708 21.0007 157.87 20.3679 158.217 19.8058L159.919 20.8563ZM159.708 21.6726C159.708 22.1959 159.876 22.5369 160.182 22.7995L158.88 24.3175C158.087 23.6377 157.708 22.7198 157.708 21.6726H159.708ZM160.182 22.7998C160.495 23.0688 160.994 23.2643 161.807 23.2643V25.2643C160.682 25.2643 159.664 24.9908 158.879 24.3172L160.182 22.7998ZM161.807 23.2643C162.57 23.2643 163.235 23.0903 163.83 22.7563L164.809 24.4999C163.898 25.012 162.892 25.2643 161.807 25.2643V23.2643ZM163.829 22.7567C164.428 22.4194 164.848 21.9878 165.127 21.4614L166.895 22.3964C166.423 23.2878 165.717 23.9888 164.81 24.4994L163.829 22.7567ZM165.126 21.4636C165.388 20.965 165.571 20.1248 165.571 18.835H167.571C167.571 20.2555 167.379 21.4758 166.896 22.3942L165.126 21.4636ZM165.571 18.835V17.8121H167.571V18.835H165.571ZM167.457 24.7815C166.522 25.6436 165.53 26.309 164.482 26.764L163.686 24.9294C164.501 24.5755 165.308 24.0429 166.102 23.3109L167.457 24.7815ZM164.482 26.7642C163.42 27.2243 162.317 27.4502 161.175 27.4502V25.4502C162.045 25.4502 162.878 25.2798 163.686 24.9292L164.482 26.7642ZM161.175 27.4502C159.406 27.4502 157.881 26.9746 156.71 25.926L158.044 24.4358C158.763 25.0797 159.77 25.4502 161.175 25.4502V27.4502ZM156.708 25.9246C155.523 24.8591 154.96 23.4304 154.96 21.7508H156.96C156.96 22.9459 157.34 23.8031 158.046 24.4372L156.708 25.9246ZM154.96 21.7508C154.96 20.6385 155.222 19.6129 155.766 18.7068L157.48 19.7376C157.142 20.3003 156.96 20.9625 156.96 21.7508H154.96ZM155.768 18.7051C156.306 17.8142 157.048 17.1149 157.972 16.6192L158.917 18.3814C158.303 18.711 157.829 19.1614 157.479 19.7393L155.768 18.7051ZM157.972 16.6189C158.904 16.1194 160.218 15.7943 161.822 15.5924L162.072 17.5768C160.549 17.7684 159.525 18.0559 158.917 18.3817L157.972 16.6189ZM161.818 15.5929C163.902 15.323 165.345 15.007 166.212 14.674L166.929 16.5411C165.832 16.9625 164.195 17.3017 162.075 17.5763L161.818 15.5929ZM165.571 15.586L165.587 14.872L167.586 14.9151L167.571 15.6291L165.571 15.586ZM165.586 14.8936C165.586 13.8461 165.366 13.397 165.199 13.2301L166.61 11.8126C167.356 12.5556 167.586 13.6897 167.586 14.8936H165.586ZM165.187 13.2181C164.802 12.8221 164.123 12.5279 162.945 12.5279V10.5279C164.424 10.5279 165.721 10.8973 166.621 11.8246L165.187 13.2181ZM162.945 12.5279C161.837 12.5279 161.19 12.7383 160.844 12.9947L159.654 11.3872C160.499 10.7621 161.65 10.5279 162.945 10.5279V12.5279ZM160.844 12.9945C160.533 13.2252 160.169 13.7719 159.909 14.9027L157.96 14.4545C158.26 13.1495 158.774 12.0393 159.654 11.3875L160.844 12.9945ZM158.789 15.668L156.25 15.2954L156.54 13.3166L159.079 13.6892L158.789 15.668ZM155.415 14.1046C155.812 12.173 156.642 10.6303 158.005 9.63488L159.185 11.2497C158.339 11.8675 157.704 12.9015 157.374 14.5074L155.415 14.1046ZM158.005 9.63482C159.345 8.65545 161.163 8.23253 163.33 8.23253V10.2325C161.386 10.2325 160.05 10.6176 159.185 11.2497L158.005 9.63482ZM163.33 8.23253C165.024 8.23253 166.476 8.51138 167.599 9.16701L166.59 10.8941C165.892 10.4863 164.838 10.2325 163.33 10.2325V8.23253ZM167.6 9.16739C168.663 9.78958 169.445 10.6287 169.776 11.7183L167.862 12.2992C167.716 11.8173 167.347 11.3367 166.59 10.8937L167.6 9.16739ZM169.776 11.7171C170.059 12.6461 170.178 13.9127 170.178 15.4526H168.178C168.178 13.9731 168.059 12.9429 167.863 12.3004L169.776 11.7171ZM170.178 15.4526V19.1754H168.178V15.4526H170.178ZM170.178 19.1754C170.178 21.8077 170.236 23.361 170.33 23.9405L168.356 24.2609C168.231 23.4879 168.178 21.7538 168.178 19.1754H170.178ZM170.33 23.9349C170.426 24.5099 170.611 25.0737 170.892 25.6263L169.108 26.5315C168.738 25.8026 168.488 25.0458 168.357 24.2665L170.33 23.9349ZM170 27.0789H167.304V25.0789H170V27.0789ZM166.399 26.5044C166.074 25.8117 165.876 25.0221 165.785 24.1498L167.774 23.9425C167.848 24.6453 168 25.2073 168.209 25.6534L166.399 26.5044Z" fill="#FAFAFA" mask="url(#path-6-inside-4)"/>
</g>
</g>
<g id="g36">
<g id="path38">
<mask id="path-8-inside-5" fill="white">
<path fill-rule="evenodd" clip-rule="evenodd" d="M96.6177 17.3439C96.6177 17.8806 96.1248 18.3155 95.518 18.3155C94.9101 18.3155 94.4177 17.8806 94.4177 17.3439C94.4177 16.8045 94.9101 16.3691 95.518 16.3691C96.1248 16.3691 96.6177 16.8045 96.6177 17.3439Z"/>
</mask>
<path fill-rule="evenodd" clip-rule="evenodd" d="M96.6177 17.3439C96.6177 17.8806 96.1248 18.3155 95.518 18.3155C94.9101 18.3155 94.4177 17.8806 94.4177 17.3439C94.4177 16.8045 94.9101 16.3691 95.518 16.3691C96.1248 16.3691 96.6177 16.8045 96.6177 17.3439Z" fill="#DC1D27" stroke="#FAFAFA" stroke-width="2" mask="url(#path-8-inside-5)"/>
</g>
</g>
<g id="g40">
<g id="path42">
<mask id="path-9-inside-6" fill="white">
<path fill-rule="evenodd" clip-rule="evenodd" d="M118.695 17.3439C118.695 17.8792 118.204 18.3155 117.597 18.3155C116.992 18.3155 116.498 17.8792 116.498 17.3439C116.498 16.8045 116.992 16.3691 117.597 16.3691C118.204 16.3691 118.695 16.8045 118.695 17.3439Z"/>
</mask>
<path fill-rule="evenodd" clip-rule="evenodd" d="M118.695 17.3439C118.695 17.8792 118.204 18.3155 117.597 18.3155C116.992 18.3155 116.498 17.8792 116.498 17.3439C116.498 16.8045 116.992 16.3691 117.597 16.3691C118.204 16.3691 118.695 16.8045 118.695 17.3439Z" fill="#DC1D27" stroke="#FAFAFA" stroke-width="2" mask="url(#path-9-inside-6)"/>
</g>
</g>
<g id="g44">
<g id="path46">
<mask id="path-10-inside-7" fill="white">
<path fill-rule="evenodd" clip-rule="evenodd" d="M140.499 17.3439C140.499 17.8792 140.009 18.3155 139.401 18.3155C138.792 18.3155 138.302 17.8792 138.302 17.3439C138.302 16.8045 138.792 16.3691 139.401 16.3691C140.009 16.3691 140.499 16.8045 140.499 17.3439Z"/>
</mask>
<path fill-rule="evenodd" clip-rule="evenodd" d="M140.499 17.3439C140.499 17.8792 140.009 18.3155 139.401 18.3155C138.792 18.3155 138.302 17.8792 138.302 17.3439C138.302 16.8045 138.792 16.3691 139.401 16.3691C140.009 16.3691 140.499 16.8045 140.499 17.3439Z" fill="#DC1D27" stroke="#FAFAFA" stroke-width="2" mask="url(#path-10-inside-7)"/>
</g>
</g>
<g id="g48">
<g id="path50">
<mask id="path-11-inside-8" fill="white">
<path fill-rule="evenodd" clip-rule="evenodd" d="M154.481 17.3439C154.481 17.8806 153.988 18.3155 153.381 18.3155C152.777 18.3155 152.285 17.8806 152.285 17.3439C152.285 16.8045 152.777 16.3691 153.381 16.3691C153.988 16.3691 154.481 16.8045 154.481 17.3439Z"/>
</mask>
<path fill-rule="evenodd" clip-rule="evenodd" d="M154.481 17.3439C154.481 17.8806 153.988 18.3155 153.381 18.3155C152.777 18.3155 152.285 17.8806 152.285 17.3439C152.285 16.8045 152.777 16.3691 153.381 16.3691C153.988 16.3691 154.481 16.8045 154.481 17.3439Z" fill="#DC1D27" stroke="#FAFAFA" stroke-width="2" mask="url(#path-11-inside-8)"/>
</g>
</g>
<g id="g52">
<g id="path54">
<mask id="path-12-inside-9" fill="white">
<path fill-rule="evenodd" clip-rule="evenodd" d="M79.3901 26.0789V3.33829H81.963V11.497C82.5719 10.7422 83.2577 10.1755 84.024 9.79872C84.7873 9.42107 85.6306 9.23248 86.5508 9.23248C88.1742 9.23248 89.4566 9.69102 90.3927 10.6058C91.336 11.5211 91.8053 13.1989 91.8053 15.6375V26.0789H89.2309V15.6375C89.2309 14.2119 88.9472 13.1889 88.3738 12.5672C87.8003 11.9478 87.0129 11.6361 86.0091 11.6361C84.8899 11.6361 83.9338 12.0355 83.1454 12.8317C82.3601 13.6265 81.963 15.0385 81.963 17.0658V26.0789H79.3901Z"/>
</mask>
<path fill-rule="evenodd" clip-rule="evenodd" d="M79.3901 26.0789V3.33829H81.963V11.497C82.5719 10.7422 83.2577 10.1755 84.024 9.79872C84.7873 9.42107 85.6306 9.23248 86.5508 9.23248C88.1742 9.23248 89.4566 9.69102 90.3927 10.6058C91.336 11.5211 91.8053 13.1989 91.8053 15.6375V26.0789H89.2309V15.6375C89.2309 14.2119 88.9472 13.1889 88.3738 12.5672C87.8003 11.9478 87.0129 11.6361 86.0091 11.6361C84.8899 11.6361 83.9338 12.0355 83.1454 12.8317C82.3601 13.6265 81.963 15.0385 81.963 17.0658V26.0789H79.3901Z" stroke="#FAFAFA" stroke-width="2" mask="url(#path-12-inside-9)"/>
</g>
</g>
<g id="g56">
<g id="path58">
<mask id="path-13-inside-10" fill="white">
<path fill-rule="evenodd" clip-rule="evenodd" d="M3.63983 40.8706H55.5294L67.5214 6.08628H15.7806L3.63983 40.8706ZM57.5186 43.2483H0L13.8048 3.7077H71.1484L57.5186 43.2483Z"/>
</mask>
<path fill-rule="evenodd" clip-rule="evenodd" d="M3.63983 40.8706H55.5294L67.5214 6.08628H15.7806L3.63983 40.8706ZM57.5186 43.2483H0L13.8048 3.7077H71.1484L57.5186 43.2483Z" stroke="#FAFAFA" stroke-width="2" mask="url(#path-13-inside-10)"/>
</g>
</g>
<g id="g60">
<g id="path62">
<mask id="path-14-inside-11" fill="white">
<path fill-rule="evenodd" clip-rule="evenodd" d="M54.3203 17.9715L34.0309 19.7421L32.0325 1.77047L52.3213 -5.72205e-05L54.3203 17.9715Z"/>
</mask>
<path fill-rule="evenodd" clip-rule="evenodd" d="M54.3203 17.9715L34.0309 19.7421L32.0325 1.77047L52.3213 -5.72205e-05L54.3203 17.9715Z" fill="#FBC108" stroke="#FAFAFA" stroke-width="2" mask="url(#path-14-inside-11)"/>
</g>
</g>
<g id="g64">
<g id="path66">
<mask id="path-15-inside-12" fill="white">
<path fill-rule="evenodd" clip-rule="evenodd" d="M34.0304 19.7423L29.696 4.89732H32.3838L32.033 1.76936L34.0304 19.7423Z"/>
</mask>
<path fill-rule="evenodd" clip-rule="evenodd" d="M34.0304 19.7423L29.696 4.89732H32.3838L32.033 1.76936L34.0304 19.7423Z" stroke="#FAFAFA" stroke-width="2" mask="url(#path-15-inside-12)"/>
</g>
</g>
<g id="g68">
<g id="path70">
<mask id="path-16-inside-13" fill="white">
<path fill-rule="evenodd" clip-rule="evenodd" d="M37.8328 42.5553H41.8522L43.2463 33.1796L37.8328 42.5553Z"/>
</mask>
<path fill-rule="evenodd" clip-rule="evenodd" d="M37.8328 42.5553H41.8522L43.2463 33.1796L37.8328 42.5553Z" stroke="#FAFAFA" stroke-width="2" mask="url(#path-16-inside-13)"/>
</g>
</g>
<g id="g72">
<g id="path74">
<mask id="path-17-inside-14" fill="white">
<path fill-rule="evenodd" clip-rule="evenodd" d="M35.1682 49.7585L16.4551 42.6018L24.5329 26.0213L43.247 33.1798L35.1682 49.7585Z"/>
</mask>
<path fill-rule="evenodd" clip-rule="evenodd" d="M35.1682 49.7585L16.4551 42.6018L24.5329 26.0213L43.247 33.1798L35.1682 49.7585Z" fill="#DC1D27" stroke="#FAFAFA" stroke-width="2" mask="url(#path-17-inside-14)"/>
</g>
</g>
<g id="g76">
<g id="path78">
<mask id="path-18-inside-15" fill="white">
<path fill-rule="evenodd" clip-rule="evenodd" d="M165.423 42.7718C166.261 42.7718 166.919 42.5682 167.395 42.1615C167.873 41.7547 168.114 41.1862 168.114 40.4537V39.7429L166.767 39.7947C165.699 39.8265 164.928 39.9733 164.455 40.2355C163.982 40.4955 163.746 40.9022 163.746 41.4507C163.746 41.882 163.894 42.2105 164.189 42.4337C164.482 42.6591 164.895 42.7718 165.423 42.7718ZM168.462 43.6098L168.194 42.49H168.127C167.685 42.9822 167.246 43.318 166.805 43.4944C166.363 43.6689 165.816 43.7566 165.157 43.7566C164.275 43.7566 163.586 43.5557 163.086 43.154C162.588 42.7495 162.336 42.1787 162.336 41.4339C162.336 39.8433 163.771 39.0103 166.637 38.9344L168.144 38.8903V38.4027C168.144 37.7874 167.995 37.3316 167.696 37.0376C167.395 36.7435 166.916 36.5968 166.258 36.5968C165.517 36.5968 164.682 36.7976 163.746 37.1994L163.335 36.2877C163.771 36.0773 164.25 35.9105 164.77 35.7906C165.293 35.6706 165.816 35.612 166.338 35.612C167.397 35.612 168.18 35.8201 168.692 36.2364C169.203 36.6531 169.458 37.3193 169.458 38.2382V43.6098H168.462ZM157.321 33.6069C157.321 33.3352 157.396 33.1366 157.548 33.0093C157.7 32.8816 157.889 32.818 158.115 32.818C158.331 32.818 158.519 32.8816 158.674 33.0116C158.831 33.1416 158.909 33.3402 158.909 33.6069C158.909 33.8769 158.831 34.0777 158.674 34.2077C158.519 34.34 158.331 34.4059 158.115 34.4059C157.889 34.4059 157.7 34.34 157.548 34.2077C157.396 34.0777 157.321 33.8769 157.321 33.6069ZM158.779 43.6098H157.435V35.7442H158.779V43.6098ZM147.889 38.2605C147.889 38.8117 148.064 39.2285 148.415 39.5102C148.766 39.792 149.255 39.9342 149.884 39.9342C151.198 39.9342 151.853 39.368 151.853 38.2382C151.853 37.0548 151.189 36.4645 149.858 36.4645C149.225 36.4645 148.739 36.6163 148.399 36.9176C148.058 37.2189 147.889 37.6674 147.889 38.2605ZM147.159 44.9304C147.159 45.3544 147.361 45.678 147.768 45.8984C148.171 46.1165 148.753 46.227 149.51 46.227C150.639 46.227 151.477 46.077 152.018 45.7784C152.561 45.4817 152.835 45.0749 152.835 44.5655C152.835 44.1392 152.685 43.8447 152.387 43.6807C152.091 43.5166 151.532 43.4335 150.71 43.4335H149.098C148.487 43.4335 148.011 43.5634 147.671 43.8207C147.331 44.0779 147.159 44.4478 147.159 44.9304ZM154.243 35.7442V36.4986L152.6 36.6704C152.749 36.8367 152.885 37.0576 153.003 37.327C153.123 37.5965 153.18 37.9001 153.18 38.2409C153.18 39.0103 152.885 39.6256 152.289 40.0837C151.695 40.5418 150.879 40.7722 149.842 40.7722C149.576 40.7722 149.331 40.7527 149.095 40.7159C148.523 40.9826 148.238 41.3212 148.238 41.7279C148.238 41.9433 148.337 42.1028 148.537 42.2055C148.739 42.3083 149.082 42.3601 149.569 42.3601H151.139C152.102 42.3601 152.84 42.5387 153.358 42.899C153.872 43.2567 154.129 43.7788 154.129 44.4623C154.129 45.3321 153.736 45.9965 152.948 46.4524C152.157 46.9104 151.007 47.1381 149.493 47.1381C148.332 47.1381 147.436 46.9473 146.808 46.5651C146.177 46.1824 145.862 45.6412 145.862 44.9454C145.862 44.4673 146.037 44.0533 146.382 43.703C146.728 43.3548 147.215 43.1172 147.84 42.9949C147.613 42.9018 147.422 42.7618 147.27 42.5709C147.115 42.3773 147.037 42.1542 147.037 41.902C147.037 41.6125 147.126 41.3625 147.297 41.1471C147.472 40.9313 147.743 40.7231 148.117 40.5223C147.657 40.3532 147.284 40.0687 146.993 39.667C146.706 39.2653 146.559 38.8045 146.559 38.2873C146.559 37.4275 146.852 36.7631 147.436 36.2977C148.02 35.8296 148.846 35.597 149.917 35.597C150.382 35.597 150.799 35.646 151.173 35.7442H154.243ZM136.48 39.6693C136.48 40.6741 136.707 41.4412 137.161 41.9679C137.614 42.495 138.281 42.7568 139.163 42.7568C140.043 42.7568 140.712 42.495 141.168 41.9701C141.624 41.4462 141.851 40.6791 141.851 39.6693C141.851 38.6699 141.624 37.9101 141.168 37.3907C140.712 36.8712 140.037 36.6113 139.146 36.6113C138.264 36.6113 137.6 36.8662 137.152 37.3784C136.704 37.8906 136.48 38.6549 136.48 39.6693ZM143.246 39.6693C143.246 40.9535 142.88 41.9556 142.153 42.6764C141.423 43.3967 140.416 43.7566 139.13 43.7566C138.336 43.7566 137.63 43.5925 137.014 43.2617C136.4 42.9308 135.924 42.4555 135.589 41.8379C135.252 41.2208 135.086 40.4977 135.086 39.6693C135.086 38.3855 135.448 37.3857 136.173 36.6704C136.895 35.9546 137.902 35.597 139.185 35.597C140.43 35.597 141.414 35.9623 142.147 36.6945C142.88 37.4275 143.246 38.42 143.246 39.6693ZM131.358 43.6098H130.013V32.4358H131.358V43.6098ZM119.52 39.6693C119.52 40.6741 119.746 41.4412 120.2 41.9679C120.654 42.495 121.32 42.7568 122.202 42.7568C123.082 42.7568 123.751 42.495 124.207 41.9701C124.664 41.4462 124.891 40.6791 124.891 39.6693C124.891 38.6699 124.664 37.9101 124.207 37.3907C123.751 36.8712 123.076 36.6113 122.186 36.6113C121.303 36.6113 120.639 36.8662 120.192 37.3784C119.743 37.8906 119.52 38.6549 119.52 39.6693ZM126.284 39.6693C126.284 40.9535 125.92 41.9556 125.192 42.6764C124.462 43.3967 123.455 43.7566 122.169 43.7566C121.375 43.7566 120.67 43.5925 120.054 43.2617C119.44 42.9308 118.964 42.4555 118.629 41.8379C118.292 41.2208 118.125 40.4977 118.125 39.6693C118.125 38.3855 118.488 37.3857 119.212 36.6704C119.934 35.9546 120.941 35.597 122.224 35.597C123.469 35.597 124.454 35.9623 125.187 36.6945C125.92 37.4275 126.284 38.42 126.284 39.6693ZM113.144 43.6098V38.5204C113.144 37.8783 112.981 37.4007 112.649 37.0844C112.32 36.7681 111.803 36.6113 111.1 36.6113C110.171 36.6113 109.49 36.8344 109.059 37.278C108.625 37.7238 108.409 38.4591 108.409 39.4834V43.6098H107.065V35.7442H108.157L108.376 36.8172H108.442C108.719 36.43 109.103 36.1287 109.601 35.9155C110.099 35.7024 110.652 35.597 111.263 35.597C112.334 35.597 113.138 35.8246 113.678 36.2832C114.22 36.739 114.488 37.4716 114.488 38.4759V43.6098H113.144ZM101.345 43.7566C100.059 43.7566 99.063 43.4062 98.3577 42.7054C97.6524 42.0024 97.301 41.0099 97.301 39.7284C97.301 38.41 97.658 37.3934 98.3741 36.6749C99.0907 35.9569 100.108 35.597 101.433 35.597C101.859 35.597 102.285 35.6388 102.714 35.7192C103.139 35.8001 103.474 35.896 103.718 36.0087L103.303 37.0208C103.006 36.9153 102.683 36.8294 102.332 36.7585C101.981 36.6899 101.671 36.6558 101.4 36.6558C99.5964 36.6558 98.6952 37.6747 98.6952 39.7138C98.6952 40.6791 98.9137 41.4216 99.3533 41.9388C99.796 42.4555 100.446 42.7132 101.312 42.7132C102.05 42.7132 102.811 42.5709 103.588 42.2892V43.3476C102.993 43.6193 102.246 43.7566 101.345 43.7566ZM90.502 36.5968C89.789 36.5968 89.2217 36.8026 88.7985 37.2143C88.3728 37.6233 88.124 38.1919 88.0491 38.9194H92.6902C92.6902 38.1701 92.502 37.5938 92.1234 37.1948C91.7443 36.7953 91.2052 36.5968 90.502 36.5968ZM90.8672 43.7566C89.5541 43.7566 88.519 43.4012 87.7619 42.6932C87.0007 41.9851 86.6221 41.0004 86.6221 39.7406C86.6221 38.4713 86.9735 37.4643 87.6788 36.7167C88.3841 35.9696 89.3294 35.597 90.5189 35.597C91.631 35.597 92.5127 35.9201 93.1601 36.5699C93.8074 37.2189 94.1341 38.0746 94.1341 39.1353V39.8901H88.0163C88.0435 40.8136 88.3061 41.5143 88.8042 41.9951C89.3048 42.4728 90.0075 42.7132 90.917 42.7132C91.8716 42.7132 92.8174 42.5364 93.752 42.181V43.2449C93.2765 43.4285 92.8256 43.558 92.403 43.6393C91.9793 43.7175 91.4674 43.7566 90.8672 43.7566ZM82.7576 42.7718C82.9956 42.7718 83.2254 42.7568 83.4465 42.725C83.6676 42.6932 83.842 42.6614 83.9718 42.6273V43.5412C83.8251 43.6025 83.6122 43.6539 83.3275 43.6957C83.0454 43.737 82.7879 43.7566 82.5612 43.7566C80.8438 43.7566 79.9862 42.9554 79.9862 41.3507V36.6704H78.7141V36.0969L79.9862 35.5992L80.5535 33.921H81.3306V35.7442H83.9082V36.6704H81.3306V41.2989C81.3306 41.7743 81.4578 42.1374 81.7122 42.3919C81.9667 42.6441 82.3155 42.7718 82.7576 42.7718Z"/>
</mask>
<path d="M167.395 42.1615L166.745 41.4012L166.747 41.3998L167.395 42.1615ZM168.114 39.7429L168.076 38.7436L169.114 38.7037V39.7429H168.114ZM166.767 39.7947L166.805 40.794L166.797 40.7943L166.767 39.7947ZM164.455 40.2355L164.94 41.1101L164.936 41.1119L164.455 40.2355ZM164.189 42.4337L164.792 41.6351L164.799 41.6412L164.189 42.4337ZM168.462 43.6098V44.6098H167.674L167.49 43.8432L168.462 43.6098ZM168.194 42.49V41.49H168.982L169.166 42.2566L168.194 42.49ZM168.127 42.49L167.383 41.8217L167.681 41.49H168.127V42.49ZM166.805 43.4944L167.177 44.4226L167.173 44.4245L166.805 43.4944ZM163.086 43.154L162.46 43.9339L162.455 43.9299L163.086 43.154ZM166.637 38.9344L166.666 39.934L166.663 39.9341L166.637 38.9344ZM168.144 38.8903H169.144V39.8615L168.174 39.8899L168.144 38.8903ZM167.696 37.0376L168.395 36.3215L168.398 36.3251L167.696 37.0376ZM163.746 37.1994L164.141 38.1182L163.239 38.5056L162.835 37.6107L163.746 37.1994ZM163.335 36.2877L162.423 36.699L162.022 35.8103L162.901 35.3869L163.335 36.2877ZM164.77 35.7906L164.545 34.8161L164.546 34.8159L164.77 35.7906ZM168.692 36.2364L169.323 35.4608L169.323 35.4609L168.692 36.2364ZM169.458 43.6098H170.458V44.6098H169.458V43.6098ZM157.548 33.0093L158.192 33.7746L158.19 33.7758L157.548 33.0093ZM158.674 33.0116L158.037 33.7829L158.031 33.7777L158.674 33.0116ZM158.674 34.2077L158.025 33.4472L158.031 33.4418L158.037 33.4365L158.674 34.2077ZM157.548 34.2077L158.198 33.448L158.205 33.4537L157.548 34.2077ZM158.779 43.6098H159.779V44.6098H158.779V43.6098ZM157.435 43.6098V44.6098H156.435V43.6098H157.435ZM157.435 35.7442H156.435V34.7442H157.435V35.7442ZM158.779 35.7442V34.7442H159.779V35.7442H158.779ZM148.415 39.5102L149.041 38.7301L149.041 38.7305L148.415 39.5102ZM148.399 36.9176L149.062 37.6661L149.061 37.6666L148.399 36.9176ZM147.768 45.8984L147.292 46.7782L147.291 46.7776L147.768 45.8984ZM152.018 45.7784L151.536 44.9026L151.539 44.901L152.018 45.7784ZM152.387 43.6807L151.905 44.5571L151.902 44.5553L152.387 43.6807ZM147.671 43.8207L148.275 44.6182L148.274 44.6187L147.671 43.8207ZM154.243 35.7442V34.7442H155.243V35.7442H154.243ZM154.243 36.4986H155.243V37.3995L154.347 37.4932L154.243 36.4986ZM152.6 36.6704L151.855 37.3383L150.546 35.8796L152.496 35.6758L152.6 36.6704ZM153.003 37.327L152.089 37.7325L152.088 37.7295L153.003 37.327ZM152.289 40.0837L151.679 39.2919L151.68 39.2911L152.289 40.0837ZM149.095 40.7159L148.673 39.8095L148.949 39.6808L149.25 39.7279L149.095 40.7159ZM148.537 42.2055L148.084 43.097L148.079 43.0947L148.537 42.2055ZM153.358 42.899L152.787 43.7199L152.786 43.7197L153.358 42.899ZM152.948 46.4524L152.447 45.5869L152.448 45.5868L152.948 46.4524ZM146.808 46.5651L147.327 45.71L147.328 45.7109L146.808 46.5651ZM146.382 43.703L145.67 43.0006L145.673 42.9983L146.382 43.703ZM147.84 42.9949L148.219 42.0697L151.308 43.3359L148.032 43.9763L147.84 42.9949ZM147.27 42.5709L146.488 43.1947L146.488 43.1944L147.27 42.5709ZM147.297 41.1471L146.515 40.5247L146.519 40.5187L147.297 41.1471ZM148.117 40.5223L148.462 39.5838L150.548 40.3512L148.59 41.4032L148.117 40.5223ZM146.993 39.667L146.183 40.2534L146.18 40.2486L146.993 39.667ZM147.436 36.2977L148.061 37.0779L148.059 37.0797L147.436 36.2977ZM151.173 35.7442V36.7442H151.044L150.919 36.7114L151.173 35.7442ZM137.161 41.9679L137.918 41.3154L137.919 41.3158L137.161 41.9679ZM141.168 41.9701L140.414 41.3139L140.414 41.3137L141.168 41.9701ZM141.168 37.3907L141.919 36.7305L141.92 36.7309L141.168 37.3907ZM137.152 37.3784L137.905 38.0366L137.905 38.037L137.152 37.3784ZM142.153 42.6764L142.857 43.3867L142.855 43.3884L142.153 42.6764ZM137.014 43.2617L136.541 44.1428L136.54 44.142L137.014 43.2617ZM135.589 41.8379L136.467 41.3586L136.469 41.3617L135.589 41.8379ZM136.173 36.6704L136.877 37.3807L136.876 37.3821L136.173 36.6704ZM142.147 36.6945L142.854 35.9867L142.855 35.9874L142.147 36.6945ZM131.358 43.6098H132.358V44.6098H131.358V43.6098ZM130.013 43.6098V44.6098H129.013V43.6098H130.013ZM130.013 32.4358H129.013V31.4358H130.013V32.4358ZM131.358 32.4358V31.4358H132.358V32.4358H131.358ZM120.2 41.9679L119.442 42.6204L119.442 42.6203L120.2 41.9679ZM124.207 41.9701L123.452 41.3143L123.453 41.3132L124.207 41.9701ZM124.207 37.3907L123.456 38.0508L123.456 38.0504L124.207 37.3907ZM120.192 37.3784L120.944 38.0366L120.944 38.037L120.192 37.3784ZM125.192 42.6764L125.895 43.3869L125.894 43.3879L125.192 42.6764ZM120.054 43.2617L119.581 44.1428L119.579 44.142L120.054 43.2617ZM118.629 41.8379L119.506 41.3586L119.508 41.3612L118.629 41.8379ZM119.212 36.6704L119.916 37.3804L119.915 37.3821L119.212 36.6704ZM125.187 36.6945L125.893 35.9869L125.894 35.9874L125.187 36.6945ZM113.144 43.6098V44.6098H112.144V43.6098H113.144ZM112.649 37.0844L111.959 37.8088L111.955 37.805L112.649 37.0844ZM109.059 37.278L108.342 36.5809L108.342 36.5808L109.059 37.278ZM108.409 43.6098H109.409V44.6098H108.409V43.6098ZM107.065 43.6098V44.6098H106.065V43.6098H107.065ZM107.065 35.7442H106.065V34.7442H107.065V35.7442ZM108.157 35.7442V34.7442H108.973L109.137 35.5442L108.157 35.7442ZM108.376 36.8172V37.8172H107.559L107.396 37.0172L108.376 36.8172ZM108.442 36.8172L109.256 37.3983L108.957 37.8172H108.442V36.8172ZM113.678 36.2832L113.034 37.0486L113.03 37.0452L113.678 36.2832ZM114.488 43.6098H115.488V44.6098H114.488V43.6098ZM98.3577 42.7054L97.6529 43.4148L97.6517 43.4137L98.3577 42.7054ZM98.3741 36.6749L97.6658 35.969L97.6663 35.9685L98.3741 36.6749ZM102.714 35.7192L102.898 34.7364L102.9 34.7368L102.714 35.7192ZM103.718 36.0087L104.138 35.1011L105.006 35.5028L104.643 36.3881L103.718 36.0087ZM103.303 37.0208L104.228 37.4001L103.866 38.2825L102.968 37.9629L103.303 37.0208ZM102.332 36.7585L102.524 35.7771L102.53 35.7783L102.332 36.7585ZM99.3533 41.9388L98.5939 42.5894L98.5914 42.5864L99.3533 41.9388ZM103.588 42.2892L103.247 41.3491L104.588 40.8626V42.2892H103.588ZM103.588 43.3476H104.588V43.99L104.003 44.2571L103.588 43.3476ZM88.7985 37.2143L89.4959 37.9311L89.4913 37.9355L88.7985 37.2143ZM88.0491 38.9194V39.9194H86.9409L87.0544 38.817L88.0491 38.9194ZM92.6902 38.9194H93.6902V39.9194H92.6902V38.9194ZM92.1234 37.1948L92.8488 36.5065L92.8489 36.5065L92.1234 37.1948ZM87.7619 42.6932L88.4429 41.9609L88.4449 41.9628L87.7619 42.6932ZM87.6788 36.7167L86.9514 36.0305L86.9516 36.0303L87.6788 36.7167ZM93.1601 36.5699L92.4521 37.2762L92.4516 37.2757L93.1601 36.5699ZM94.1341 39.8901H95.1341V40.8901H94.1341V39.8901ZM88.0163 39.8901L87.0167 39.9196L86.9864 38.8901H88.0163V39.8901ZM88.8042 41.9951L88.1139 42.7187L88.1096 42.7146L88.8042 41.9951ZM93.752 42.181L93.3966 41.2463L94.752 40.7309V42.181H93.752ZM93.752 43.2449H94.752V43.9307L94.1122 44.1777L93.752 43.2449ZM92.403 43.6393L92.592 44.6213L92.5844 44.6227L92.403 43.6393ZM83.9718 42.6273L83.7177 41.6601L84.9718 41.3307V42.6273H83.9718ZM83.9718 43.5412H84.9718V44.2069L84.3576 44.4637L83.9718 43.5412ZM83.3275 43.6957L83.4728 44.6851L83.4725 44.6851L83.3275 43.6957ZM79.9862 36.6704V35.6704H80.9862V36.6704H79.9862ZM78.7141 36.6704V37.6704H77.7141V36.6704H78.7141ZM78.7141 36.0969H77.7141V35.4143L78.3498 35.1656L78.7141 36.0969ZM79.9862 35.5992L80.9335 35.9195L80.7844 36.3608L80.3505 36.5305L79.9862 35.5992ZM80.5535 33.921L79.6062 33.6007L79.836 32.921H80.5535V33.921ZM81.3306 33.921V32.921H82.3306V33.921H81.3306ZM81.3306 35.7442V36.7442H80.3306V35.7442H81.3306ZM83.9082 35.7442V34.7442H84.9082V35.7442H83.9082ZM83.9082 36.6704H84.9082V37.6704H83.9082V36.6704ZM81.3306 36.6704H80.3306V35.6704H81.3306V36.6704ZM81.7122 42.3919L81.0082 43.102L81.005 43.0989L81.7122 42.3919ZM165.423 41.7718C166.104 41.7718 166.504 41.6075 166.745 41.4012L168.044 42.9217C167.334 43.5289 166.417 43.7718 165.423 43.7718V41.7718ZM166.747 41.3998C166.965 41.214 167.114 40.9444 167.114 40.4537H169.114C169.114 41.4281 168.781 42.2954 168.043 42.9231L166.747 41.3998ZM167.114 40.4537V39.7429H169.114V40.4537H167.114ZM168.152 40.7422L166.805 40.794L166.729 38.7954L168.076 38.7436L168.152 40.7422ZM166.797 40.7943C165.761 40.8251 165.193 40.9695 164.94 41.1101L163.97 39.3609C164.662 38.9771 165.637 38.8279 166.737 38.7951L166.797 40.7943ZM164.936 41.1119C164.835 41.1673 164.802 41.2137 164.787 41.2379C164.773 41.2633 164.746 41.3224 164.746 41.4507H162.746C162.746 41.0305 162.838 40.612 163.059 40.2319C163.281 39.8507 163.601 39.5637 163.973 39.3592L164.936 41.1119ZM164.746 41.4507C164.746 41.5531 164.764 41.5983 164.769 41.6098C164.771 41.6158 164.773 41.6184 164.775 41.6199C164.776 41.6216 164.78 41.6269 164.791 41.6352L163.587 43.2322C162.996 42.7861 162.746 42.1348 162.746 41.4507H164.746ZM164.799 41.6412C164.856 41.6847 165.023 41.7718 165.423 41.7718V43.7718C164.767 43.7718 164.109 43.6335 163.58 43.2262L164.799 41.6412ZM167.49 43.8432L167.221 42.7234L169.166 42.2566L169.435 43.3764L167.49 43.8432ZM168.194 43.49H168.127V41.49H168.194V43.49ZM168.871 43.1583C168.367 43.7198 167.807 44.1705 167.177 44.4226L166.434 42.5661C166.685 42.4656 167.004 42.2446 167.383 41.8217L168.871 43.1583ZM167.173 44.4245C166.579 44.6589 165.897 44.7566 165.157 44.7566V42.7566C165.734 42.7566 166.148 42.6788 166.438 42.5642L167.173 44.4245ZM165.157 44.7566C164.131 44.7566 163.194 44.5228 162.46 43.9339L163.712 42.374C163.979 42.5886 164.419 42.7566 165.157 42.7566V44.7566ZM162.455 43.9299C161.689 43.3071 161.336 42.4314 161.336 41.4339H163.336C163.336 41.926 163.488 42.192 163.716 42.378L162.455 43.9299ZM161.336 41.4339C161.336 40.2636 161.901 39.3374 162.909 38.7515C163.841 38.2101 165.116 37.9744 166.61 37.9348L166.663 39.9341C165.292 39.9704 164.416 40.1892 163.914 40.4809C163.489 40.728 163.336 41.0136 163.336 41.4339H161.336ZM166.608 37.9349L168.115 37.8908L168.174 39.8899L166.666 39.934L166.608 37.9349ZM167.144 38.8903V38.4027H169.144V38.8903H167.144ZM167.144 38.4027C167.144 37.9293 167.028 37.7831 166.995 37.75L168.398 36.3251C168.962 36.8801 169.144 37.6455 169.144 38.4027H167.144ZM166.998 37.7536C166.965 37.7211 166.797 37.5968 166.258 37.5968V35.5968C167.035 35.5968 167.825 35.766 168.395 36.3215L166.998 37.7536ZM166.258 37.5968C165.694 37.5968 164.996 37.751 164.141 38.1182L163.352 36.2805C164.368 35.8442 165.34 35.5968 166.258 35.5968V37.5968ZM162.835 37.6107L162.423 36.699L164.246 35.8764L164.658 36.788L162.835 37.6107ZM162.901 35.3869C163.409 35.142 163.958 34.9516 164.545 34.8161L164.995 36.765C164.542 36.8695 164.134 37.0126 163.769 37.1885L162.901 35.3869ZM164.546 34.8159C165.142 34.6791 165.74 34.612 166.338 34.612V36.612C165.891 36.612 165.443 36.662 164.994 36.7652L164.546 34.8159ZM166.338 34.612C167.498 34.612 168.553 34.8346 169.323 35.4608L168.06 37.0119C167.807 36.8056 167.297 36.612 166.338 36.612V34.612ZM169.323 35.4609C170.15 36.1344 170.458 37.1436 170.458 38.2382H168.458C168.458 37.495 168.257 37.1718 168.06 37.0119L169.323 35.4609ZM170.458 38.2382V43.6098H168.458V38.2382H170.458ZM169.458 44.6098H168.462V42.6098H169.458V44.6098ZM156.321 33.6069C156.321 33.1577 156.45 32.6249 156.906 32.2429L158.19 33.7758C158.256 33.721 158.295 33.6563 158.313 33.6082C158.328 33.5675 158.321 33.5594 158.321 33.6069H156.321ZM156.904 32.244C157.262 31.9432 157.689 31.818 158.115 31.818V33.818C158.096 33.818 158.101 33.8206 158.123 33.8134C158.146 33.8055 158.171 33.7917 158.192 33.7746L156.904 32.244ZM158.115 31.818C158.541 31.818 158.963 31.949 159.317 32.2455L158.031 33.7777C158.047 33.791 158.069 33.8036 158.092 33.8116C158.114 33.8191 158.124 33.818 158.115 33.818V31.818ZM159.31 32.2404C159.767 32.6175 159.909 33.145 159.909 33.6069H157.909C157.909 33.5676 157.903 33.5808 157.92 33.6241C157.94 33.6744 157.979 33.7344 158.037 33.7829L159.31 32.2404ZM159.909 33.6069C159.909 34.0665 159.771 34.5992 159.31 34.979L158.037 33.4365C157.976 33.4868 157.938 33.548 157.919 33.5967C157.902 33.6385 157.909 33.6493 157.909 33.6069H159.909ZM159.323 34.9683C158.973 35.2673 158.549 35.4059 158.115 35.4059V33.4059C158.12 33.4059 158.107 33.4053 158.084 33.4136C158.06 33.4221 158.039 33.435 158.025 33.4472L159.323 34.9683ZM158.115 35.4059C157.68 35.4059 157.248 35.2728 156.891 34.9618L158.205 33.4537C158.185 33.4367 158.16 33.4215 158.133 33.4123C158.109 33.4037 158.099 33.4059 158.115 33.4059V35.4059ZM156.898 34.9674C156.45 34.5845 156.321 34.0559 156.321 33.6069H158.321C158.321 33.6526 158.328 33.6458 158.314 33.6077C158.297 33.5629 158.26 33.5012 158.198 33.448L156.898 34.9674ZM158.779 44.6098H157.435V42.6098H158.779V44.6098ZM156.435 43.6098V35.7442H158.435V43.6098H156.435ZM157.435 34.7442H158.779V36.7442H157.435V34.7442ZM159.779 35.7442V43.6098H157.779V35.7442H159.779ZM148.889 38.2605C148.889 38.5856 148.98 38.6817 149.041 38.7301L147.789 40.2904C147.147 39.7752 146.889 39.0378 146.889 38.2605H148.889ZM149.041 38.7305C149.157 38.8235 149.396 38.9342 149.884 38.9342V40.9342C149.114 40.9342 148.375 40.7604 147.789 40.2899L149.041 38.7305ZM149.884 38.9342C150.42 38.9342 150.635 38.8155 150.708 38.7525C150.753 38.7139 150.853 38.6071 150.853 38.2382H152.853C152.853 38.9991 152.625 39.7402 152.014 40.2673C151.431 40.7698 150.661 40.9342 149.884 40.9342V38.9342ZM150.853 38.2382C150.853 37.8324 150.744 37.7031 150.69 37.6548C150.613 37.5866 150.397 37.4645 149.858 37.4645V35.4645C150.65 35.4645 151.431 35.6376 152.019 36.1604C152.629 36.7031 152.853 37.4607 152.853 38.2382H150.853ZM149.858 37.4645C149.376 37.4645 149.159 37.58 149.062 37.6661L147.735 36.1691C148.319 35.6526 149.075 35.4645 149.858 35.4645V37.4645ZM149.061 37.6666C148.998 37.7227 148.889 37.858 148.889 38.2605H146.889C146.889 37.4768 147.118 36.7151 147.736 36.1686L149.061 37.6666ZM148.159 44.9304C148.159 44.9568 148.162 44.9681 148.163 44.9685C148.163 44.969 148.162 44.9678 148.161 44.9656C148.16 44.9634 148.159 44.9612 148.158 44.9595C148.151 44.9474 148.161 44.9741 148.244 45.0192L147.291 46.7776C146.968 46.6023 146.674 46.357 146.464 46.022C146.251 45.6831 146.159 45.3076 146.159 44.9304H148.159ZM148.243 45.0186C148.436 45.1228 148.825 45.227 149.51 45.227V47.227C148.68 47.227 147.907 47.1102 147.292 46.7782L148.243 45.0186ZM149.51 45.227C150.588 45.227 151.219 45.0772 151.536 44.9026L152.501 46.6542C151.735 47.0767 150.689 47.227 149.51 47.227V45.227ZM151.539 44.901C151.842 44.7353 151.835 44.6254 151.835 44.5655H153.835C153.835 45.5245 153.281 46.228 152.498 46.6558L151.539 44.901ZM151.835 44.5655C151.835 44.4653 151.817 44.4493 151.83 44.4765C151.838 44.4907 151.85 44.5091 151.867 44.5267C151.884 44.5442 151.899 44.5537 151.905 44.5571L152.868 42.8043C153.571 43.1902 153.835 43.8814 153.835 44.5655H151.835ZM151.902 44.5553C151.906 44.5575 151.828 44.5186 151.6 44.4848C151.385 44.453 151.092 44.4335 150.71 44.4335V42.4335C151.151 42.4335 151.548 42.4555 151.892 42.5063C152.222 42.5551 152.572 42.6398 152.872 42.8061L151.902 44.5553ZM150.71 44.4335H149.098V42.4335H150.71V44.4335ZM149.098 44.4335C148.615 44.4335 148.381 44.5375 148.275 44.6182L147.068 43.0231C147.642 42.5893 148.358 42.4335 149.098 42.4335V44.4335ZM148.274 44.6187C148.217 44.6613 148.159 44.7163 148.159 44.9304H146.159C146.159 44.1793 146.444 43.4945 147.069 43.0227L148.274 44.6187ZM155.243 35.7442V36.4986H153.243V35.7442H155.243ZM154.347 37.4932L152.704 37.665L152.496 35.6758L154.139 35.504L154.347 37.4932ZM153.344 36.0025C153.582 36.2678 153.77 36.5864 153.919 36.9246L152.088 37.7295C152 37.5287 151.916 37.4056 151.855 37.3383L153.344 36.0025ZM153.917 36.9216C154.103 37.3408 154.18 37.7868 154.18 38.2409H152.18C152.18 38.0134 152.142 37.8522 152.089 37.7325L153.917 36.9216ZM154.18 38.2409C154.18 39.309 153.75 40.2219 152.899 40.8764L151.68 39.2911C152.02 39.0294 152.18 38.7117 152.18 38.2409H154.18ZM152.9 40.8756C152.076 41.5114 151.018 41.7722 149.842 41.7722V39.7722C150.74 39.7722 151.315 39.5723 151.679 39.2919L152.9 40.8756ZM149.842 41.7722C149.526 41.7722 149.229 41.7489 148.941 41.7039L149.25 39.7279C149.432 39.7564 149.626 39.7722 149.842 39.7722V41.7722ZM149.518 41.6223C149.311 41.7184 149.234 41.7932 149.216 41.815C149.209 41.8227 149.217 41.8156 149.225 41.7932C149.234 41.7697 149.238 41.7457 149.238 41.7279H147.238C147.238 40.7429 147.96 40.1414 148.673 39.8095L149.518 41.6223ZM149.238 41.7279C149.238 41.6775 149.225 41.5817 149.161 41.4797C149.098 41.3794 149.024 41.3317 148.994 41.3164L148.079 43.0947C147.85 42.9766 147.626 42.7978 147.464 42.5383C147.301 42.277 147.238 41.9938 147.238 41.7279H149.238ZM148.99 41.3141C148.959 41.2983 148.979 41.315 149.094 41.3324C149.202 41.3486 149.357 41.3601 149.569 41.3601V43.3601C149.064 43.3601 148.512 43.3149 148.084 43.097L148.99 41.3141ZM149.569 41.3601H151.139V43.3601H149.569V41.3601ZM151.139 41.3601C152.204 41.3601 153.176 41.5541 153.929 42.0784L152.786 43.7197C152.504 43.5232 151.999 43.3601 151.139 43.3601V41.3601ZM153.929 42.0782C154.74 42.6425 155.129 43.4877 155.129 44.4623H153.129C153.129 44.07 153.004 43.8708 152.787 43.7199L153.929 42.0782ZM155.129 44.4623C155.129 45.7069 154.53 46.6925 153.449 47.3179L152.448 45.5868C152.942 45.3006 153.129 44.9574 153.129 44.4623H155.129ZM153.449 47.3179C152.436 47.9043 151.08 48.1381 149.493 48.1381V46.1381C150.934 46.1381 151.878 45.9166 152.447 45.5869L153.449 47.3179ZM149.493 48.1381C148.246 48.1381 147.139 47.9372 146.288 47.4192L147.328 45.7109C147.733 45.9573 148.418 46.1381 149.493 46.1381V48.1381ZM146.289 47.4201C145.38 46.8685 144.862 46.0139 144.862 44.9454H146.862C146.862 45.2684 146.974 45.4963 147.327 45.71L146.289 47.4201ZM144.862 44.9454C144.862 44.1935 145.148 43.5302 145.67 43.0006L147.094 44.4053C146.925 44.5765 146.862 44.7412 146.862 44.9454H144.862ZM145.673 42.9983C146.195 42.4727 146.882 42.1633 147.648 42.0135L148.032 43.9763C147.547 44.0711 147.261 44.237 147.092 44.4076L145.673 42.9983ZM147.461 43.9202C147.083 43.7653 146.751 43.5245 146.488 43.1947L148.051 41.9471C148.093 41.999 148.143 42.0382 148.219 42.0697L147.461 43.9202ZM146.488 43.1944C146.191 42.8217 146.037 42.3782 146.037 41.902H148.037C148.037 41.9133 148.038 41.9205 148.039 41.9242C148.039 41.9278 148.04 41.9294 148.04 41.9299C148.04 41.9303 148.041 41.9313 148.042 41.9335C148.043 41.9356 148.046 41.9403 148.051 41.9474L146.488 43.1944ZM146.037 41.902C146.037 41.389 146.201 40.919 146.515 40.5247L148.08 41.7696C148.051 41.8061 148.037 41.836 148.037 41.902H146.037ZM146.519 40.5187C146.808 40.1615 147.204 39.8773 147.643 39.6413L148.59 41.4032C148.281 41.569 148.135 41.7011 148.075 41.7756L146.519 40.5187ZM147.771 41.4608C147.122 41.2219 146.588 40.8131 146.183 40.2534L147.803 39.0806C147.98 39.3244 148.192 39.4846 148.462 39.5838L147.771 41.4608ZM146.18 40.2486C145.767 39.6718 145.559 39.0063 145.559 38.2873H147.559C147.559 38.6026 147.645 38.8587 147.807 39.0854L146.18 40.2486ZM145.559 38.2873C145.559 37.1749 145.953 36.201 146.812 35.5158L148.059 37.0797C147.751 37.3252 147.559 37.6801 147.559 38.2873H145.559ZM146.81 35.5176C147.635 34.8566 148.716 34.597 149.917 34.597V36.597C148.977 36.597 148.405 36.8027 148.061 37.0779L146.81 35.5176ZM149.917 34.597C150.451 34.597 150.955 34.6533 151.427 34.777L150.919 36.7114C150.642 36.6388 150.312 36.597 149.917 36.597V34.597ZM151.173 34.7442H154.243V36.7442H151.173V34.7442ZM137.48 39.6693C137.48 40.5392 137.678 41.0363 137.918 41.3154L136.403 42.6203C135.736 41.8461 135.48 40.8089 135.48 39.6693H137.48ZM137.919 41.3158C138.133 41.5644 138.486 41.7568 139.163 41.7568V43.7568C138.075 43.7568 137.096 43.4257 136.402 42.62L137.919 41.3158ZM139.163 41.7568C139.837 41.7568 140.196 41.5645 140.414 41.3139L141.923 42.6264C141.228 43.4256 140.249 43.7568 139.163 43.7568V41.7568ZM140.414 41.3137C140.653 41.0394 140.851 40.5459 140.851 39.6693H142.851C142.851 40.8122 142.596 41.8529 141.923 42.6266L140.414 41.3137ZM140.851 39.6693C140.851 38.8053 140.654 38.3202 140.417 38.0504L141.92 36.7309C142.595 37.5 142.851 38.5346 142.851 39.6693H140.851ZM140.417 38.0508C140.202 37.8061 139.838 37.6113 139.146 37.6113V35.6113C140.236 35.6113 141.221 35.9364 141.919 36.7305L140.417 38.0508ZM139.146 37.6113C138.46 37.6113 138.11 37.8024 137.905 38.0366L136.4 36.7202C137.09 35.93 138.067 35.6113 139.146 35.6113V37.6113ZM137.905 38.037C137.679 38.2954 137.48 38.7815 137.48 39.6693H135.48C135.48 38.5284 135.729 37.4857 136.4 36.7198L137.905 38.037ZM144.246 39.6693C144.246 41.1499 143.819 42.4338 142.857 43.3867L141.449 41.966C141.942 41.4775 142.246 40.7572 142.246 39.6693H144.246ZM142.855 43.3884C141.893 44.3371 140.609 44.7566 139.13 44.7566V42.7566C140.223 42.7566 140.952 42.4562 141.451 41.9643L142.855 43.3884ZM139.13 44.7566C138.195 44.7566 137.323 44.5622 136.541 44.1428L137.487 42.3805C137.938 42.6228 138.477 42.7566 139.13 42.7566V44.7566ZM136.54 44.142C135.753 43.7183 135.137 43.1021 134.71 42.3141L136.469 41.3617C136.711 41.8089 137.047 42.1434 137.488 42.3813L136.54 44.142ZM134.712 42.3172C134.281 41.5275 134.086 40.6335 134.086 39.6693H136.086C136.086 40.362 136.224 40.914 136.467 41.3586L134.712 42.3172ZM134.086 39.6693C134.086 38.1914 134.509 36.9078 135.471 35.9586L136.876 37.3821C136.388 37.8635 136.086 38.5795 136.086 39.6693H134.086ZM135.469 35.9601C136.425 35.0126 137.712 34.597 139.185 34.597V36.597C138.092 36.597 137.366 36.8966 136.877 37.3807L135.469 35.9601ZM139.185 34.597C140.638 34.597 141.897 35.0312 142.854 35.9867L141.441 37.4022C140.931 36.8935 140.221 36.597 139.185 36.597V34.597ZM142.855 35.9874C143.813 36.9461 144.246 38.2142 144.246 39.6693H142.246C142.246 38.6258 141.948 37.9088 141.44 37.4016L142.855 35.9874ZM131.358 44.6098H130.013V42.6098H131.358V44.6098ZM129.013 43.6098V32.4358H131.013V43.6098H129.013ZM130.013 31.4358H131.358V33.4358H130.013V31.4358ZM132.358 32.4358V43.6098H130.358V32.4358H132.358ZM120.52 39.6693C120.52 40.5397 120.717 41.0365 120.958 41.3154L119.442 42.6203C118.775 41.8458 118.52 40.8084 118.52 39.6693H120.52ZM120.957 41.3153C121.172 41.5645 121.526 41.7568 122.202 41.7568V43.7568C121.115 43.7568 120.135 43.4256 119.442 42.6204L120.957 41.3153ZM122.202 41.7568C122.876 41.7568 123.235 41.5643 123.452 41.3143L124.962 42.626C124.267 43.4258 123.287 43.7568 122.202 43.7568V41.7568ZM123.453 41.3132C123.692 41.0394 123.891 40.5465 123.891 39.6693H125.891C125.891 40.8116 125.636 41.8529 124.961 42.627L123.453 41.3132ZM123.891 39.6693C123.891 38.8048 123.693 38.3203 123.456 38.0508L124.958 36.7305C125.635 37.5 125.891 38.5351 125.891 39.6693H123.891ZM123.456 38.0504C123.242 37.8063 122.877 37.6113 122.186 37.6113V35.6113C123.274 35.6113 124.261 35.9362 124.959 36.7309L123.456 38.0504ZM122.186 37.6113C121.499 37.6113 121.149 37.8025 120.944 38.0366L119.439 36.7202C120.13 35.93 121.107 35.6113 122.186 35.6113V37.6113ZM120.944 38.037C120.718 38.2952 120.52 38.7809 120.52 39.6693H118.52C118.52 38.529 118.768 37.486 119.439 36.7198L120.944 38.037ZM127.284 39.6693C127.284 41.1495 126.858 42.4337 125.895 43.3869L124.488 41.9658C124.981 41.4775 125.284 40.7575 125.284 39.6693H127.284ZM125.894 43.3879C124.933 44.3372 123.648 44.7566 122.169 44.7566V42.7566C123.263 42.7566 123.992 42.4561 124.489 41.9648L125.894 43.3879ZM122.169 44.7566C121.234 44.7566 120.362 44.5622 119.581 44.1428L120.526 42.3805C120.978 42.6228 121.517 42.7566 122.169 42.7566V44.7566ZM119.579 44.142C118.793 43.7183 118.177 43.1022 117.75 42.3146L119.508 41.3612C119.75 41.8088 120.086 42.1434 120.528 42.3813L119.579 44.142ZM117.751 42.3172C117.32 41.5271 117.125 40.633 117.125 39.6693H119.125C119.125 40.3625 119.264 40.9144 119.506 41.3586L117.751 42.3172ZM117.125 39.6693C117.125 38.1918 117.548 36.908 118.51 35.9586L119.915 37.3821C119.427 37.8633 119.125 38.5791 119.125 39.6693H117.125ZM118.508 35.9603C119.464 35.0125 120.751 34.597 122.224 34.597V36.597C121.131 36.597 120.404 36.8968 119.916 37.3804L118.508 35.9603ZM122.224 34.597C123.678 34.597 124.936 35.0311 125.893 35.9869L124.48 37.402C123.971 36.8936 123.261 36.597 122.224 36.597V34.597ZM125.894 35.9874C126.853 36.9463 127.284 38.2145 127.284 39.6693H125.284C125.284 38.6254 124.986 37.9086 124.479 37.4016L125.894 35.9874ZM112.144 43.6098V38.5204H114.144V43.6098H112.144ZM112.144 38.5204C112.144 38.0354 112.022 37.8687 111.959 37.8088L113.338 36.36C113.94 36.9327 114.144 37.7212 114.144 38.5204H112.144ZM111.955 37.805C111.893 37.7452 111.683 37.6113 111.1 37.6113V35.6113C111.923 35.6113 112.747 35.7909 113.342 36.3637L111.955 37.805ZM111.1 37.6113C110.308 37.6113 109.943 37.8034 109.776 37.9752L108.342 36.5808C109.037 35.8655 110.034 35.6113 111.1 35.6113V37.6113ZM109.776 37.9751C109.611 38.1443 109.409 38.559 109.409 39.4834H107.409C107.409 38.3592 107.639 37.3033 108.342 36.5809L109.776 37.9751ZM109.409 39.4834V43.6098H107.409V39.4834H109.409ZM108.409 44.6098H107.065V42.6098H108.409V44.6098ZM106.065 43.6098V35.7442H108.065V43.6098H106.065ZM107.065 34.7442H108.157V36.7442H107.065V34.7442ZM109.137 35.5442L109.356 36.6171L107.396 37.0172L107.177 35.9442L109.137 35.5442ZM108.376 35.8172H108.442V37.8172H108.376V35.8172ZM107.628 36.236C108.023 35.6829 108.561 35.2728 109.207 34.9962L109.994 36.8349C109.645 36.9845 109.414 37.177 109.256 37.3983L107.628 36.236ZM109.207 34.9962C109.846 34.723 110.536 34.597 111.263 34.597V36.597C110.769 36.597 110.352 36.6818 109.994 36.8349L109.207 34.9962ZM111.263 34.597C112.453 34.597 113.532 34.8467 114.325 35.5212L113.03 37.0452C112.745 36.8026 112.215 36.597 111.263 36.597V34.597ZM114.321 35.5177C115.174 36.2347 115.488 37.3084 115.488 38.4759H113.488C113.488 37.6347 113.266 37.2433 113.034 37.0486L114.321 35.5177ZM115.488 38.4759V43.6098H113.488V38.4759H115.488ZM114.488 44.6098H113.144V42.6098H114.488V44.6098ZM101.345 44.7566C99.8753 44.7566 98.596 44.3518 97.6529 43.4148L99.0625 41.9961C99.53 42.4605 100.242 42.7566 101.345 42.7566V44.7566ZM97.6517 43.4137C96.7078 42.4728 96.301 41.1949 96.301 39.7284H98.301C98.301 40.8249 98.597 41.532 99.0637 41.9972L97.6517 43.4137ZM96.301 39.7284C96.301 38.2283 96.7116 36.9264 97.6658 35.969L99.0824 37.3808C98.6045 37.8604 98.301 38.5917 98.301 39.7284H96.301ZM97.6663 35.9685C98.622 35.0108 99.926 34.597 101.433 34.597V36.597C100.291 36.597 99.5593 36.9029 99.0819 37.3813L97.6663 35.9685ZM101.433 34.597C101.925 34.597 102.413 34.6453 102.898 34.7364L102.529 36.7021C102.157 36.6322 101.793 36.597 101.433 36.597V34.597ZM102.9 34.7368C103.362 34.8244 103.787 34.939 104.138 35.1011L103.298 36.9163C103.161 36.853 102.917 36.7758 102.527 36.7016L102.9 34.7368ZM104.643 36.3881L104.228 37.4001L102.378 36.6414L102.793 35.6293L104.643 36.3881ZM102.968 37.9629C102.725 37.8767 102.449 37.8024 102.134 37.7388L102.53 35.7783C102.917 35.8565 103.288 35.954 103.638 36.0786L102.968 37.9629ZM102.14 37.74C101.833 37.68 101.59 37.6558 101.4 37.6558V35.6558C101.752 35.6558 102.128 35.6998 102.524 35.7771L102.14 37.74ZM101.4 37.6558C100.686 37.6558 100.325 37.8519 100.12 38.0827C99.8954 38.337 99.6952 38.8201 99.6952 39.7138H97.6952C97.6952 38.5684 97.9456 37.5225 98.6223 36.7576C99.3197 35.9692 100.311 35.6558 101.4 35.6558V37.6558ZM99.6952 39.7138C99.6952 40.5422 99.8838 41.0189 100.115 41.2911L98.5914 42.5864C97.9436 41.8244 97.6952 40.8159 97.6952 39.7138H99.6952ZM100.113 41.2882C100.317 41.5261 100.653 41.7132 101.312 41.7132V43.7132C100.238 43.7132 99.2754 43.3849 98.5939 42.5894L100.113 41.2882ZM101.312 41.7132C101.92 41.7132 102.566 41.5961 103.247 41.3491L103.929 43.2292C103.056 43.5457 102.18 43.7132 101.312 43.7132V41.7132ZM104.588 42.2892V43.3476H102.588V42.2892H104.588ZM104.003 44.2571C103.24 44.6061 102.34 44.7566 101.345 44.7566V42.7566C102.152 42.7566 102.746 42.6326 103.172 42.4381L104.003 44.2571ZM90.502 37.5968C89.9923 37.5968 89.695 37.7373 89.4959 37.9311L88.1012 36.4976C88.7484 35.8679 89.5857 35.5968 90.502 35.5968V37.5968ZM89.4913 37.9355C89.2753 38.143 89.1007 38.4697 89.0439 39.0218L87.0544 38.817C87.1473 37.9141 87.4703 37.1037 88.1057 36.4932L89.4913 37.9355ZM88.0491 37.9194H92.6902V39.9194H88.0491V37.9194ZM91.6902 38.9194C91.6902 38.3295 91.5434 38.0364 91.398 37.8831L92.8489 36.5065C93.4605 37.1513 93.6902 38.0106 93.6902 38.9194H91.6902ZM91.398 37.8832C91.257 37.7346 91.0118 37.5968 90.502 37.5968V35.5968C91.3987 35.5968 92.2317 35.8561 92.8488 36.5065L91.398 37.8832ZM90.8672 44.7566C89.3699 44.7566 88.0664 44.3471 87.0788 43.4235L88.4449 41.9628C88.9716 42.4553 89.7382 42.7566 90.8672 42.7566V44.7566ZM87.0808 43.4254C86.0729 42.4879 85.6221 41.2129 85.6221 39.7406H87.6221C87.6221 40.7878 87.9284 41.4823 88.4429 41.9609L87.0808 43.4254ZM85.6221 39.7406C85.6221 38.2798 86.0318 37.0052 86.9514 36.0305L88.4061 37.403C87.9152 37.9233 87.6221 38.6629 87.6221 39.7406H85.6221ZM86.9516 36.0303C87.8761 35.0509 89.1017 34.597 90.5189 34.597V36.597C89.5571 36.597 88.892 36.8883 88.4059 37.4032L86.9516 36.0303ZM90.5189 34.597C91.8346 34.597 92.9937 34.986 93.8685 35.8642L92.4516 37.2757C92.0317 36.8542 91.4274 36.597 90.5189 36.597V34.597ZM93.8681 35.8637C94.7306 36.7284 95.1341 37.8527 95.1341 39.1353H93.1341C93.1341 38.2965 92.8842 37.7093 92.4521 37.2762L93.8681 35.8637ZM95.1341 39.1353V39.8901H93.1341V39.1353H95.1341ZM94.1341 40.8901H88.0163V38.8901H94.1341V40.8901ZM89.0159 39.8607C89.038 40.6125 89.2443 41.03 89.4987 41.2757L88.1096 42.7146C87.3679 41.9986 87.049 41.0147 87.0167 39.9196L89.0159 39.8607ZM89.4945 41.2716C89.7578 41.5229 90.1837 41.7132 90.917 41.7132V43.7132C89.8313 43.7132 88.8518 43.4227 88.1139 42.7187L89.4945 41.2716ZM90.917 41.7132C91.7452 41.7132 92.5708 41.5603 93.3966 41.2463L94.1074 43.1157C93.064 43.5125 91.9979 43.7132 90.917 43.7132V41.7132ZM94.752 42.181V43.2449H92.752V42.181H94.752ZM94.1122 44.1777C93.5863 44.3808 93.0781 44.5277 92.592 44.6213L92.214 42.6574C92.5731 42.5882 92.9667 42.4761 93.3918 42.312L94.1122 44.1777ZM92.5844 44.6227C92.0827 44.7153 91.5064 44.7566 90.8672 44.7566V42.7566C91.4283 42.7566 91.8758 42.7197 92.2215 42.6559L92.5844 44.6227ZM82.7576 41.7718C82.9539 41.7718 83.1357 41.7594 83.3041 41.7352L83.5889 43.7148C83.3152 43.7542 83.0374 43.7718 82.7576 43.7718V41.7718ZM83.3041 41.7352C83.5131 41.7051 83.6432 41.6796 83.7177 41.6601L84.2258 43.5945C84.0407 43.6431 83.8221 43.6812 83.5889 43.7148L83.3041 41.7352ZM84.9718 42.6273V43.5412H82.9718V42.6273H84.9718ZM84.3576 44.4637C84.0962 44.573 83.7867 44.639 83.4728 44.6851L83.1822 42.7063C83.4376 42.6688 83.5539 42.632 83.5859 42.6186L84.3576 44.4637ZM83.4725 44.6851C83.1501 44.7324 82.8437 44.7566 82.5612 44.7566V42.7566C82.7321 42.7566 82.9406 42.7417 83.1825 42.7063L83.4725 44.6851ZM82.5612 44.7566C81.5649 44.7566 80.6314 44.5256 79.947 43.8861C79.2497 43.2346 78.9862 42.3249 78.9862 41.3507H80.9862C80.9862 41.9812 81.1515 42.2744 81.3124 42.4247C81.4861 42.587 81.8401 42.7566 82.5612 42.7566V44.7566ZM78.9862 41.3507V36.6704H80.9862V41.3507H78.9862ZM79.9862 37.6704H78.7141V35.6704H79.9862V37.6704ZM77.7141 36.6704V36.0969H79.7141V36.6704H77.7141ZM78.3498 35.1656L79.6219 34.668L80.3505 36.5305L79.0784 37.0281L78.3498 35.1656ZM79.0389 35.279L79.6062 33.6007L81.5009 34.2412L80.9335 35.9195L79.0389 35.279ZM80.5535 32.921H81.3306V34.921H80.5535V32.921ZM82.3306 33.921V35.7442H80.3306V33.921H82.3306ZM81.3306 34.7442H83.9082V36.7442H81.3306V34.7442ZM84.9082 35.7442V36.6704H82.9082V35.7442H84.9082ZM83.9082 37.6704H81.3306V35.6704H83.9082V37.6704ZM82.3306 36.6704V41.2989H80.3306V36.6704H82.3306ZM82.3306 41.2989C82.3306 41.5961 82.4061 41.6715 82.4195 41.6849L81.005 43.0989C80.5095 42.6032 80.3306 41.9525 80.3306 41.2989H82.3306ZM82.4163 41.6817C82.4432 41.7084 82.5166 41.7718 82.7576 41.7718V43.7718C82.1144 43.7718 81.4901 43.5798 81.0082 43.102L82.4163 41.6817Z" fill="#FAFAFA" mask="url(#path-18-inside-15)"/>
</g>
</g>
</g>
</g>
</g>
</g>
</svg>
