<svg width="122" height="37" viewBox="0 0 122 37" fill="none" xmlns="http://www.w3.org/2000/svg">
<path fill-rule="evenodd" clip-rule="evenodd" d="M73.7217 12.2595H79.828C79.7448 11.2053 79.4967 10.4192 79.0862 9.89898C78.4928 9.1418 77.7319 8.76489 76.8131 8.76489C75.983 8.76489 75.2755 9.08004 74.6888 9.71069C74.1035 10.3403 73.781 11.1905 73.7217 12.2595ZM79.8151 15.5933L81.7252 15.8571C81.4068 17.154 80.8303 18.1347 79.998 18.7955C79.1635 19.4557 78.1332 19.7856 76.8996 19.7856C75.3517 19.7856 74.0965 19.2496 73.1387 18.1763C72.1783 17.1036 71.699 15.5554 71.699 13.5298C71.699 11.4311 72.1816 9.8285 73.1486 8.72495C74.1171 7.62139 75.3414 7.06962 76.8249 7.06962C78.2403 7.06962 79.4216 7.613 80.3683 8.69642C81.3148 9.78017 81.7885 11.3502 81.7885 13.406L81.7756 13.9561H73.6091C73.6838 15.3218 74.0321 16.3532 74.652 17.0486C75.27 17.7437 76.025 18.0904 76.9136 18.0904C78.3032 18.0904 79.271 17.259 79.8151 15.5933Z" fill="#FAFAFA"/>
<path fill-rule="evenodd" clip-rule="evenodd" d="M89.3887 13.4964C89.3887 15.0712 89.6769 16.2294 90.2545 16.9722C90.831 17.7186 91.5282 18.0905 92.3483 18.0905C93.1316 18.0905 93.8222 17.7069 94.4145 16.9346C95.0083 16.163 95.3057 14.9701 95.3057 13.3591C95.3057 11.7699 95.0186 10.5945 94.4399 9.83131C93.8635 9.06708 93.1626 8.68513 92.3354 8.68513C91.5911 8.68513 90.9142 9.09695 90.3053 9.91622C89.6942 10.7382 89.3887 11.9317 89.3887 13.4964ZM87.7031 24.1748V7.34496H89.4115V8.92544C89.8304 8.26794 90.2946 7.79638 90.8052 7.50505C91.3136 7.21507 91.9003 7.06974 92.5611 7.06974C93.4232 7.06974 94.1984 7.30367 94.8942 7.76886C95.5895 8.23438 96.1461 8.94289 96.5687 9.89407C96.9905 10.8449 97.2037 11.9897 97.2037 13.3239C97.2037 15.3947 96.7259 16.99 95.7762 18.1083C94.8253 19.2279 93.7088 19.7861 92.4275 19.7861C91.8595 19.7861 91.3264 19.6522 90.8317 19.3864C90.3388 19.1182 89.9114 18.7409 89.5492 18.2513V24.1748H87.7031Z" fill="#FAFAFA"/>
<path fill-rule="evenodd" clip-rule="evenodd" d="M107.19 17.6667L107.442 19.4895C106.929 19.611 106.47 19.6721 106.058 19.6721C105.413 19.6721 104.895 19.555 104.5 19.3221C104.107 19.0898 103.836 18.7703 103.691 18.3669C103.544 17.9611 103.472 17.1549 103.472 15.9486V8.94873H102.113V7.34509H103.472V4.33079L105.318 3.09366V7.34509H107.19V8.94873H105.318V16.0628C105.318 16.7209 105.371 17.1431 105.48 17.3358C105.64 17.61 105.936 17.7466 106.373 17.7466C106.582 17.7466 106.854 17.7204 107.19 17.6667Z" fill="#FAFAFA"/>
<path fill-rule="evenodd" clip-rule="evenodd" d="M119.539 13.406C118.86 13.7107 117.85 13.9705 116.51 14.185C115.729 14.3068 115.186 14.4458 114.876 14.6012C114.566 14.7599 114.326 14.9801 114.155 15.2664C113.983 15.553 113.896 15.8833 113.896 16.2572C113.896 16.8371 114.093 17.302 114.487 17.65C114.881 17.9981 115.425 18.1713 116.121 18.1713C116.783 18.1713 117.383 18.0139 117.924 17.7014C118.464 17.3882 118.868 16.97 119.137 16.4465C119.404 15.9232 119.539 15.1623 119.539 14.1615V13.406ZM119.689 18.0102C119.068 18.5989 118.423 19.0412 117.755 19.3399C117.084 19.6393 116.389 19.7856 115.667 19.7856C114.528 19.7856 113.62 19.4732 112.941 18.8482C112.263 18.2206 111.924 17.3765 111.924 16.3149C111.924 15.6131 112.083 14.9898 112.4 14.4474C112.719 13.9051 113.155 13.4805 113.707 13.1757C114.26 12.871 115.099 12.6448 116.221 12.4994C117.729 12.2984 118.834 12.0564 119.539 11.7778L119.55 11.2506C119.55 10.4192 119.389 9.83454 119.061 9.49858C118.599 9.0099 117.89 8.76489 116.937 8.76489C116.075 8.76489 115.43 8.92901 115.002 9.25457C114.575 9.58047 114.26 10.1923 114.059 11.0918L112.236 10.8166C112.497 9.51032 113.023 8.55881 113.815 7.96307C114.606 7.36799 115.738 7.06962 117.213 7.06962C118.362 7.06962 119.262 7.2663 119.915 7.65899C120.568 8.05235 120.981 8.53968 121.153 9.11998C121.325 9.70029 121.41 10.5484 121.41 11.6634V14.4129C121.41 16.337 121.45 17.551 121.529 18.0504C121.611 18.5505 121.767 19.0382 122 19.5114H120.066C119.873 19.0909 119.748 18.5918 119.689 18.0102Z" fill="#FAFAFA"/>
<path fill-rule="evenodd" clip-rule="evenodd" d="M69.3374 13.0603C69.3374 13.4566 68.9836 13.7778 68.5481 13.7778C68.1119 13.7778 67.7585 13.4566 67.7585 13.0603C67.7585 12.6619 68.1119 12.3403 68.5481 12.3403C68.9836 12.3403 69.3374 12.6619 69.3374 13.0603Z" fill="#FAFAFA"/>
<path fill-rule="evenodd" clip-rule="evenodd" d="M85.1815 13.0603C85.1815 13.4556 84.8288 13.7778 84.3934 13.7778C83.959 13.7778 83.6045 13.4556 83.6045 13.0603C83.6045 12.6619 83.959 12.3403 84.3934 12.3403C84.8288 12.3403 85.1815 12.6619 85.1815 13.0603Z" fill="#FAFAFA"/>
<path fill-rule="evenodd" clip-rule="evenodd" d="M100.829 13.0603C100.829 13.4556 100.477 13.7778 100.041 13.7778C99.604 13.7778 99.2517 13.4556 99.2517 13.0603C99.2517 12.6619 99.604 12.3403 100.041 12.3403C100.477 12.3403 100.829 12.6619 100.829 13.0603Z" fill="#FAFAFA"/>
<path fill-rule="evenodd" clip-rule="evenodd" d="M110.863 13.0603C110.863 13.4566 110.509 13.7778 110.074 13.7778C109.64 13.7778 109.287 13.4566 109.287 13.0603C109.287 12.6619 109.64 12.3403 110.074 12.3403C110.509 12.3403 110.863 12.6619 110.863 13.0603Z" fill="#FAFAFA"/>
<path fill-rule="evenodd" clip-rule="evenodd" d="M56.9741 19.5115V2.71653H58.8206V8.7421C59.2575 8.18462 59.7497 7.76609 60.2996 7.48785C60.8474 7.20894 61.4526 7.06966 62.1129 7.06966C63.278 7.06966 64.1983 7.40831 64.8701 8.08393C65.547 8.75989 65.8839 9.99904 65.8839 11.8V19.5115H64.0363V11.8C64.0363 10.7472 63.8328 9.99166 63.4212 9.53251C63.0097 9.07505 62.4446 8.84481 61.7242 8.84481C60.921 8.84481 60.2348 9.13983 59.6691 9.72785C59.1055 10.3149 58.8206 11.3577 58.8206 12.8549V19.5115H56.9741Z" fill="#FAFAFA"/>
<path fill-rule="evenodd" clip-rule="evenodd" d="M2.61211 30.4359H39.8505L48.4566 4.74606H11.3249L2.61211 30.4359ZM41.278 32.1919H0L9.90695 2.98937H51.0595L41.278 32.1919Z" fill="#FAFAFA"/>
<path fill-rule="evenodd" clip-rule="evenodd" d="M38.9828 13.5239L24.4222 14.8315L22.988 1.55871L37.5483 0.25109L38.9828 13.5239Z" fill="#FAFAFA"/>
<path fill-rule="evenodd" clip-rule="evenodd" d="M24.4218 14.8318L21.3113 3.86809H23.2402L22.9884 1.55794L24.4218 14.8318Z" fill="#FAFAFA"/>
<path fill-rule="evenodd" clip-rule="evenodd" d="M27.1506 31.6799H30.0351L31.0357 24.7555L27.1506 31.6799Z" fill="#FAFAFA"/>
<path fill-rule="evenodd" clip-rule="evenodd" d="M25.2382 37L11.8088 31.7145L17.6058 19.469L31.036 24.7559L25.2382 37Z" fill="#FAFAFA"/>
<path fill-rule="evenodd" clip-rule="evenodd" d="M118.715 31.84C119.317 31.84 119.789 31.6896 120.13 31.3892C120.474 31.0888 120.647 30.6689 120.647 30.1279V29.603L119.68 29.6412C118.914 29.6647 118.36 29.7732 118.02 29.9668C117.681 30.1588 117.512 30.4592 117.512 30.8643C117.512 31.1828 117.618 31.4255 117.83 31.5903C118.04 31.7567 118.336 31.84 118.715 31.84ZM120.897 32.4589L120.704 31.6319H120.656C120.339 31.9954 120.023 32.2434 119.708 32.3736C119.39 32.5025 118.997 32.5673 118.524 32.5673C117.892 32.5673 117.397 32.4189 117.038 32.1222C116.681 31.8235 116.5 31.402 116.5 30.8519C116.5 29.6772 117.53 29.0619 119.586 29.0059L120.668 28.9733V28.6132C120.668 28.1588 120.561 27.8221 120.347 27.605C120.13 27.3878 119.787 27.2794 119.315 27.2794C118.783 27.2794 118.184 27.4278 117.512 27.7245L117.217 27.0512C117.53 26.8958 117.874 26.7726 118.247 26.684C118.622 26.5954 118.997 26.5521 119.372 26.5521C120.132 26.5521 120.694 26.7058 121.061 27.0133C121.428 27.321 121.611 27.8131 121.611 28.4917V32.4589H120.897ZM112.901 25.0713C112.901 24.8706 112.955 24.7239 113.064 24.63C113.173 24.5356 113.308 24.4887 113.471 24.4887C113.626 24.4887 113.761 24.5356 113.872 24.6316C113.985 24.7276 114.04 24.8743 114.04 25.0713C114.04 25.2707 113.985 25.419 113.872 25.515C113.761 25.6127 113.626 25.6613 113.471 25.6613C113.308 25.6613 113.173 25.6127 113.064 25.515C112.955 25.419 112.901 25.2707 112.901 25.0713ZM113.947 32.4589H112.983V26.6498H113.947V32.4589ZM106.132 28.5082C106.132 28.9153 106.258 29.2231 106.51 29.4311C106.761 29.6392 107.113 29.7443 107.564 29.7443C108.507 29.7443 108.977 29.3261 108.977 28.4917C108.977 27.6177 108.5 27.1817 107.546 27.1817C107.091 27.1817 106.742 27.2938 106.498 27.5164C106.253 27.7389 106.132 28.0702 106.132 28.5082ZM105.609 33.4342C105.609 33.7473 105.753 33.9863 106.045 34.1491C106.335 34.3102 106.752 34.3918 107.296 34.3918C108.105 34.3918 108.707 34.281 109.096 34.0605C109.485 33.8413 109.681 33.5409 109.681 33.1647C109.681 32.8499 109.574 32.6324 109.36 32.5112C109.148 32.3901 108.747 32.3286 108.157 32.3286H107C106.561 32.3286 106.22 32.4246 105.976 32.6146C105.731 32.8046 105.609 33.0778 105.609 33.4342ZM110.692 26.6498V27.2069L109.513 27.3338C109.62 27.4566 109.717 27.6197 109.802 27.8188C109.888 28.0178 109.929 28.242 109.929 28.4937C109.929 29.062 109.717 29.5164 109.29 29.8547C108.864 30.193 108.278 30.3632 107.534 30.3632C107.343 30.3632 107.167 30.3488 106.998 30.3216C106.587 30.5186 106.383 30.7686 106.383 31.069C106.383 31.2281 106.454 31.3459 106.597 31.4218C106.742 31.4976 106.988 31.5359 107.338 31.5359H108.465C109.155 31.5359 109.685 31.6678 110.057 31.9339C110.426 32.1981 110.61 32.5837 110.61 33.0885C110.61 33.7309 110.328 34.2216 109.763 34.5582C109.195 34.8965 108.37 35.0647 107.283 35.0647C106.45 35.0647 105.807 34.9237 105.356 34.6415C104.904 34.3589 104.678 33.9591 104.678 33.4453C104.678 33.0922 104.803 32.7864 105.051 32.5277C105.299 32.2706 105.648 32.095 106.097 32.0048C105.934 31.936 105.797 31.8326 105.688 31.6916C105.577 31.5486 105.521 31.3838 105.521 31.1976C105.521 30.9838 105.585 30.7992 105.708 30.6401C105.833 30.4807 106.027 30.3269 106.295 30.1786C105.966 30.0537 105.698 29.8436 105.489 29.5469C105.283 29.2502 105.178 28.9099 105.178 28.528C105.178 27.8929 105.388 27.4023 105.807 27.0586C106.226 26.7129 106.819 26.541 107.588 26.541C107.921 26.541 108.22 26.5773 108.489 26.6498H110.692ZM97.9445 29.5486C97.9445 30.2907 98.1076 30.8572 98.433 31.2462C98.7584 31.6356 99.2369 31.8289 99.8701 31.8289C100.501 31.8289 100.981 31.6356 101.309 31.2479C101.636 30.8609 101.799 30.2944 101.799 29.5486C101.799 28.8106 101.636 28.2494 101.309 27.8658C100.981 27.4821 100.497 27.2902 99.8579 27.2902C99.2248 27.2902 98.7484 27.4784 98.4271 27.8567C98.1054 28.235 97.9445 28.7995 97.9445 29.5486ZM102.8 29.5486C102.8 30.4971 102.538 31.2372 102.016 31.7695C101.492 32.3015 100.769 32.5673 99.8461 32.5673C99.2763 32.5673 98.7702 32.4461 98.3277 32.2018C97.8871 31.9574 97.5455 31.6064 97.3055 31.1502C97.0636 30.6945 96.944 30.1605 96.944 29.5486C96.944 28.6005 97.2042 27.8621 97.7244 27.3338C98.2427 26.8052 98.9649 26.541 99.8859 26.541C100.779 26.541 101.485 26.8109 102.012 27.3516C102.538 27.893 102.8 28.626 102.8 29.5486ZM94.2685 32.4589H93.3037V24.2064H94.2685V32.4589ZM85.7729 29.5486C85.7729 30.2907 85.9356 30.8572 86.261 31.2462C86.5868 31.6356 87.0654 31.8289 87.6981 31.8289C88.3294 31.8289 88.8098 31.6356 89.1371 31.2479C89.4647 30.8609 89.6274 30.2944 89.6274 29.5486C89.6274 28.8106 89.4647 28.2494 89.1371 27.8658C88.8098 27.4821 88.325 27.2902 87.6864 27.2902C87.0528 27.2902 86.5765 27.4784 86.2551 27.8567C85.9334 28.235 85.7729 28.7995 85.7729 29.5486ZM90.6276 29.5486C90.6276 30.4971 90.3658 31.2372 89.8435 31.7695C89.32 32.3015 88.5974 32.5673 87.6746 32.5673C87.1047 32.5673 86.5986 32.4461 86.1561 32.2018C85.7155 31.9574 85.3739 31.6064 85.1335 31.1502C84.8917 30.6945 84.7724 30.1605 84.7724 29.5486C84.7724 28.6005 85.0323 27.8621 85.5524 27.3338C86.0704 26.8052 86.793 26.541 87.714 26.541C88.6074 26.541 89.3138 26.8109 89.8398 27.3516C90.3658 27.893 90.6276 28.626 90.6276 29.5486ZM81.1973 32.4589V28.7001C81.1973 28.2259 81.0806 27.8731 80.8421 27.6395C80.6061 27.4059 80.2351 27.2902 79.7308 27.2902C79.0637 27.2902 78.5753 27.455 78.2657 27.7825C77.9546 28.1118 77.7997 28.6548 77.7997 29.4113V32.4589H76.8348V26.6498H77.6185L77.7757 27.4422H77.8232C78.0216 27.1562 78.2973 26.9337 78.6548 26.7763C79.0122 26.6189 79.4094 26.541 79.8478 26.541C80.6161 26.541 81.1933 26.7092 81.5805 27.0478C81.9696 27.3845 82.1621 27.9255 82.1621 28.6672V32.4589H81.1973ZM72.7297 32.5673C71.8068 32.5673 71.0923 32.3085 70.5862 31.791C70.08 31.2717 69.8279 30.5387 69.8279 29.5922C69.8279 28.6186 70.0841 27.8678 70.5979 27.3371C71.1122 26.8069 71.8425 26.541 72.7934 26.541C73.0989 26.541 73.4044 26.5719 73.7122 26.6313C74.0177 26.6911 74.2581 26.7619 74.4329 26.8451L74.1351 27.5926C73.9223 27.5147 73.6904 27.4513 73.4383 27.3989C73.1861 27.3482 72.9642 27.323 72.7698 27.323C71.4752 27.323 70.8284 28.0755 70.8284 29.5815C70.8284 30.2944 70.9852 30.8428 71.3007 31.2248C71.6184 31.6064 72.0847 31.7967 72.7061 31.7967C73.2358 31.7967 73.7821 31.6916 74.3394 31.4835V32.2652C73.9128 32.4659 73.3768 32.5673 72.7297 32.5673ZM64.9486 27.2794C64.4369 27.2794 64.0298 27.4315 63.7261 27.7355C63.4205 28.0376 63.242 28.4575 63.1883 28.9948H66.5189C66.5189 28.4414 66.3838 28.0158 66.1122 27.7211C65.8401 27.4261 65.4532 27.2794 64.9486 27.2794ZM65.2107 32.5673C64.2683 32.5673 63.5254 32.3048 62.9821 31.7819C62.4358 31.259 62.1642 30.5317 62.1642 29.6013C62.1642 28.6639 62.4163 27.9201 62.9225 27.368C63.4286 26.8162 64.1071 26.541 64.9607 26.541C65.7588 26.541 66.3916 26.7797 66.8561 27.2596C67.3207 27.7389 67.5551 28.3709 67.5551 29.1542V29.7117H63.1647C63.1842 30.3937 63.3727 30.9113 63.7301 31.2664C64.0894 31.6191 64.5937 31.7967 65.2464 31.7967C65.9314 31.7967 66.6102 31.6661 67.2809 31.4036V32.1894C66.9397 32.3249 66.6161 32.4206 66.3128 32.4807C66.0087 32.5384 65.6413 32.5673 65.2107 32.5673ZM59.3908 31.84C59.5616 31.84 59.7265 31.8289 59.8852 31.8054C60.0439 31.7819 60.169 31.7584 60.2621 31.7332V32.4082C60.1569 32.4535 60.0041 32.4914 59.7998 32.5223C59.5973 32.5528 59.4125 32.5673 59.2498 32.5673C58.0174 32.5673 57.4019 31.9756 57.4019 30.7904V27.3338H56.489V26.9102L57.4019 26.5427L57.8091 25.3032H58.3667V26.6498H60.2165V27.3338H58.3667V30.7522C58.3667 31.1033 58.458 31.3714 58.6406 31.5594C58.8232 31.7456 59.0735 31.84 59.3908 31.84Z" fill="#FAFAFA"/>
</svg>
