<svg width="64" height="64" viewBox="0 0 64 64" fill="none" xmlns="http://www.w3.org/2000/svg">
<g id="masculino">
<g clip-path="url(#clip0)">
<rect width="64" height="64" rx="32" fill="#008693"/>
<g id="&#240;&#159;&#152;&#138; Heads">
<g id="&#240;&#159;&#152;&#138; Heads_2" clip-path="url(#clip1)">
<g id="Head">
<circle id="Ear" cx="18" cy="37" r="5" fill="#F5D0C5"/>
<path id="Neck" d="M18 41H35V65.8705C35 65.8705 31.3571 68 26.5 68C21.6429 68 18 64.5226 18 64.5226V41Z" fill="#F5D0C5"/>
<path id="Shadow" d="M34.8114 53.1122C34.8114 58.4968 33.9402 57.9871 28.2776 57.9871C22.6151 57.9871 20.0016 53.6219 20.0016 48.2373C20.0016 42.8526 19.7867 38 24.3574 38C37.2799 38.4762 34.8114 47.7275 34.8114 53.1122Z" fill="#EAC0B3"/>
<path id="Face" d="M45.8859 36.0992C45.8859 45.0216 44.5001 55.9932 33.5001 55.9932C22.5001 55.9932 17.4285 45.0216 17.4285 36.0992C15.0001 25.5 15.5001 13 32.0001 13C48.5001 13 45.8859 27.1767 45.8859 36.0992Z" fill="#F5D0C5"/>
<rect id="Nose" x="36" y="41" width="3" height="2" rx="1" fill="#F5D0C5"/>
</g>
</g>
</g>
<g id="&#240;&#159;&#145;&#132;Mouth">
<g id="&#240;&#159;&#145;&#132;Mouth_2">
<g id="&#240;&#159;&#145;&#132;Mouth_3">
<path id="Shape" d="M27.9285 46C27.9285 45.4477 28.3762 45 28.9285 45H38.0713C38.6236 45 39.0713 45.4477 39.0713 46C39.0713 48.7614 36.8327 51 34.0713 51H32.9285C30.167 51 27.9285 48.7614 27.9285 46Z" fill="#66253C"/>
<path id="Tounge" fill-rule="evenodd" clip-rule="evenodd" d="M35.7546 50.7095C35.2286 50.8975 34.6619 50.9999 34.0713 50.9999H32.9285C30.234 50.9999 28.0373 48.8686 27.9324 46.1998C28.6964 45.914 29.8304 45.9469 30.9498 45.9794C31.3054 45.9897 31.6596 45.9999 31.9999 45.9999C34.209 45.9999 35.9999 47.5669 35.9999 49.4999C35.9999 49.9251 35.9133 50.3326 35.7546 50.7095Z" fill="#B03E67"/>
<path id="Tooth" d="M29 45H39V46C39 46.5523 38.5523 47 38 47H30C29.4477 47 29 46.5523 29 46V45Z" fill="white"/>
</g>
</g>
</g>
<g id="&#240;&#159;&#167;&#145;&#226;&#128;&#141;&#240;&#159;&#166;&#176; Hair">
<path id="Shape_2" fill-rule="evenodd" clip-rule="evenodd" d="M28.9648 26.2012C34.5759 28.0641 42.3536 30.6463 50.4999 22.5C54.4999 18.5 36.4999 1.50004 21.9999 11C10.6666 12.679 11.3143 19.4699 11.8142 24.7107C11.9097 25.7126 11.9999 26.6579 11.9999 27.5C11.9999 28.0329 12.0695 28.4317 12.2002 28.7183C12.0394 29.9514 11.9999 31.1853 11.9999 32C11.9999 34.2092 13.7907 36 15.9999 36C18.209 36 19.9999 34.2092 19.9999 32C22.209 32 23.9999 30.2092 23.9999 28C23.9999 27.654 23.9559 27.3183 23.8734 26.9981C23.9154 26.9994 23.9575 27 23.9999 27C25.2236 27 26.319 26.4505 27.0527 25.5848C27.6572 25.7671 28.2956 25.979 28.9648 26.2012Z" fill="#1B0B47"/>
</g>
<g id="Golf" clip-path="url(#clip2)">
<rect id="T-shirt" x="8" y="60" width="40" height="23" rx="9" fill="#E05A33"/>
<path id="Glof" d="M18 58H37V61C37 61 32 62 27.5 62C23 62 18 61 18 61V58Z" fill="#E05A33"/>
<path id="Shadow_2" d="M18 58H37V60C37 60 34 61.5 27.5 61.5C21 61.5 18 60 18 60V58Z" fill="#C53926"/>
<path id="Glof_2" d="M17.5 59C17.5 57.8954 18.3954 57 19.5 57H35.5C36.6046 57 37.5 57.8954 37.5 59C37.5 59 32.5 60 27.5 60C22.5 60 17.5 59 17.5 59Z" fill="#E05A33"/>
</g>
<g id="&#240;&#159;&#145;&#129;&#239;&#184;&#143;Eyes">
<g id="Eyes">
<path id="Eye" d="M30 36.5C30 35.6716 30.6716 35 31.5 35C32.3284 35 33 35.6716 33 36.5V37.7273C33 37.8779 32.8779 38 32.7273 38H30.2727C30.1221 38 30 37.8779 30 37.7273V36.5Z" fill="#1B0B47"/>
<path id="Eye_2" d="M40 36.5C40 35.6716 40.6716 35 41.5 35C42.3284 35 43 35.6716 43 36.5V37.7273C43 37.8779 42.8779 38 42.7273 38H40.2727C40.1221 38 40 37.8779 40 37.7273V36.5Z" fill="#1B0B47"/>
</g>
</g>
</g>
</g>
<defs>
<clipPath id="clip0">
<rect width="64" height="64" rx="32" fill="white"/>
</clipPath>
<clipPath id="clip1">
<rect width="64" height="64" fill="white"/>
</clipPath>
<clipPath id="clip2">
<rect width="64" height="64" fill="white" transform="translate(1)"/>
</clipPath>
</defs>
</svg>
