<svg width="64" height="64" viewBox="0 0 64 64" fill="none" xmlns="http://www.w3.org/2000/svg">
<g id="masculino-amarelo">
<g clip-path="url(#clip0)">
<rect width="64" height="64" rx="32" fill="#FFC400"/>
<g id="&#240;&#159;&#152;&#138; Heads">
<g id="&#240;&#159;&#152;&#138; Heads_2" clip-path="url(#clip1)">
<g id="Head">
<circle id="Ear" cx="18" cy="37" r="5" fill="#EAC0B3"/>
<path id="Neck" d="M18 41H35V65.8705C35 65.8705 31.3571 68 26.5 68C21.6429 68 18 64.5226 18 64.5226V41Z" fill="#EAC0B3"/>
<path id="Shadow" d="M34.8114 53.1122C34.8114 58.4968 33.9402 57.9871 28.2776 57.9871C22.6151 57.9871 20.0016 53.6219 20.0016 48.2373C20.0016 42.8526 19.7867 38 24.3574 38C37.2799 38.4762 34.8114 47.7275 34.8114 53.1122Z" fill="#C99688"/>
<path id="Face" d="M45.8859 36.0992C45.8859 45.0216 44.5001 55.9932 33.5001 55.9932C22.5001 55.9932 17.4285 45.0216 17.4285 36.0992C15.0001 25.5 15.5001 13 32.0001 13C48.5001 13 45.8859 27.1767 45.8859 36.0992Z" fill="#F5D0C5"/>
<rect id="Nose" x="36" y="41" width="3" height="2" rx="1" fill="#EAC0B3"/>
</g>
</g>
</g>
<g id="&#240;&#159;&#145;&#149; Clothes">
<g id="T-Shirt" clip-path="url(#clip2)">
<rect id="T-shirt" x="7" y="60" width="40" height="23" rx="9" fill="#E05A33"/>
</g>
</g>
<g id="&#240;&#159;&#167;&#145;&#226;&#128;&#141;&#240;&#159;&#166;&#176; Hair">
<g id="&#240;&#159;&#167;&#145;&#226;&#128;&#141;&#240;&#159;&#166;&#176; Hair_2">
<path id="Shape" fill-rule="evenodd" clip-rule="evenodd" d="M28.9648 26.2012C34.5759 28.0641 42.3536 30.6463 50.4999 22.5C54.4999 18.5 36.4999 1.50004 21.9999 11C10.6666 12.679 11.3143 19.4699 11.8142 24.7107C11.9097 25.7126 11.9999 26.6579 11.9999 27.5C11.9999 28.0329 12.0695 28.4317 12.2002 28.7183C12.0394 29.9514 11.9999 31.1853 11.9999 32C11.9999 34.2092 13.7907 36 15.9999 36C18.209 36 19.9999 34.2092 19.9999 32C22.209 32 23.9999 30.2092 23.9999 28C23.9999 27.654 23.9559 27.3183 23.8734 26.9981C23.9154 26.9994 23.9575 27 23.9999 27C25.2236 27 26.319 26.4505 27.0527 25.5848C27.6572 25.7671 28.2956 25.979 28.9648 26.2012Z" fill="#1B0B47"/>
</g>
</g>
<g id="&#240;&#159;&#145;&#132;Mouth">
<g id="&#240;&#159;&#145;&#132;Mouth_2">
<g id="&#240;&#159;&#145;&#132;Mouth_3">
<path id="Shape_2" d="M28.9285 46C28.9285 45.4477 29.3762 45 29.9285 45H39.0713C39.6236 45 40.0713 45.4477 40.0713 46C40.0713 48.7614 37.8327 51 35.0713 51H33.9285C31.167 51 28.9285 48.7614 28.9285 46Z" fill="#66253C"/>
<path id="Tounge" fill-rule="evenodd" clip-rule="evenodd" d="M36.7546 50.7095C36.2286 50.8975 35.6619 50.9999 35.0713 50.9999H33.9285C31.234 50.9999 29.0373 48.8686 28.9324 46.1998C29.6964 45.914 30.8304 45.9469 31.9498 45.9794C32.3054 45.9897 32.6596 45.9999 32.9999 45.9999C35.209 45.9999 36.9999 47.5669 36.9999 49.4999C36.9999 49.9251 36.9133 50.3326 36.7546 50.7095Z" fill="#B03E67"/>
</g>
</g>
</g>
<g id="&#240;&#159;&#145;&#129;&#239;&#184;&#143;Eyes">
<g id="&#240;&#159;&#145;&#129;&#239;&#184;&#143;Eyes_2">
<g id="Eyes">
<rect id="Eye" x="30" y="35" width="3" height="4" rx="1.5" fill="#1B0B47"/>
<rect id="Eye_2" x="40" y="35" width="3" height="4" rx="1.5" fill="#1B0B47"/>
</g>
</g>
</g>
<g id="&#240;&#159;&#145;&#147; Glasses">
<g id="&#240;&#159;&#145;&#147; Glasses_2">
<g id="Glasses">
<circle id="Glass" cx="30.2689" cy="36.2689" r="4.26891" stroke="black" stroke-width="2"/>
<circle id="Glass_2" cx="44.2689" cy="36.2689" r="4.26891" stroke="black" stroke-width="2"/>
<line id="Glasses_2" x1="33.9852" y1="35.1036" x2="40.9852" y2="35.0001" stroke="black" stroke-width="2"/>
</g>
</g>
</g>
</g>
</g>
<defs>
<clipPath id="clip0">
<rect width="64" height="64" rx="32" fill="white"/>
</clipPath>
<clipPath id="clip1">
<rect width="64" height="64" fill="white"/>
</clipPath>
<clipPath id="clip2">
<rect width="64" height="64" fill="white"/>
</clipPath>
</defs>
</svg>
